<svg width="91" height="15" viewBox="0 0 91 15" fill="none" xmlns="http://www.w3.org/2000/svg">
<g clip-path="url(#clip0_6_1214)">
<mask id="mask0_6_1214" style="mask-type:luminance" maskUnits="userSpaceOnUse" x="0" y="0" width="91" height="14">
<path d="M0.956177 0.00512695H90.6868V13.9518H0.956177V0.00512695Z" fill="white"/>
</mask>
<g mask="url(#mask0_6_1214)">
<path fill-rule="evenodd" clip-rule="evenodd" d="M8.5136 2.31589H8.66909V0.328055H0.9557V0.461132C1.84529 1.18365 1.96716 1.39484 1.96716 2.1839V11.8074C1.96716 12.5964 1.84529 12.8069 0.9557 13.5298V13.6636H4.95668V13.5298C4.05625 12.8528 3.90075 12.5964 3.90075 11.841V7.07303H4.76719C5.90124 7.07303 6.10158 7.15077 7.06747 8.38427H7.20127V5.25117H7.06747C6.10122 6.48358 5.90124 6.56241 4.76719 6.56241H3.90075V0.815883H5.2232C5.75731 0.815883 6.21223 0.993439 8.51396 2.31625L8.5136 2.31589ZM11.557 7.97238H8.88028L10.1485 4.09652C10.2071 4.23538 10.266 4.38943 10.3293 4.57169L11.557 7.97238ZM13.6635 9.10642L11.3422 2.72705H9.24082V2.85001C9.53626 3.12484 9.72611 3.33458 9.87655 3.56602L8.14076 8.83919C7.83013 9.7841 7.62979 10.0842 6.84001 10.8173V10.9518H9.27445V10.8176C8.60762 10.4068 8.38558 10.1407 8.38558 9.75083C8.38558 9.56279 8.44127 9.30749 8.58592 8.87354L8.73852 8.40632H11.7132L11.9855 9.16103C12.153 9.64018 12.1859 9.84015 12.1859 10.0181C12.1859 10.2951 11.9967 10.5287 11.4861 10.8173V10.9518H14.8861V10.8176C14.0855 10.162 13.9636 9.94105 13.6635 9.10642ZM18.7721 2.31625H18.9283V0.394232C18.1834 0.260432 17.3498 0.149414 16.5832 0.149414C14.3484 0.149414 13.249 1.6393 13.249 3.2279C13.249 5.06132 14.4384 6.16138 15.9605 7.42922C17.6048 8.807 18.5717 9.64018 18.5717 11.2288C18.5717 12.5404 17.7057 13.3407 16.5503 13.3407C15.5388 13.3407 14.7386 12.9396 12.6144 11.2729H12.4278L13.2042 13.4408C14.1379 13.7036 15.103 13.8382 16.0729 13.8408C18.6173 13.8408 20.0953 12.2967 20.0953 10.1515C20.0953 8.17344 18.9392 7.16235 17.2938 5.82868C15.7826 4.60496 14.749 3.61701 14.749 2.19439C14.749 1.27189 15.3605 0.638688 16.3055 0.638688C16.9611 0.638688 17.4171 0.893993 18.7721 2.31625ZM28.5634 2.31625H28.7181V0.32697H19.6284V2.31589H19.7832C21.9283 0.960893 22.3623 0.781891 22.862 0.781891H23.207V11.8403C23.207 12.5957 23.0508 12.8521 22.1504 13.5291V13.6629H26.1958V13.5291C25.2954 12.8521 25.1395 12.5957 25.1395 11.8403V0.782614H25.4849C25.9839 0.782614 26.4179 0.961617 28.5634 2.31661V2.31625ZM40.1562 1.9615H40.3132V0.249583C39.4127 0.115783 38.2566 0.00512695 37.2014 0.00512695C32.4776 0.00512695 29.6768 2.63954 29.6768 7.00612C29.6768 11.2964 32.355 13.9522 37.0224 13.9522C38.2338 13.9522 39.3231 13.7746 40.1902 13.5406L40.5338 11.641H40.3797C38.6345 13.119 37.8563 13.4632 36.5899 13.4632C33.0995 13.4632 31.9326 10.8288 31.9326 6.92874C31.9326 2.96102 33.0995 0.538519 36.4004 0.538519C37.4553 0.538519 38.2017 0.782252 40.1562 1.9615ZM39.706 6.92874C39.706 9.12957 39.518 10.5844 37.9279 10.5844C36.3277 10.5844 36.1495 9.12957 36.1495 6.92838C36.1495 4.72791 36.3277 3.27202 37.9279 3.27202C39.5285 3.27202 39.706 4.72791 39.706 6.92874ZM41.5951 6.92874C41.5951 4.60496 40.2173 2.86049 37.9283 2.86049C35.6392 2.86049 34.2611 4.61797 34.2611 6.92874C34.2611 9.22865 35.6388 10.9952 37.9279 10.9952C40.2177 10.9952 41.5951 9.22865 41.5951 6.92874ZM49.7696 13.6397L53.7257 13.6629V13.5291C52.8369 12.8065 52.7154 12.5961 52.7154 11.807V2.18354C52.7154 1.39448 52.8369 1.18329 53.7261 0.471619V0.338542L50.9257 0.316122L47.8161 10.1667L44.6356 0.327332H41.8023V0.46077C42.3364 0.925093 42.6637 1.22741 42.9017 1.53804V10.8621C42.9017 11.9397 42.7686 12.3737 41.7676 13.5294V13.6632H44.9361V13.5294C43.6018 12.4301 43.4137 11.9853 43.4137 10.8621V2.56613C43.4354 2.62978 43.4571 2.68981 43.4788 2.76068L47.048 13.7742H47.2028L50.7803 2.43884V11.7958C50.7803 12.5852 50.6584 12.7957 49.7696 13.5074V13.6397ZM61.2221 4.40679C61.2221 6.90668 60.6334 7.95104 58.7215 7.95104H57.6211V0.815883H58.3986C60.5105 0.815883 61.2221 1.71632 61.2221 4.40679ZM63.2885 4.31711C63.2885 1.31637 61.1882 0.327694 58.3436 0.327694H54.6768V0.46077C55.5649 1.18329 55.6868 1.39448 55.6868 2.18354V11.807C55.6868 12.5961 55.5649 12.8065 54.6768 13.5294V13.6632H58.6771V13.5294C57.7763 12.8525 57.6211 12.5961 57.6211 11.8406V8.43996H58.6648C61.1773 8.43996 63.2885 7.37245 63.2885 4.31711ZM68.1696 8.79579H64.3954L66.2545 2.07433C66.2939 2.18896 66.3326 2.31155 66.372 2.44969L68.1693 8.79615L68.1696 8.79579ZM90.6871 0.460409V0.328055H87.6762V0.461132C88.4873 1.18365 88.7314 1.52792 88.7314 2.05046C88.7314 2.32819 88.6649 2.55022 88.4418 3.06192L86.7132 7.10449L84.4531 2.09422C84.2748 1.7062 84.2184 1.49429 84.2184 1.29503C84.2184 0.939558 84.4195 0.738858 84.9633 0.461132V0.327694H78.2961V0.46077C79.7853 1.56155 79.986 1.99405 79.986 3.2062V10.8762L74.4184 0.327332H71.6502V0.460409C72.2277 0.955831 72.5626 1.26502 72.8508 1.64761V10.8943C72.8508 11.8992 72.7391 12.3364 71.9421 13.5291C71.328 12.7595 71.1942 12.39 70.8832 11.2957L67.7389 0.327694H65.0387V0.46077C65.4632 0.833241 65.7312 1.09144 65.9319 1.39375L63.3163 10.8075C62.9384 12.1744 62.6375 12.5852 61.6376 13.5294V13.6632H64.8611V13.5294C63.9383 12.8293 63.6501 12.4738 63.6501 11.8623C63.6501 11.6182 63.7058 11.2729 63.8392 10.8075L64.2569 9.29591H68.3096L68.873 11.2848C69.0502 11.9075 69.1171 12.1744 69.1171 12.4185C69.1171 12.7628 68.9742 12.9964 68.2951 13.5294V13.6632H75.052V13.5294C73.5614 12.4301 73.3625 11.9961 73.3625 10.895V2.47717C73.3734 2.49959 73.3842 2.51623 73.3951 2.53937L79.2743 13.6629H80.4977V3.2062C80.4977 2.09964 80.6076 1.65955 81.376 0.467641C81.8765 1.07336 82.194 1.58252 82.6077 2.5061L85.0082 7.81001V11.841C85.0082 12.5961 84.852 12.8525 83.9522 13.5294V13.6632H87.9984V13.5294C87.0973 12.8525 86.9429 12.5961 86.9429 11.8406V7.74998L88.9419 3.09482C89.3654 2.10579 89.6868 1.63966 90.6875 0.461132L90.6871 0.460409Z" fill="black"/>
</g>
</g>
<defs>
<clipPath id="clip0_6_1214">
<rect width="90.0438" height="14.1033" fill="white" transform="translate(0.956177 0.00512695)"/>
</clipPath>
</defs>
</svg>
