<svg width="57" height="15" viewBox="0 0 57 15" fill="none" xmlns="http://www.w3.org/2000/svg">
<g clip-path="url(#clip0_6_1208)">
<path d="M31.9695 4.75509C31.9695 3.23975 31.9977 1.82891 32.0824 0.522583L27.7652 1.28025V1.64603L28.1885 1.69828C28.4989 1.72441 28.6964 1.82891 28.8092 1.98567C28.9221 2.16856 29.0068 2.42982 29.0632 2.82172C29.1196 3.57939 29.1761 5.30375 29.1478 8.02091C29.1478 10.7119 29.1196 12.4102 29.0632 13.0633C30.6151 13.3769 31.8284 13.5075 32.7314 13.5075C34.4244 13.5075 35.7506 13.0633 36.7099 12.1489C37.6693 11.2606 38.1772 10.0065 38.1772 8.46506C38.1772 7.23711 37.8104 6.21818 37.0767 5.40825C36.3431 4.59833 35.412 4.20643 34.3115 4.20643C33.5779 4.20643 32.816 4.38932 31.9695 4.75509ZM32.0542 12.8021C31.9977 11.966 31.9413 9.45787 31.9413 5.356C32.1952 5.27762 32.5338 5.22537 32.9571 5.22537C33.6343 5.22537 34.1704 5.53889 34.5655 6.19205C34.9605 6.84521 35.158 7.62901 35.158 8.62182C35.158 9.84977 34.9323 10.8426 34.4808 11.6786C34.0293 12.4886 33.465 12.9066 32.7596 12.9066C32.5338 12.8543 32.3081 12.8282 32.0542 12.8021ZM11.5688 0.783849H0.282166V1.30638L0.874716 1.35863C1.32618 1.43701 1.63657 1.59377 1.83408 1.82891C2.0316 2.09018 2.14447 2.5082 2.17268 3.08299C2.39842 5.90466 2.39842 8.54344 2.17268 10.9732C2.11625 11.548 2.00338 11.966 1.83408 12.2273C1.63657 12.4886 1.32618 12.6453 0.874716 12.6976L0.282166 12.7759V13.2985H7.56207V12.7759L6.80022 12.7237C6.34876 12.6714 6.03837 12.4886 5.84085 12.2534C5.64334 11.9921 5.53047 11.5741 5.50225 10.9993C5.4176 9.95428 5.36117 8.75245 5.36117 7.42L6.88487 7.44612C7.70316 7.47225 8.26749 8.04704 8.54966 9.19661H9.11399V4.93797H8.54966C8.26749 6.06142 7.73137 6.6362 6.88487 6.66233L5.36117 6.68845C5.36117 4.33706 5.4176 2.66496 5.50225 1.64603H7.73137C9.31151 1.64603 10.3837 2.58658 11.0045 4.4677L11.6817 4.28481L11.5688 0.783849ZM10.2427 8.83083C10.2427 10.1894 10.6659 11.3129 11.4842 12.2012C12.3025 13.0895 13.5158 13.5075 15.0395 13.5075C16.5632 13.5075 17.8047 13.0633 18.7077 12.1489C19.6106 11.2606 20.0339 10.1372 20.0339 8.77858C20.0339 7.42 19.6106 6.29656 18.7923 5.40825C17.974 4.51995 16.7607 4.10192 15.237 4.10192C13.7133 4.10192 12.4718 4.54607 11.5688 5.46051C10.6659 6.34881 10.2427 7.47225 10.2427 8.83083ZM16.535 5.8524C16.8736 6.61007 17.0147 7.60288 17.0147 8.80471C17.0147 11.5741 16.3939 12.9327 15.1806 12.9327C14.5598 12.9327 14.0801 12.5408 13.7415 11.757C13.4029 10.9732 13.2618 9.9804 13.2618 8.80471C13.2618 6.06142 13.8826 4.70283 15.0959 4.70283C15.7167 4.67671 16.1964 5.06861 16.535 5.8524ZM40.3781 12.2012C41.3092 13.0633 42.4943 13.5075 43.9052 13.5075C44.7799 13.5075 45.5417 13.3507 46.2189 13.0111C46.8961 12.6976 47.4323 12.3057 47.7991 11.8354L47.5169 11.5219C46.8961 11.966 46.1907 12.175 45.3724 12.175C44.2438 12.175 43.3691 11.8354 42.7765 11.13C42.1557 10.4246 41.8736 9.53625 41.93 8.38668H47.9684C47.9684 7.13261 47.6298 6.11367 46.9244 5.30375C46.2189 4.51995 45.2314 4.12805 43.9616 4.12805C42.3815 4.12805 41.1682 4.59833 40.2934 5.51276C39.4187 6.42719 38.9955 7.55063 38.9955 8.88309C38.9955 10.2417 39.4469 11.339 40.3781 12.2012ZM42.4661 5.64339C42.7765 5.01635 43.1715 4.70283 43.7077 4.70283C44.5542 4.70283 44.9774 5.69564 44.9774 7.70739L41.9864 7.75964C42.0147 6.97585 42.1557 6.27043 42.4661 5.64339ZM55.5587 4.59833C54.7968 4.28481 53.8375 4.10192 52.6806 4.10192C51.4955 4.10192 50.5643 4.38932 49.8589 4.93797C49.1535 5.48663 48.7867 6.16592 48.7867 6.97585C48.7867 7.68126 49.0124 8.22992 49.4356 8.62182C49.8589 9.01372 50.5361 9.35336 51.4108 9.64076C52.2009 9.90202 52.7652 10.1633 53.0474 10.3984C53.3296 10.6597 53.4989 10.9471 53.4989 11.339C53.4989 11.7048 53.3578 12.0444 53.0474 12.3057C52.7652 12.5931 52.3702 12.7237 51.8623 12.7237C50.6208 12.7237 49.6896 11.8876 49.0406 10.2155L48.5609 10.3462L48.6738 12.9588C49.6896 13.3246 50.8183 13.5075 52.0598 13.5075C53.3578 13.5075 54.3454 13.2462 55.079 12.6976C55.8126 12.175 56.1794 11.4174 56.1794 10.4768C56.1794 9.84977 56.0101 9.32724 55.6433 8.93534C55.2765 8.54344 54.684 8.2038 53.8375 7.89028C52.9063 7.57676 52.2573 7.28937 51.9187 7.0281C51.5801 6.76683 51.4108 6.45332 51.4108 6.06142C51.4108 5.66952 51.5237 5.356 51.7776 5.09473C52.0316 4.83347 52.342 4.72896 52.737 4.72896C53.8657 4.72896 54.684 5.48663 55.1919 6.97585L55.6715 6.84521L55.5587 4.59833ZM28.4142 4.36319C28.0192 4.1803 27.5959 4.10192 27.1162 4.10192C26.6366 4.10192 26.1569 4.28481 25.6208 4.65058C25.0846 5.01635 24.6896 5.51276 24.3792 6.19205L24.4074 4.10192L20.1185 4.88572V5.25149L20.5418 5.27762C21.0779 5.32987 21.3883 5.72177 21.4447 6.42719C21.614 8.04704 21.614 9.77139 21.4447 11.6003C21.3883 12.3057 21.0779 12.6714 20.5418 12.7498L20.1185 12.8021V13.2985H26.1004V12.8021L25.3386 12.7498C24.8025 12.6976 24.4921 12.3057 24.4357 11.6003C24.2664 10.0849 24.2381 8.46506 24.3792 6.79296C24.5485 6.53169 24.9153 6.37494 25.4797 6.32268C26.044 6.27043 26.693 6.42719 27.3702 6.79296L28.4142 4.36319Z" fill="black"/>
</g>
<defs>
<clipPath id="clip0_6_1208">
<rect width="56.4334" height="14.1083" fill="white"/>
</clipPath>
</defs>
</svg>
