<svg width="64" height="15" viewBox="0 0 64 15" fill="none" xmlns="http://www.w3.org/2000/svg">
<g clip-path="url(#clip0_6_1212)">
<path d="M47.3419 3.60714L47.2811 5.43538C45.1463 5.28906 44.5364 5.83767 44.5364 7.62923V7.86041H42.7067V3.71678H44.5364V4.89906C45.0854 3.93627 45.8295 3.4975 47.3419 3.60714ZM3.79449 11.042H5.62414V3.97255H3.79449V11.042ZM12.8577 3.61944C11.5769 3.61944 10.7963 4.19223 10.3815 4.8259V0.925749H0.744873V2.63205H8.67377V7.86041H10.418C10.418 6.36129 11.2842 5.30135 12.3454 5.30135C13.2604 5.30135 13.675 5.75222 13.675 7.37326V11.042H15.5046V6.71521C15.5046 4.6433 14.4435 3.61944 12.8577 3.61944ZM20.0546 9.64007C18.9446 9.64007 18.2249 8.96973 18.103 7.86061H16.383C16.5537 9.81078 17.8345 11.1882 20.0425 11.1882C21.7502 11.1882 22.7138 10.4203 23.214 9.26237L21.6647 8.57973C21.433 9.27447 21.0061 9.64007 20.0546 9.64007ZM19.9814 3.65571C19.3283 3.64129 18.6821 3.79223 18.103 4.09448L18.9811 5.33763C19.3105 5.16712 19.6644 5.08167 20.0425 5.09376C21.0671 5.09376 21.5916 5.76431 21.6647 6.64165H19.8959V7.86061H23.3847C23.4091 7.6778 23.4214 7.50709 23.4214 7.32449C23.4335 4.66728 21.677 3.65571 19.9814 3.65571ZM38.0957 9.64007C36.9858 9.64007 36.2661 8.96973 36.1441 7.86061H34.4241C34.5948 9.81078 35.8757 11.1882 38.0836 11.1882C39.7913 11.1882 40.7549 10.4203 41.2552 9.26237L39.7059 8.57973C39.462 9.27447 39.0351 9.64007 38.0957 9.64007ZM38.0349 3.65571C37.3817 3.64126 36.7354 3.79219 36.1562 4.09448L37.0346 5.33763C37.3639 5.16712 37.7176 5.08167 38.0957 5.09376C39.1204 5.09376 39.645 5.76431 39.7182 6.64165H37.9494V7.86061H41.4382C41.4626 7.6778 41.4747 7.50709 41.4747 7.32449C41.487 4.66728 39.7303 3.65571 38.0349 3.65571ZM59.4791 9.64007C58.3692 9.64007 57.6495 8.96973 57.5276 7.86061H55.8075C55.9783 9.81078 57.2591 11.1882 59.467 11.1882C61.1748 11.1882 62.1384 10.4203 62.6386 9.26237L61.0893 8.57973C60.8454 9.27447 60.4186 9.64007 59.4791 9.64007ZM59.3816 3.65571C58.7285 3.64128 58.0823 3.79222 57.5032 4.09448L58.3813 5.33763C58.7108 5.16712 59.0646 5.08167 59.4427 5.09376C60.4673 5.09376 60.9918 5.76431 61.0649 6.64165H59.2963V7.86061H62.7849C62.8093 7.6778 62.8216 7.50709 62.8216 7.32449C62.8337 4.66728 61.0772 3.65571 59.3816 3.65571ZM24.3606 0.0603027L27.6515 7.86041H29.6521L27.1418 1.65696H30.3865V0.0725972L24.3606 0.0605043V0.0603027ZM34.1192 0.0723956L30.3498 9.61589L29.7887 11.042H31.7038L36.2294 0.0725972H34.1192V0.0723956ZM50.9406 10.8713C51.7212 10.8713 52.3677 10.6518 52.819 10.2741L52.0872 9.11625C51.8554 9.2138 51.5992 9.25028 51.3431 9.25028C50.3428 9.25028 49.7694 8.65309 49.5743 7.86081H47.7811C48.0252 9.55502 49.2449 10.8713 50.9406 10.8713ZM53.1971 4.74065C52.7825 4.08259 51.9406 3.60714 50.7697 3.60714C49.623 3.59505 48.5619 4.21662 48.0008 5.22819L49.5255 6.20328C49.8061 5.61819 50.3551 5.22819 51.1967 5.22819C52.3921 5.22819 53.1971 6.15451 53.1971 7.25133C53.1971 7.45872 53.1727 7.66591 53.1118 7.86081H55.0269V3.72908H53.1971V4.74065ZM51.4285 12.5289C50.2452 12.5289 49.8061 11.9561 49.7206 11.2857H47.9764C48.0129 12.5655 48.8668 13.9671 51.465 13.9671C53.2215 13.9671 54.3681 13.0896 54.8439 11.7733L53.1971 11.2005C52.9653 12.0536 52.331 12.5289 51.4285 12.5289Z" fill="black"/>
</g>
<defs>
<clipPath id="clip0_6_1212">
<rect width="62.2783" height="14.1083" fill="white" transform="translate(0.744873)"/>
</clipPath>
</defs>
</svg>
