<svg width="71" height="15" viewBox="0 0 71 15" fill="none" xmlns="http://www.w3.org/2000/svg">
<g clip-path="url(#clip0_6_1210)">
<path d="M59.7849 2.18679V11.9216H64.5818C65.9221 11.9216 66.698 11.7099 67.2623 11.2161C67.9678 10.5813 68.3205 9.45259 68.3205 7.05417C68.3205 4.65576 67.9678 3.52709 67.2623 2.89221C66.698 2.39842 65.9221 2.18679 64.5818 2.18679H59.7849ZM66.3453 7.05417C66.3453 9.17043 66.2042 9.66422 65.781 9.94639C65.4988 10.158 65.1461 10.2286 64.4407 10.2286H61.7601V3.80925H64.4407C65.1461 3.80925 65.4988 3.80925 65.781 4.09142C66.2042 4.44413 66.3453 4.93792 66.3453 7.05417ZM70.7894 14.0734H56.7161V0H70.7894V14.0734ZM45.2183 3.80925V2.18679H53.5423V5.29063H51.7782V3.80925H48.3921V6.13713H51.0727V7.68905H48.3921V10.2991H51.8493V8.60609H53.6122V11.9216H45.2189V10.2991H46.5586V3.80925H45.2183ZM37.6704 9.38205C37.6704 10.4402 37.7403 11.2161 37.8814 11.851H39.7866C39.7155 11.3572 39.6455 10.4402 39.6455 9.24097C39.5744 7.83013 39.1512 7.61851 38.1636 7.40688C39.2923 7.19526 39.7866 6.70147 39.7866 4.93792C39.7866 3.52709 39.5744 2.96275 39.1512 2.61004C38.869 2.32788 38.3758 2.18679 37.5993 2.18679H31.6738V11.9216H33.6489V8.1123H36.4006C36.965 8.1123 37.176 8.18284 37.3882 8.32393C37.6004 8.46501 37.6704 8.67663 37.6704 9.38205ZM33.6489 6.56038V3.8798H36.8239C37.2471 3.8798 37.3882 3.95034 37.4582 4.02088C37.5993 4.16196 37.7403 4.37359 37.7403 5.22009C37.7403 6.06659 37.5993 6.34876 37.4582 6.48984C37.3882 6.56038 37.2471 6.63092 36.8239 6.63092L33.6489 6.56038ZM42.6083 14.0734H28.4999V0H42.5727V14.0734H42.6083ZM24.8318 10.2991V11.9216H18.1297V10.2991H20.5282V3.80925H18.1297V2.18679H24.8312V3.80925H22.4328V10.2991H24.8318ZM13.5095 2.18679H11.6755L10.3352 9.87584L8.78325 2.75113C8.7127 2.25734 8.50108 2.18679 8.07783 2.18679H7.09024C6.66699 2.18679 6.45537 2.32788 6.38483 2.75113L4.83291 9.87584L3.49262 2.18679H1.51745L3.42207 11.4278C3.49262 11.851 3.6337 11.9216 4.12749 11.9216H5.46778C5.89103 11.9216 6.03212 11.851 6.1732 11.4278L7.65458 4.7263L9.13595 11.4278C9.2065 11.851 9.34758 11.9216 9.84137 11.9216H11.1111C11.5344 11.9216 11.746 11.851 11.8165 11.4278L13.5095 2.18679ZM14.4971 14.0734H0.388779V0H14.4621V14.0734H14.4971Z" fill="black"/>
</g>
<defs>
<clipPath id="clip0_6_1210">
<rect width="70.5417" height="14.1083" fill="white" transform="translate(0.318237)"/>
</clipPath>
</defs>
</svg>
