<svg width="51" height="42" viewBox="0 0 51 42" fill="none" xmlns="http://www.w3.org/2000/svg">
<g clip-path="url(#clip0_167_357)">
<path d="M24.7339 2.01077C24.477 1.88868 24.2749 1.77625 24.1645 1.48686C24.09 1.2928 24.099 1.0767 24.1893 0.889427C24.3056 0.649807 24.4851 0.548241 24.7215 0.463075C25.7283 0.347503 25.9685 1.4261 25.1827 1.99228L25.2502 5.26016C25.2569 5.59372 25.2576 6.69984 25.317 6.96271C25.4754 7.03353 27.6985 7.00999 27.8151 6.9278C27.8851 6.694 27.8284 4.30735 27.797 3.94285C27.4323 3.76366 27.3399 3.62747 27.2866 3.22686C27.1906 2.50668 28.0648 2.16456 28.5304 2.66304C28.6845 2.82593 28.7624 3.04617 28.7449 3.26941C28.716 3.59618 28.5176 3.77246 28.2819 3.95994C28.3334 4.47421 28.2808 6.66337 28.3912 6.9679C28.5733 6.99047 28.9975 6.97278 29.2056 6.96973L30.6753 6.95225C30.5857 4.93912 30.6205 2.86034 30.5315 0.844235C30.6917 0.729827 30.8713 0.556892 31.0198 0.421875C31.0722 1.03337 31.0733 1.7049 31.0863 2.32355L31.1551 5.29978C31.1658 5.66214 31.1655 6.64846 31.2265 6.95879C31.559 6.94371 33.4422 6.97121 33.5795 6.87773C33.6652 6.65635 33.6182 4.90796 33.6108 4.54717C32.2656 4.21675 32.7295 2.48729 33.883 2.63075C34.1302 2.66185 34.3544 2.79103 34.5048 2.98905C34.6349 3.16227 34.6387 3.23295 34.6592 3.43407C34.7152 3.98155 34.4379 4.2184 34.0298 4.49997C34.0283 4.98945 34.0318 5.47893 34.0403 5.96837C34.0444 6.26728 34.0621 6.62118 34.0331 6.91299C35.1361 6.94698 36.3268 6.882 37.4392 6.89817C37.9542 6.91281 38.5043 6.84566 39.0107 6.93547C39.2775 6.9828 39.7528 7.42012 39.8001 7.68961C39.8876 8.18789 39.8535 8.75974 39.86 9.2697L39.9001 11.3202C39.9017 11.4475 39.8916 11.7769 39.9766 11.8597C40.1473 11.8952 40.6192 11.8622 40.8119 11.8549C41.0394 11.8462 41.6171 11.8792 41.7969 11.8323C42.0567 11.7644 42.5663 11.3617 42.8379 11.2111C43.0513 11.0928 43.1943 11.0179 43.4192 10.9129C43.4283 10.8065 43.4594 10.662 43.4616 10.5532C43.4686 10.1694 43.2543 10.3476 43.0981 10.1431C42.9568 9.95738 42.8803 9.70384 42.91 9.47858C42.9367 9.26473 43.0487 9.07072 43.2215 8.94059C43.3951 8.81134 43.6134 8.75512 43.8285 8.78401C44.3967 8.86302 44.6071 9.56643 44.2804 9.99743C44.168 10.1454 44.0997 10.1852 43.944 10.2829C43.8845 10.5537 43.8618 10.8663 43.8215 11.1472C43.7091 11.272 43.1034 11.6313 42.9367 11.718C42.7447 11.7849 42.1052 12.3 41.9753 12.3243C41.3429 12.4427 40.588 12.3001 39.9452 12.3748C39.8963 12.8237 39.9262 14.8321 40.003 15.261C40.3048 15.2724 40.6154 15.2509 40.9183 15.2495C42.4958 15.2425 44.0779 15.1382 45.6551 15.1332C45.9158 14.7119 46.2005 14.2886 46.7866 14.3738C47.6137 14.473 47.7786 15.7168 47.0844 16.0892C46.5228 16.3903 46.0054 16.0468 45.7303 15.5684L45.7202 15.5503C45.6748 15.5433 45.6835 15.5466 45.6463 15.5506C45.2242 15.5954 44.7335 15.601 44.3101 15.6119C43.4572 15.6382 42.6039 15.6594 41.7505 15.6755C41.2404 15.6862 40.4767 15.6825 39.9965 15.7522C39.9734 16.3714 40.0146 17.2388 40.0186 17.8866C40.5634 17.8959 41.1083 17.8925 41.653 17.8763C42.0576 17.8618 42.6367 17.8113 43.029 17.8623C43.4213 18.4364 43.7909 19.8485 44.0245 20.5578C45.1083 20.5703 46.2044 20.5263 47.2891 20.5291C47.6789 20.5302 48.1718 20.5396 48.5471 20.4913C48.9534 19.6046 50.1934 19.7744 50.1002 20.7509C50.0814 20.9665 49.9738 21.1645 49.8024 21.2976C49.3173 21.6709 48.8301 21.2732 48.5418 20.8831C48.3813 20.9108 47.6679 20.9778 47.465 20.9724C46.7302 20.953 44.3355 21.0986 43.7516 20.985C43.5976 20.9551 42.9 18.7043 42.8042 18.3677C42.5155 18.3341 42.1315 18.3527 41.8345 18.359L40.0762 18.4056C40.0078 19.2976 40.2974 18.8711 40.5282 19.5857C40.6209 19.8727 40.4456 20.4334 40.5454 20.6651C40.6851 20.9891 40.9064 21.0839 40.9381 21.52C40.955 21.7508 40.9706 21.8244 40.9205 22.0677C40.8691 22.3182 40.6113 22.7288 40.6678 22.96C40.7902 23.0052 43.7481 22.8838 44.1452 22.9036C44.5852 22.9256 45.1831 22.94 45.6734 23.074C45.8908 23.1335 46.3111 23.244 46.4948 23.3762C46.9182 23.6814 47.3386 24.4362 47.6159 24.8875C47.919 24.9523 48.8734 24.88 49.2058 24.8542C49.3099 24.7023 49.3597 24.6156 49.5146 24.5046C50.1151 24.0729 50.8346 24.6942 50.6588 25.3588C50.5962 25.5955 50.4366 25.7283 50.2306 25.8424C50.053 25.9449 49.8933 25.9323 49.7022 25.8695C49.407 25.7725 49.2679 25.5677 49.1327 25.3103C49.0833 25.3141 49.0334 25.3173 48.9836 25.3199C48.6822 25.3341 47.451 25.4416 47.2782 25.2173C46.756 24.5394 46.4454 23.5232 45.4355 23.4561C44.1876 23.3733 42.8733 23.4846 41.6176 23.4791C41.3407 23.4779 41.0265 23.4759 40.7538 23.4926C40.6607 23.8269 40.696 24.2001 40.5611 24.6478C40.435 25.0661 40.1699 25.3634 40.1124 25.5944C40.3125 25.6745 44.4606 25.5126 45.0038 25.5174C45.7723 26.2142 44.1352 26.0807 43.8045 26.0881L41.5646 26.136C41.107 26.1458 40.5188 26.146 40.0718 26.2017C40.1495 26.9009 40.0313 27.882 40.1026 28.568C40.6281 28.5677 41.1884 28.5558 41.7138 28.5419C42.0558 28.5329 42.8322 28.567 43.1156 28.4848C43.3409 28.1328 43.7056 27.8853 44.1312 28.0925C44.3241 28.1857 44.4689 28.3556 44.5301 28.5605C44.7038 29.1333 44.3267 29.4546 43.8141 29.5899C43.4174 29.4877 43.3277 29.3798 43.0981 29.0587C42.7167 29.0427 42.0895 29.0812 41.6832 29.0915C41.1898 29.104 40.5546 29.1006 40.0798 29.1416C40.0758 30.0809 40.1493 31.1788 40.1808 32.127C40.9757 32.1616 42.1993 32.0964 43.0146 32.0655C43.1747 31.8572 43.3986 31.6056 43.6658 31.5602C44.681 31.3871 44.9176 32.9593 43.8509 33.1117C43.4445 33.1698 43.0789 32.6135 43.0036 32.6127C42.0825 32.6026 41.1222 32.6186 40.2007 32.6631C40.1832 33.1149 40.2838 33.4986 40.0961 33.9441C39.7324 34.807 39.1048 34.7993 38.2867 34.8057C36.9888 34.8158 35.6855 34.8796 34.3869 34.8939C34.3766 35.5204 34.376 36.138 34.4101 36.7631C34.4421 37.3484 34.8658 37.1797 35.0262 37.6184C35.2527 38.2379 35.1499 38.9944 34.3469 39.0762C33.1435 39.1987 32.9981 37.476 33.947 37.1681L33.9798 37.1576C33.9844 36.4309 33.945 35.6798 33.9477 34.9317C33.4793 35.0381 33.1469 35.2143 32.7025 35.3736C32.3694 35.493 31.9757 35.5537 31.6244 35.6038C31.6129 36.1237 31.714 37.0014 31.6588 37.4665C31.1539 37.7515 30.3408 38.3424 29.8454 38.6904C29.8421 38.8689 29.8402 40.0481 29.8777 40.1066C29.9319 40.1907 30.1791 40.3036 30.2725 40.4171C30.403 40.574 30.4618 40.7781 30.4345 40.9801C30.3017 42.0076 28.788 41.8747 28.8926 40.7462C28.9209 40.4413 29.1584 40.2492 29.4034 40.0955C29.3637 39.6244 29.3447 39.0765 29.3763 38.6032C29.3872 38.4388 29.5881 38.3249 29.7179 38.2344C30.2027 37.8963 30.6939 37.5659 31.1861 37.2379C31.1365 36.7721 31.1763 36.1864 31.086 35.7246C31.0799 35.6935 31.012 35.6447 30.9783 35.6453C30.4468 35.6548 29.9279 35.6079 29.4172 35.4522C29.4295 35.6964 29.492 36.695 29.4228 36.8698C29.2143 37.0173 28.5002 36.9737 28.2264 37.039C28.2188 37.0408 27.7709 37.1076 27.7839 37.108C27.31 36.419 28.588 36.5243 28.9869 36.4328C28.9753 36.0592 28.9809 35.6344 28.9309 35.269C28.7125 35.131 28.5023 34.9795 28.2911 34.8308C27.9215 34.8638 26.7391 34.8836 26.3762 34.8632L26.3776 35.6192C26.402 35.6944 26.3924 36.6152 26.3939 36.7654L26.4317 40.1141C27.8054 40.9455 26.3669 42.3387 25.6191 41.4597C25.4831 41.2989 25.42 41.0892 25.4448 40.8804C25.4861 40.5112 25.7267 40.3218 25.9962 40.1143C25.945 39.6005 25.9432 39.058 25.9327 38.5407L25.889 36.3628C25.8802 35.9323 25.8847 35.3497 25.8316 34.936C25.531 34.802 24.7491 34.932 24.3865 34.9096C24.2083 34.8987 23.487 34.8687 23.378 34.971C23.3532 35.3005 23.3769 35.774 23.3831 36.1126C23.3962 36.7712 23.4035 37.4299 23.4049 38.0886C23.649 38.1885 24.0112 38.4704 23.9799 38.7465C23.797 40.5268 21.3778 39.3001 22.901 38.0624C22.9012 38.0622 22.8885 35.2774 22.8666 35.0066C22.7099 34.8159 22.0584 35.0021 21.797 34.9608C21.6277 34.9341 20.6091 34.9454 20.5122 35.0026C20.4613 35.2218 20.509 36.3546 20.5204 36.65C20.5787 38.162 20.5617 39.7363 20.6456 41.2403C20.5724 41.3199 20.2314 41.6809 20.145 41.6697C20.0631 41.1504 20.0811 40.0516 20.0654 39.4993C20.0228 37.9957 20.011 36.4831 19.9563 34.979C19.173 35.0154 18.3149 35.0074 17.5172 35.0342C17.5037 35.7719 17.587 36.6197 17.5525 37.3397C17.659 37.3949 17.7907 37.4619 17.8884 37.5297C18.104 37.682 18.2502 37.9133 18.2951 38.1728C18.4188 38.9237 17.9099 39.2702 17.2473 39.3833C16.2941 39.0065 16.2065 37.7942 17.1669 37.4051L17.1217 35.8844C17.1149 35.6528 17.1136 35.4141 17.1018 35.1835C17.0962 35.0735 17.079 35.0514 16.9545 35.0439C16.6629 35.0264 16.3461 35.0466 16.0515 35.0522C15.5242 35.0587 14.997 35.0691 14.4699 35.0834C13.8316 35.1018 13.1873 35.1181 12.5493 35.1003C12.25 35.0919 12.0177 35.0376 11.7759 34.8612C11.1952 34.4374 11.2645 33.6201 11.2517 32.9782L11.2114 30.607C11.207 30.2587 11.2345 29.7418 11.1853 29.4073C10.7082 29.3896 9.30206 29.3982 8.8551 29.4674C8.46762 29.7659 8.07655 30.0755 7.70875 30.3976C7.65202 30.4473 7.49649 30.5761 7.47987 30.6504C7.46088 30.7351 7.96313 31.1667 7.92088 31.5788C7.90173 31.7658 7.79032 31.9176 7.64931 32.0352C7.48603 32.1713 7.28182 32.2535 7.06636 32.228C6.86258 32.2038 6.67875 32.0843 6.56088 31.9189C6.42983 31.735 6.38841 31.5045 6.43438 31.2848C6.50393 30.9526 6.66047 30.9191 6.9093 30.737C7.0064 30.666 6.98641 30.5579 7.01143 30.4498C7.02245 30.4021 7.03763 30.3563 7.07117 30.3195C7.23279 30.1421 7.48678 29.986 7.67678 29.8318C8.04143 29.5357 8.39615 29.1655 8.79907 28.9268L11.1761 28.8614C11.1631 27.9601 11.1442 27.0588 11.1195 26.1577C10.0037 26.1631 8.88803 26.178 7.77252 26.2027C7.16241 26.2143 6.28239 26.2183 5.68899 26.2828C5.61052 26.5195 5.5063 26.764 5.29158 26.9046C4.57431 27.3744 3.64937 26.8354 3.81409 25.9625C3.94251 25.2821 4.78142 24.8886 5.33121 25.3689C5.49164 25.509 5.55502 25.6113 5.67097 25.7927C7.47781 25.7616 9.28426 25.7127 11.0901 25.6458C11.0344 24.664 10.7362 24.5657 11.063 23.5756C10.0432 23.5481 9.01352 23.6108 7.99393 23.6103C7.65316 23.6101 6.79741 23.6887 6.52943 23.5674C6.45809 23.4243 6.34245 22.8569 6.30168 22.6698C6.18031 22.1124 6.07695 21.6278 5.91201 21.0796C5.35855 21.0612 4.70518 21.0928 4.14148 21.1014C3.42399 21.1123 2.61238 21.0896 1.90967 21.1593C1.55131 21.8547 0.702615 21.7962 0.456121 21.1189C0.38184 20.9143 0.394332 20.6884 0.490727 20.4932C0.634947 20.2071 0.86561 20.1178 1.14769 20.0286C1.57569 20.1483 1.83265 20.2481 1.95433 20.7104C2.91636 20.7437 3.99535 20.6608 4.96639 20.6559C5.29009 20.6543 5.95746 20.6049 6.24517 20.6475C6.46916 20.7877 6.77121 22.7161 6.96533 23.1422C7.02687 23.1865 10.5565 23.1164 10.9734 23.1129C10.6267 21.8483 10.1871 21.688 11.0682 20.4634C11.0605 20.0388 11.0569 19.6141 11.0574 19.1894C11.0569 18.879 11.0701 18.5419 11.023 18.2374C10.8653 18.2362 10.6981 18.2436 10.54 18.2524C9.56121 18.3074 8.57587 18.2887 7.59792 18.3298L7.58698 18.3483C7.43818 18.5958 7.26314 18.7812 6.96611 18.8486C6.75564 18.8968 6.53459 18.8582 6.35307 18.7416C6.17458 18.6251 6.04179 18.4391 6.00076 18.2294C5.96017 18.0299 6.00697 17.8225 6.12944 17.6596C6.26061 17.485 6.5048 17.3237 6.72026 17.3154C7.31362 17.2925 7.29184 17.5724 7.59512 17.8304C7.9267 17.8565 8.65224 17.8201 9.00792 17.8092C9.62201 17.7902 10.4143 17.8076 11.0128 17.7375C11.0687 17.6528 11.0367 15.7732 10.9911 15.6114C10.7446 15.5699 9.5847 15.6077 9.25102 15.6193C7.92079 15.6654 6.53958 15.6475 5.21605 15.716C5.03904 16.07 4.79598 16.3877 4.3732 16.4454C4.12604 16.4802 3.87541 16.4125 3.67964 16.2582C3.28214 15.9485 3.20499 15.2977 3.53662 14.9126C3.83119 14.5707 4.42989 14.4471 4.79069 14.7574C4.94788 14.8925 5.03282 15.07 5.18399 15.2085C5.23555 15.2552 5.33226 15.253 5.39682 15.2571C6.19728 15.247 6.99691 15.2027 7.79732 15.1928C8.49613 15.1897 9.1949 15.1759 9.89327 15.1513C10.2384 15.1412 10.6372 15.1451 10.972 15.1035C11.0361 14.9424 11.0369 12.7094 10.9667 12.5959C10.7934 12.5344 9.10554 12.5752 8.80357 12.5792C8.66203 13.1134 8.35945 13.4379 7.76758 13.3868C7.53458 13.369 7.31948 13.2555 7.17361 13.0736C6.65343 12.4206 7.17011 11.3453 8.04772 11.524C8.44487 11.6048 8.59363 11.8366 8.80453 12.1404C9.43529 12.1167 10.065 12.1111 10.6958 12.095C10.7472 12.0937 10.9205 12.0989 10.9573 12.0701C11.089 11.967 10.8894 8.55592 11.0091 8.06282C11.0544 7.87596 11.1692 7.70173 11.302 7.56502C11.4463 7.41663 11.6309 7.29426 11.8338 7.2451C12.3385 7.12282 13.0168 7.17721 13.539 7.16779L16.6193 7.11925C16.64 6.86758 16.6249 6.51925 16.6231 6.25786C16.6171 5.74869 16.6176 5.23951 16.6246 4.73033C15.7263 4.41168 15.7126 3.344 16.5038 2.90357C17.2407 2.49333 17.9447 3.40498 17.7099 4.0905C17.5886 4.44445 17.3451 4.58421 17.0286 4.74493C17.0549 5.04745 17.0542 7.0052 17.0954 7.07584C17.351 7.11149 19.2218 7.09903 19.4163 7.02499C19.546 6.86222 19.4023 4.93885 19.4591 4.61911C19.4617 4.60399 19.4832 4.50633 19.4908 4.50158C20.0208 4.16877 20.7251 3.74378 21.2343 3.3982C21.2321 3.24539 21.2356 2.19299 21.1613 2.157C20.2573 1.71928 20.6843 0.336647 21.6642 0.650535C21.8706 0.717232 22.0414 0.864059 22.1378 1.05782C22.3942 1.57856 22.0529 1.94781 21.6057 2.15446C21.6601 2.4008 21.7365 3.38421 21.6597 3.55347C21.5482 3.79913 20.1737 4.5914 19.9274 4.70266C19.9145 5.47636 19.9614 6.242 19.9413 7.02695C20.143 7.07114 21.7402 7.13655 21.8082 6.93478C21.8959 6.67426 21.7442 5.08641 21.8731 4.90229C22.1269 4.83688 23.3767 4.81836 23.6222 4.87619C23.6941 4.99381 23.6772 5.19253 23.6784 5.33673C23.5003 5.3271 23.2965 5.35978 23.1151 5.36889C22.8528 5.3821 22.5903 5.39129 22.3277 5.39452C22.329 5.6254 22.2312 6.98925 22.4417 7.00389C22.9004 7.03579 24.3731 7.11424 24.734 6.97683C24.8427 6.74848 24.6776 2.68804 24.7305 2.04975L24.7339 2.01077ZM33.5408 3.00701C33.2334 3.11097 33.0667 3.44165 33.1665 3.74954C33.2663 4.05738 33.5956 4.22838 33.906 4.13342C34.1108 4.0708 34.2659 3.90302 34.3119 3.69445C34.3578 3.48584 34.2874 3.26879 34.1277 3.1264C33.968 2.98402 33.7438 2.93839 33.5408 3.00701ZM16.7152 3.23556C16.0118 3.55073 16.2376 4.41917 16.946 4.34186C17.1094 4.28464 17.2285 4.20877 17.3112 4.04984C17.3811 3.91536 17.3933 3.75838 17.3451 3.61475C17.2506 3.33151 17.0013 3.20695 16.7152 3.23556ZM38.6556 7.4121C38.0697 7.44579 37.4879 7.43515 36.9023 7.45668C36.8365 7.45912 36.7326 7.42217 36.6626 7.42417C36.4323 7.45808 36.2351 7.46418 36.0038 7.46849L33.8697 7.49355L18.8138 7.68935L15.0677 7.725C13.9918 7.73114 12.9104 7.72561 11.8354 7.77655C11.6711 7.90324 11.6384 7.93052 11.5099 8.08823C11.4678 8.66478 11.5075 9.54804 11.5071 10.1437C11.5067 10.6042 11.4999 11.5618 11.5479 11.9948C11.6468 12.0719 12.1195 12.0503 12.2749 12.0536C12.2867 11.1169 12.1705 10.0491 12.295 9.14141C12.4284 8.16876 14.0071 8.40662 14.6784 8.39494C15.7337 8.37097 16.7892 8.3555 17.8448 8.3484C18.4059 8.34378 19.0796 8.36173 19.6299 8.33637C20.0211 8.33846 20.4208 8.33022 20.8118 8.33188C21.0093 8.33275 21.5916 8.35127 21.7618 8.31933C22.3788 8.20358 22.9491 8.00386 23.5946 8.00142C23.834 8.0005 24.2776 8.02086 24.5144 8.06195C24.6793 8.09054 24.9395 8.26464 25.1561 8.25736C25.7004 8.23914 26.298 8.29179 26.8321 8.24063C26.9645 8.22794 27.2656 8.09093 27.408 8.0487C27.645 7.97697 27.9158 7.95618 28.1625 7.95361C28.6078 7.94886 29.0575 7.97205 29.4895 8.08745C29.5725 8.10963 29.6617 8.13468 29.744 8.15678C29.8492 8.18497 30.0488 8.27466 30.1448 8.27235C30.6735 8.25976 31.2021 8.23213 31.7307 8.21853C32.9763 8.20332 34.2005 8.16441 35.4488 8.16266C36.1415 8.1617 36.9366 8.0979 37.6268 8.14645C37.7962 8.15835 38.031 8.31183 38.1459 8.43146C38.2427 8.53234 38.4296 8.75364 38.4512 8.89662C38.4999 9.21959 38.4906 9.59463 38.4916 9.92195L38.5021 11.4529C38.5233 12.9984 38.6239 14.5439 38.5668 16.0891C38.564 16.1622 39.3063 17.7256 39.3885 17.7892C39.512 17.6482 39.3619 13.0153 39.3673 12.4778C39.3693 12.2822 38.9527 12.3243 39.3638 11.8026C39.3956 11.0721 39.3272 10.0945 39.3126 9.34553C39.3036 8.88342 39.3204 8.1678 39.2951 7.74191C39.1404 7.53464 39.0678 7.44635 38.789 7.42312L38.6556 7.4121ZM28.5937 8.39285C27.9002 8.41041 27.3626 8.41411 26.7658 8.82707C26.0805 9.30121 25.9965 9.84394 25.9857 10.6379C26.6066 10.3078 27.045 10.0782 27.7751 10.2805C27.9648 10.2037 28.0146 10.1859 28.1861 10.085C28.4454 9.93228 28.5727 9.51152 28.7908 9.54116C29.0726 9.76306 28.7723 10.2074 28.6301 10.4302C29.2015 11.4051 29.7942 10.8508 30.1382 11.0796C30.1976 11.176 30.1894 11.1343 30.1857 11.2409C30.0598 11.4133 29.7017 11.3881 29.646 11.4208C29.502 11.5053 29.3729 12.4186 29.3823 12.5607C29.5311 12.7379 29.9965 13.0006 30.1896 13.2074C30.5332 13.5753 30.7801 13.9625 31.1279 14.3265C31.5156 13.9574 32.1304 14.0801 32.1017 14.4419C32.0752 14.7768 30.882 14.1524 31.3154 15.5352C31.7404 16.4453 32.8612 16.5519 33.5661 17.0311L33.6134 17.0327C33.6336 15.7698 33.3388 13.9262 32.4986 12.8862C32.3987 12.7627 32.0378 12.5122 31.891 12.4168C31.6996 12.401 31.1085 12.4014 31.1353 12.1271C31.3199 11.8914 31.8835 11.9526 32.1478 12.0064C32.1807 11.9044 32.2227 11.783 32.2336 11.6768C32.2543 11.4756 32.1471 11.2175 32.27 11.0529C32.4243 11.0071 32.4986 11.0928 32.621 11.18C32.8678 11.0979 33.256 11.0188 33.2622 10.7089C33.169 10.5359 32.8817 10.366 32.7308 10.2385C31.7651 9.42205 30.6334 8.93859 29.4476 8.53631C29.2606 8.4729 29.0038 8.45207 28.8067 8.41337C28.7616 8.4047 28.6192 8.40108 28.5937 8.39285ZM23.5825 8.44218C22.3958 8.53374 20.6084 9.05242 19.6551 9.86913C19.5337 10.0029 19.4377 10.1992 19.3128 10.327C18.8753 10.7656 18.3169 11.1253 17.7888 11.4497C17.2073 11.8069 16.7346 11.8292 16.195 12.3065C15.5742 12.8557 15.6353 13.5254 15.1909 14.0699C14.7807 14.5724 13.8603 14.5809 14.634 15.4854C14.8768 15.8596 14.4847 16.4478 14.2539 16.7364C13.7923 17.3134 13.412 18.0014 13.4626 18.7594C13.4815 19.0404 13.9272 19.5928 14.1987 19.5441C14.2756 19.2868 14.2145 18.7257 14.2836 18.4452C14.4697 17.6897 15.0068 17.1535 15.3992 16.5093C15.5517 16.2589 15.621 15.9269 15.7585 15.677C15.8336 15.5405 16.0975 15.3589 16.2295 15.255C16.7067 14.8795 17.3651 14.5043 17.6952 13.988C17.7524 13.8985 17.7899 13.6901 17.8056 13.5849C17.7065 13.5692 16.8756 13.5014 17.1824 13.1036C17.2362 13.034 17.6676 13.1395 17.7623 13.0933C18.3752 12.9119 19.1557 12.4184 19.6765 12.0394C19.8337 11.925 20.1789 11.49 20.3364 11.5062C20.351 11.6193 20.3347 11.6709 20.3977 11.7416C20.5087 11.759 21.269 11.5089 21.3847 11.4407C21.9264 11.1214 22.5746 10.7038 22.6509 10.0189C22.6653 9.88887 22.6667 9.77178 22.7463 9.67542C22.8327 9.64823 22.7922 9.64636 22.872 9.67246C23.0819 9.90047 22.9066 10.6044 22.9986 10.6719C23.0566 10.7144 24.0106 10.7825 23.9646 11.0813C23.9509 11.1702 23.9449 11.1888 23.8904 11.229C23.6691 11.2535 23.4212 11.1984 23.1987 11.1755C22.1689 11.0669 21.3188 11.8356 20.4285 12.238C19.7446 12.5472 19.0009 12.8104 18.4562 13.3456C18.3377 13.462 18.3266 13.8426 18.3006 14.0134C18.5198 14.0434 19.1543 13.803 19.3401 14.0337C19.3525 14.095 19.3644 14.1139 19.3392 14.1696C19.1202 14.2646 18.6762 14.3129 18.3932 14.4194C18.0187 14.5605 17.7767 14.7088 17.438 14.8749C16.5723 15.2995 16.1682 15.9862 15.7161 16.8033C15.5472 17.1086 15.1825 17.4421 15.0489 17.7841C14.8884 18.3509 14.8312 19.6107 15.07 20.1374C15.306 20.6582 15.917 20.9462 16.3986 21.142C18.4849 20.598 17.5684 19.4375 18.0307 19.0703C18.4537 18.9643 18.3945 19.903 18.3893 20.1497C18.6233 20.3233 19.021 20.5238 19.169 20.7348C19.1699 20.8298 19.1791 20.7928 19.1152 20.8777C18.8502 21.0182 18.3543 20.7041 18.0893 20.584L18.0702 20.6156C17.88 20.926 17.3821 21.4176 17.068 21.5816C16.3662 21.9479 16.2376 22.192 16.0802 22.938C15.9298 23.6515 15.9492 24.1133 16.6368 24.5311C16.9632 24.7138 17.2973 24.8181 17.6009 25.0454C17.9572 25.3122 18.1715 25.6635 18.4497 26.0019C18.6957 26.3011 19.6195 27.0255 19.5576 27.4347C19.2926 27.7177 18.7129 26.8668 18.4907 26.7231C18.3426 26.6273 18.1448 26.3786 18.0025 26.2581C17.6682 25.7602 17.5367 25.3591 16.8974 25.192C16.7047 25.1416 16.5387 25.0453 16.316 25.0275L16.1345 25.01C16.0085 25.1015 15.5101 25.5576 15.3776 25.5172C14.8468 25.3552 15.5761 24.7443 15.7551 24.5613C15.4505 23.9865 15.3319 23.5273 15.5275 22.8931C15.3278 22.8646 14.6563 22.8109 14.507 22.9389C14.2767 23.1364 14.3467 23.8606 14.0647 23.9291C13.7289 23.7732 13.866 23.0746 13.9018 22.7789C13.0392 22.4869 12.7041 22.3019 12.253 21.4307C12.1753 21.2806 12.1065 21.0505 12.1644 20.8849C12.2151 20.8339 12.1839 20.8504 12.2666 20.8464C12.4173 20.9057 12.4578 20.9764 12.5355 21.1073C12.8172 21.5758 13.1722 21.9547 13.6646 22.2042C14.0591 22.4041 14.2148 22.3181 14.6122 22.3153C15.3427 22.3103 15.6991 22.228 16.1424 21.6061C15.8543 21.4271 15.4656 21.1925 15.2042 20.9784C14.8129 20.6579 14.6793 20.3054 14.1684 20.1243C13.8802 20.2311 13.3453 20.4475 13.0883 20.2047C13.0369 20.0023 13.3866 19.9152 13.5454 19.8314C13.491 19.6908 13.3395 19.7057 13.2212 19.5388C13.0848 19.3465 13.069 19.2101 12.9752 19.0076C12.7861 19.0804 12.688 19.117 12.4876 19.1507C12.3069 19.1689 12.1576 19.2029 12.1026 18.9832C12.1479 18.6334 12.5951 18.8428 12.7952 18.6074C13.0156 18.3534 13.0587 17.98 13.1718 17.6692C13.3991 17.0427 13.9651 16.5771 14.0544 15.8967C14.09 15.6261 14.0413 15.3946 13.9863 15.1468C13.8182 14.3897 14.3185 14.2416 14.8258 13.8888C15.0906 13.7046 15.2094 13.0425 15.3411 12.7528C15.4173 12.5726 15.4894 12.4543 15.5884 12.2895C14.3116 13.3033 13.5548 14.0945 13.0523 15.6862C12.8228 16.413 12.74 16.932 12.2896 17.5637C11.975 18.0049 11.6833 18.7516 11.601 19.2795C11.5733 19.5176 11.5794 19.8355 11.5799 20.0777C11.6622 20.1335 11.7423 20.1806 11.7592 20.2857C11.8345 20.756 10.856 21.2422 11.2001 22.3711C11.3374 22.8214 11.7006 23.0505 11.8555 23.4374C11.8596 23.4476 11.864 23.4577 11.8682 23.4679C11.7453 23.6483 11.5832 23.8722 11.4738 24.0561C11.5196 25.1106 11.9621 25.7795 12.6934 26.4709C13.3306 27.0735 14.1834 27.8775 15.1015 27.987C17.1226 28.228 16.9854 29.7638 18.9915 30.2311C18.8895 29.1586 18.2321 28.42 17.4859 27.6897C17.2947 27.5025 16.8188 27.4199 16.746 27.2033C16.7924 27.0284 17.0076 27.0802 17.1527 27.0765L17.1874 27.0987C17.5949 27.3569 18.0256 27.5022 18.4069 27.8192C18.6445 28.0036 18.8672 28.2248 19.0777 28.4401C19.4392 28.8098 19.9262 28.9089 20.3626 29.1228C20.6683 29.2726 20.6389 29.6356 20.2048 29.5672C19.9412 29.5256 19.4329 29.1893 19.2602 29.2342C19.3503 29.8932 19.3731 30.1879 19.9627 30.5508C20.2124 30.5629 20.5341 30.5741 20.7802 30.538C21.2518 30.4688 21.5735 30.0681 22.0266 30.3819C21.5311 30.8586 21.5057 30.7054 21.0429 31.0143C21.6096 31.542 22.2038 31.7691 23.0025 31.7762C23.7871 31.7831 24.531 30.9423 24.5535 30.1838C24.5609 29.934 24.4494 29.5827 24.4607 29.3196C24.4489 28.9914 24.5066 28.6005 24.4884 28.2915C23.9516 28.496 22.6768 28.2773 22.383 27.6882C22.3588 27.6397 22.3675 27.6264 22.3884 27.5853C22.4863 27.5447 22.6042 27.5895 22.6932 27.6321C24.3072 28.4035 24.8179 27.2018 24.8012 25.7873C24.7992 25.6261 24.8432 25.3628 24.7455 25.2242C24.5764 25.2756 24.3794 25.7549 24.1037 25.709C23.8557 25.4495 24.5354 24.8356 24.6219 24.4915C24.813 23.7317 24.6724 23.0367 24.7845 22.265C24.8388 21.8909 24.7588 21.3772 24.7926 20.9927C24.8596 19.3234 24.6623 17.3492 22.6392 17.0223C22.4541 16.9924 22.1222 17.0104 21.9307 17.042C21.1777 17.3434 20.5535 17.8979 19.6774 17.8223C19.4921 17.8063 19.3278 17.7861 19.2822 17.5803C19.3598 17.3847 19.9718 17.4125 20.1686 17.3642C20.8342 17.2006 21.4511 16.8387 21.7397 16.1934C21.9143 15.8284 21.8032 15.1819 22.0513 15.0491C22.1148 15.0573 22.1448 15.0717 22.1811 15.1326C22.4622 15.6043 22.4474 16.0531 22.2002 16.5268C23.1753 16.6218 23.8509 17.0399 24.6149 17.6189C24.763 17.1816 24.9696 15.4195 24.9346 14.9608C24.9223 14.7792 24.8743 14.6017 24.7934 14.4386C24.6721 14.1913 24.549 14.0404 24.3672 13.8425C24.2193 13.6813 23.7891 13.4568 23.742 13.2927C23.9284 12.9568 24.7196 13.5011 24.9675 13.2576C25.0191 12.9579 25.0324 12.4431 25.0468 12.1271C25.0518 12.0192 24.7994 11.6866 24.8799 11.5067C25.0524 11.3902 25.3324 11.4947 25.3584 11.2668C25.4311 10.6295 25.7577 9.70358 25.3443 9.13766C24.9131 8.54755 24.2763 8.39189 23.5825 8.44218ZM35.6046 8.52668C35.5168 8.5299 35.2187 8.53248 35.1624 8.57976C35.2384 8.60451 35.2392 8.60094 35.3155 8.59671C35.4456 8.56128 35.5173 8.59841 35.707 8.56368L35.7159 8.53431C35.6653 8.5279 35.6552 8.52433 35.6046 8.52668ZM34.5914 8.54925L34.6099 8.59318C34.7739 8.62647 34.9431 8.62473 35.1064 8.58804C35.0153 8.52528 34.7769 8.56926 34.5914 8.54925ZM19.0856 9.82176C18.2531 10.0594 16.9262 10.8527 16.3821 11.5217L16.3847 11.5523L16.4072 11.5413C16.6474 11.3877 17.1428 11.2751 17.4278 11.1656C18.0084 10.9423 18.8916 10.454 19.1225 9.84699L19.0856 9.82176ZM27.4091 10.545C27.1128 10.5576 26.9048 10.5375 26.6401 10.7081C25.6206 11.3652 25.485 12.7226 25.5031 13.8274C25.5052 13.9524 25.5201 14.1159 25.5516 14.2372C25.68 14.3279 25.8135 14.1844 25.8317 14.3756C25.8582 14.6542 25.616 14.9864 25.5167 15.2723C25.4433 15.4836 25.2058 16.7701 25.3553 16.9161C25.5373 16.8066 25.684 16.3717 25.9581 16.3968C26.0379 16.4379 26.0356 16.4337 26.0781 16.5114C26.0933 16.7758 25.3437 18.1932 25.2697 18.6471C25.1203 19.4181 25.0742 20.1844 25.079 20.9689C25.0861 22.1324 24.9991 23.2769 25.1176 24.4413C25.1992 25.2438 25.2067 26.2503 25.9234 26.779C25.8125 26.8978 25.5679 27.0802 25.4998 27.1795C25.0756 27.798 25.043 28.61 25.3149 29.269L25.3032 29.364C25.5729 29.6943 25.8243 29.9985 26.1554 30.273C26.2102 30.3184 26.1751 30.4728 26.1191 30.5338C25.8344 30.6089 25.4439 30.3125 25.2214 30.1596C25.1695 30.2536 25.2476 30.4827 25.2723 30.5876C25.6458 32.174 27.6141 32.4305 28.8949 31.7068C28.656 31.4079 28.0477 31.0385 27.7041 30.8503C27.4572 30.715 26.8482 30.7556 26.5705 30.6606C26.5121 30.5761 26.5227 30.6212 26.5355 30.521C26.6073 30.4204 26.6832 30.38 26.7856 30.3107C27.9247 30.3122 29.0184 30.632 29.9918 29.7688C29.4088 28.8352 27.0547 28.9659 26.6776 28.5837C26.6441 28.4867 26.6455 28.5359 26.6853 28.4313C26.7597 28.3668 26.8257 28.2945 26.9308 28.3214C27.9585 28.5836 29.5957 28.5272 30.3145 29.3852C30.2903 29.4412 30.3066 29.4171 30.2586 29.4532C30.3161 29.4703 30.4305 29.39 30.5031 29.553C30.6886 29.9697 30.1684 30.3581 29.8953 30.5148C29.5098 30.736 29.0321 30.6843 28.6943 30.8257C28.6652 31.02 29.2651 31.2096 29.3987 31.2805C29.5396 31.3553 29.6585 31.4598 29.7927 31.5449C30.6715 32.0054 31.783 31.8465 32.5106 31.1744C32.5988 31.0929 32.6748 31.0139 32.7538 30.9305C32.7706 30.8238 32.7685 30.7576 32.8396 30.6788C33.0326 30.5887 33.2981 30.6217 33.4998 30.5747C33.9807 30.4624 34.4987 30.1694 34.8351 29.8102C35.1566 29.4669 35.2882 29.0381 35.5924 28.6883C35.627 28.6494 35.6845 28.6436 35.733 28.6645C36.1041 28.8242 35.7802 29.2034 35.6818 29.5125C36.312 29.4094 37.2623 28.8415 37.7427 28.4125C38.5079 27.729 39.1801 26.7447 39.4088 25.7405C39.242 25.7129 39.0166 25.6825 38.8592 25.6351C38.1606 25.8329 38.1188 26.226 37.7243 26.7556C37.582 26.9467 36.8958 27.3276 36.6991 27.5419C36.6707 27.5728 36.5717 27.6064 36.5246 27.6055C36.285 27.4044 36.6237 27.0094 36.6638 26.7792C36.717 26.473 36.4852 26.0181 36.6739 25.7493C36.7408 25.6632 36.8598 25.6829 36.9422 25.7498C37.0446 25.9859 37.0278 26.2905 37.0842 26.563C37.5842 26.3264 37.5232 26.1938 37.8235 25.8094C38.2588 25.2521 38.627 24.7151 38.8029 24.015C39.0288 23.3176 38.8693 22.621 38.8336 21.9105C38.8133 21.5071 38.9138 21.005 38.7326 20.6369C38.5518 20.2697 38.3629 20.4143 38.1297 20.5848C37.8414 20.2896 37.6052 19.6483 37.5076 19.2498C37.3789 18.7247 37.5108 18.0477 36.967 17.7198C36.7967 17.6178 36.5782 17.506 36.4055 17.6573C36.3321 17.8085 36.2471 18.345 36.2245 18.5262C36.153 19.0987 35.5942 20.4928 36.403 20.7384C36.6306 20.8075 36.8246 20.9225 36.716 21.1793C36.552 21.2967 36.3184 21.1317 36.1558 21.0482C35.7977 21.3978 35.7714 22.4927 35.4922 22.9565C35.3144 23.2517 35.0835 23.6076 34.7976 23.8086C34.2619 24.1852 33.903 24.1551 33.7032 24.8519C33.6331 25.1477 33.7186 25.2731 33.8561 25.5322C34.2021 25.763 35.0782 26.0538 35.3688 25.5801C35.5529 25.2798 35.6292 24.9015 35.8691 24.6275C36.2092 24.1575 36.665 24.018 36.8963 23.5164C37.1441 22.9794 37.0141 22.3964 37.3197 21.852C37.4236 21.822 37.5349 21.7874 37.6392 21.7622C37.861 21.8525 38.1461 21.9949 38.0658 22.3525C38.0587 22.3841 38.015 22.3872 37.9792 22.3992C37.6525 22.3385 37.5293 22.236 37.4599 22.6939C37.4284 22.9026 37.4519 23.1333 37.4005 23.3404C37.2937 23.6865 37.2205 23.7174 37.1777 24.0904C37.3635 24.2468 37.5155 24.3472 37.6041 24.579L37.5761 24.6425C37.2586 24.7104 37.02 24.521 36.7765 24.4706C35.6082 25.0622 36.1558 25.5275 35.4188 26.2769C35.1963 26.5032 34.4237 26.0844 34.2174 26.3342C34.2457 26.5903 34.332 26.8693 34.3549 27.1126C34.3752 27.3296 34.1586 27.9312 34.2547 28.1059C34.5093 28.2542 34.7303 28.0009 34.996 28.0119C35.3014 28.2266 34.7568 28.5256 34.5615 28.5731C34.1966 28.662 33.8157 28.695 33.4471 28.7795C33.1018 28.8587 32.6358 29.1515 32.3299 28.9148C32.2053 28.6364 32.6032 27.3896 32.8777 27.2539C32.9788 27.2653 32.9347 27.2463 33.0125 27.3179C33.0603 27.4274 32.9044 28.2138 32.8951 28.4612C33.2523 28.3302 33.6336 28.2378 33.8087 27.8716C33.9229 27.6328 34.0114 26.945 33.9124 26.7099C33.7722 26.3767 33.564 26.1638 33.4211 25.8013C32.8329 26.6692 31.8811 25.9883 31.6572 26.4833C31.1636 27.5744 30.3939 27.7285 29.2745 27.4737C29.1346 27.5221 29.0355 27.5545 28.9029 27.6212C28.8343 27.8568 28.7443 28.2475 28.4331 28.2541C28.2202 28.1308 28.3255 27.7113 28.4174 27.5455C28.7696 26.9103 28.9477 26.2591 28.9656 25.5292C28.9719 25.2736 28.9866 23.9959 28.6595 23.993C28.3596 24.1947 28.162 24.4533 27.8283 24.618C27.5349 24.7628 27.1767 24.8194 26.85 24.7616C26.6788 24.7313 26.5451 24.6869 26.5611 24.4945C26.6506 24.3901 26.7949 24.38 26.9357 24.3728C27.5166 24.343 27.7876 24.31 28.2034 23.8837C28.4586 23.6221 28.5661 23.2545 28.7195 23.0656C29.2932 23.098 29.1721 24.3749 29.3897 24.5331C29.4774 24.4724 30.0456 24.0039 30.0893 23.9305C30.23 23.6937 30.3133 22.8345 30.1757 22.5558C30.0726 22.3471 29.8708 22.0259 29.9941 21.8509C30.0575 21.8245 30.0937 21.7961 30.1612 21.8324C30.7564 22.1522 30.7231 22.9335 30.7825 23.4715C30.8879 23.5118 31.4208 23.3839 31.5569 23.3767C31.8156 23.3631 32.4201 23.0315 32.5684 23.3571C32.5646 23.455 32.5672 23.4625 32.5247 23.548C32.3954 23.6559 31.9195 23.7571 31.7359 23.7919C30.9988 23.9316 30.4427 24.0247 29.9171 24.6022C29.4381 25.1284 29.2806 25.4621 29.1933 26.1671C29.1679 26.3713 29.0268 26.7706 29.1167 26.9556C29.6545 27.278 30.7956 27.145 31.128 26.5602C31.3334 26.1988 31.2956 25.4758 31.5289 25.3937C31.7242 25.4257 31.8238 25.5872 31.9563 25.7414C32.3666 25.8803 32.5965 25.7983 33.0007 25.6556C33.3592 25.144 33.2897 24.5427 33.5684 24.1922C34.1946 23.4046 35.2905 23.553 35.1604 22.1784C35.1161 21.7109 34.5224 21.3968 34.6443 21.0838C34.8152 20.9473 35.1766 21.4219 35.3953 21.5457C35.6533 20.8213 35.8559 20.5246 35.5112 19.8002C35.4252 19.6202 35.3199 19.45 35.197 19.2926C34.8998 18.9127 33.516 17.4465 33.1048 17.2088C32.5141 16.9188 31.8193 16.8303 31.3711 16.2952C30.3554 15.0829 30.8598 13.4099 28.9161 12.8898C28.3624 12.7416 28.103 12.6403 27.5018 12.7464C27.4461 12.7563 27.2783 12.6878 27.2295 12.6201C27.2121 12.5087 27.205 12.553 27.2474 12.4495C27.5054 12.2259 28.2075 12.293 28.5286 12.3563C28.7223 12.3945 28.9568 12.5119 29.1556 12.5147C29.2795 12.4027 29.1482 12.1566 29.1314 12.0164C29.0416 11.2634 28.1805 10.5175 27.4091 10.545ZM33.7147 10.9653C33.3941 11.36 33.2803 11.4421 32.776 11.5138C32.5733 12.1127 32.5015 12.2792 32.9431 12.806C34.3297 14.4601 33.2784 17.186 35.0654 18.6626C35.1928 18.7678 35.4618 19.1014 35.5779 19.1531C35.878 19.0912 35.981 18.2141 36.0036 17.969C36.0518 17.446 35.9504 16.9336 35.7002 16.4742C35.5211 16.1455 34.7601 15.3537 34.9703 15.0005C35.0615 14.9472 35.0148 14.9566 35.1131 14.962C35.3551 15.101 35.4044 15.4974 35.5671 15.7C35.6496 15.8026 35.9527 16.195 36.0591 16.2121C36.1277 16.1466 36.149 16.0288 36.1416 15.9364C36.0925 15.3238 35.9581 14.5809 35.3425 14.3005C35.1286 13.9401 34.7248 12.6558 34.8414 12.2579L34.9141 12.2265C35.1415 12.4044 35.3842 13.1604 35.5407 13.4915C35.7633 13.9626 36.0083 14.2966 36.2264 14.7575C36.3424 15.0025 36.3726 15.2406 36.4242 15.4833C36.485 15.7696 36.3953 16.722 36.5049 16.8986C36.7303 17.043 36.9678 17.0648 37.2179 17.2324C37.9499 17.8484 37.6311 18.9281 38.0903 19.7067C38.6544 19.7752 39.0147 20.2677 39.1291 20.7903C39.2183 21.1974 39.1981 21.5992 39.237 22.0122C39.2787 22.5567 39.429 23.1769 39.3651 23.706C39.3182 24.0938 39.0436 24.7376 38.7929 25.0393C39.8099 25.3314 39.8385 25.096 40.1028 24.1907C40.3029 23.5051 40.0635 23.2185 40.0474 22.6136C40.1308 22.452 40.2258 22.2408 40.348 22.1124C40.5383 21.3418 40.1518 21.2895 39.9933 20.6276C39.9518 20.3402 40.0232 20.0418 39.9158 19.7635C39.7453 19.3214 39.4296 18.9344 39.2164 18.5135C38.8561 17.8024 38.5148 17.0852 38.1411 16.3799C37.7821 15.7025 37.6901 14.8862 37.2684 14.2322C37.1076 13.9765 36.8414 13.5366 36.6584 13.3131C35.9674 12.4832 35.1381 11.7782 34.2068 11.2292C34.0846 11.1574 33.839 11.012 33.7147 10.9653ZM7.79553 11.884C7.59494 11.9046 7.42134 12.032 7.34205 12.2167C7.26275 12.4015 7.29026 12.6146 7.41387 12.7734C7.53747 12.9321 7.73775 13.0116 7.93707 12.9809C8.23458 12.9351 8.44124 12.6613 8.40284 12.3637C8.36444 12.0661 8.09501 11.8533 7.79553 11.884ZM11.5614 12.5183C11.5446 12.8382 11.5283 14.9397 11.6063 15.112C11.7827 15.1718 12.1362 15.1032 12.3352 15.1021C12.3571 14.8959 12.3288 14.4567 12.324 14.2233L12.2932 12.5109C12.092 12.5185 11.7464 12.5416 11.5614 12.5183ZM46.5486 14.726C46.3457 14.762 46.1777 14.9053 46.1113 15.1001C46.0448 15.2949 46.0898 15.5103 46.2289 15.6625C46.3676 15.8146 46.5788 15.8794 46.7796 15.8316C46.9821 15.7833 47.1417 15.6282 47.1955 15.4275C47.2454 15.241 47.196 15.0421 47.0652 14.9C46.934 14.7579 46.7393 14.6923 46.5486 14.726ZM4.09551 14.9677C3.79375 15.0489 3.61425 15.3576 3.69351 15.6589C3.7728 15.9603 4.0812 16.1414 4.38414 16.0646C4.661 15.9944 4.84265 15.7304 4.80871 15.4477C4.78907 15.2843 4.69914 15.1374 4.56224 15.0452C4.42534 14.9531 4.25502 14.9248 4.09551 14.9677ZM12.1558 15.6071C11.9436 15.6217 11.7849 15.6297 11.5721 15.6263C11.5809 15.8863 11.5872 17.5615 11.6187 17.6366C11.6696 17.6276 11.6477 17.6393 11.6836 17.6001C11.9951 17.1399 12.3386 16.6823 12.3496 16.1011C12.3528 15.9338 12.3234 15.792 12.3153 15.6287C12.2532 15.5865 12.2507 15.6032 12.1558 15.6071ZM4.65833 25.5743C4.45342 25.6039 4.28074 25.7419 4.20713 25.9347C4.13356 26.1276 4.17061 26.3451 4.30397 26.5029C4.43732 26.6607 4.646 26.7342 4.84925 26.6947C5.15315 26.6357 5.35435 26.3459 5.30252 26.0416C5.25064 25.7374 4.96472 25.53 4.65833 25.5743ZM11.6227 26.2628C11.6307 26.572 11.6234 28.7099 11.7229 28.8256C11.901 28.9121 12.1998 28.8689 12.4058 28.8556C12.4599 28.6466 12.4803 27.0418 12.3063 26.8882C12.3131 26.8942 11.6474 26.2811 11.6227 26.2628ZM39.4319 27.2765C39.2286 27.5303 38.9353 27.8893 38.8403 28.1997C38.8141 28.2851 38.8656 30.6351 38.8733 30.9503C38.9753 31.1237 39.1749 31.3177 39.3248 31.5549C39.3916 31.6393 39.4393 31.7136 39.5291 31.7716L39.5717 31.762C39.5807 31.7348 39.5037 30.6405 39.498 30.5394C39.4514 29.7725 39.4249 29.0046 39.4187 28.2364C39.4175 28.0816 39.4438 27.3474 39.4319 27.2765ZM14.6818 28.5453C14.6369 28.7675 14.4897 29.5016 14.6037 29.6303C14.779 29.8281 16.4015 29.4501 16.3374 30.1094C16.3312 30.1733 16.244 30.2531 16.1843 30.2711C15.7575 30.4033 15.168 30.1882 14.7181 30.2114C14.7074 30.2295 14.6968 30.2475 14.6861 30.2655C14.6717 30.4636 14.8126 30.7124 14.8997 30.8994C15.5061 30.9184 16.0933 30.8173 16.6937 30.7962C16.8063 30.7922 16.9048 30.914 16.9259 31.0236C16.8459 31.4136 15.6111 31.4597 15.2724 31.4655C15.5558 31.9706 15.5953 32.0374 16.1646 31.8663C16.5516 31.7499 16.9555 31.6491 17.3251 31.4709C17.5453 31.3664 17.6268 31.0188 17.9207 31.3494C17.955 31.3878 17.9493 31.4842 17.9226 31.531C17.6053 32.0893 16.7545 32.2183 16.2091 32.4018C16.4324 32.54 16.5514 32.5912 16.8057 32.6642C17.1073 32.4878 17.4264 32.3427 17.7578 32.2314C18.1191 32.113 18.3253 32.0902 18.6765 31.9141C18.8905 31.7945 19.06 31.621 19.2786 31.6084C19.4688 31.6873 19.4318 31.8497 19.3759 32.0061C19.2027 32.4911 17.628 32.5838 17.5282 32.9668C17.6062 33.0718 17.9957 33.1482 18.1338 33.1629C19.4321 33.3003 20.8794 33.0059 22.003 32.3378C22.0556 32.3065 22.0838 32.2682 22.0961 32.2125C21.9933 32.1107 21.5699 31.9828 21.3822 31.882C21.0814 31.7205 20.6453 31.275 20.3791 31.1795C20.0696 31.0686 19.5193 30.8805 19.2039 30.7982C18.6608 30.6565 18.4991 30.6867 17.9686 30.3986C17.5907 30.1893 17.2358 29.9413 16.9098 29.6584C16.5924 29.3829 16.2505 29.0021 15.8726 28.8267C15.5092 28.6582 15.086 28.6723 14.6818 28.5453ZM11.718 29.4412C11.6796 29.5958 11.7203 30.9066 11.7231 31.1506L11.7393 32.8092C11.7432 33.2175 11.637 34.5248 12.3914 34.5362C12.9862 34.5451 14.2473 34.5714 14.7864 34.5142C15.3678 34.4524 19.3034 34.5152 19.5076 34.4132C19.634 34.4248 19.7662 34.4528 19.8771 34.405C20.015 34.2725 19.9489 33.9649 19.9456 33.7724C18.6034 33.7291 16.9494 33.7706 15.6075 33.8073L14.2784 33.8379C13.8583 33.8491 13.3838 33.9224 13.0053 33.704C12.3307 33.3147 12.4924 32.3434 12.4764 31.6656C12.459 30.9282 12.4782 30.1776 12.455 29.4333C12.2093 29.4298 11.9636 29.4325 11.718 29.4412ZM37.1604 29.6533C36.3063 30.066 36.0968 30.0038 35.2362 30.1067C35.0934 30.2276 34.9503 30.3482 34.8046 30.4657C34.4642 30.7401 34.0459 30.8843 33.6707 31.1012C34.1927 31.2177 34.7092 31.2907 35.2351 31.3794C35.379 31.4037 35.8932 31.4798 36.0039 31.5255C36.2214 31.5392 36.3104 31.5711 36.4983 31.6764C36.7222 31.3378 36.8027 31.2335 36.9283 30.8416L36.8958 30.8314C36.5271 30.7183 34.8258 31.1993 35.1009 30.6589C35.2517 30.5454 35.6319 30.5756 35.8322 30.5554C36.2485 30.5135 36.6685 30.451 37.0861 30.4363C37.1138 30.2904 37.2349 29.7582 37.2297 29.6646C37.2092 29.6605 37.1797 29.6527 37.1604 29.6533ZM33.1244 31.2639L33.089 31.286C32.8376 31.4442 32.6764 31.6505 32.4451 31.8315C31.5964 32.4959 30.4253 32.4849 29.461 32.0798C29.2479 32.1345 28.9925 32.2528 28.7743 32.328C28.1463 32.5442 27.5553 32.6184 26.8903 32.628C27.24 33.2919 27.8592 34.0031 28.4749 34.4317C28.5693 34.4973 28.7535 34.6511 28.86 34.6532L28.9051 34.6123C28.8836 34.2614 28.117 33.1366 28.3414 32.8716C28.4285 32.8569 28.4333 32.862 28.5186 32.8953C28.7163 33.0988 29.1962 34.5837 29.3269 34.9174C29.4542 34.9498 29.8723 35.0657 29.9753 35.0382C30.0502 34.7489 28.9251 33.2013 29.1224 32.9049C29.2137 32.8636 29.1672 32.8695 29.267 32.8881C29.6111 33.1348 30.2641 34.7452 30.3847 35.0781C30.4083 35.1432 31.2473 35.1502 31.4637 35.0657C31.459 34.7881 30.0959 33.4061 30.2721 32.9013C30.5397 32.6786 30.8049 33.4015 30.9325 33.6068C31.2341 34.0922 31.6342 34.468 31.7561 35.0314C32.1458 35.018 32.2825 34.9857 32.6483 34.8714C32.4355 34.6072 32.287 34.4477 32.0205 34.2233C31.8123 33.9967 31.284 33.5409 31.2833 33.2782C31.3292 33.1874 31.357 33.1516 31.4656 33.1492C31.6765 33.301 32.7407 34.4338 32.8889 34.6781L32.9037 34.7021L32.9124 34.7166C33.0817 34.665 33.4984 34.5647 33.5794 34.4005C33.5981 34.3624 33.5918 34.3426 33.5741 34.3034C33.4126 33.9472 31.4611 33.1968 31.5642 32.7936C31.5758 32.7485 31.5922 32.7289 31.6236 32.6963C31.7951 32.6686 33.6281 33.8376 33.8817 34.0192C33.9339 34.0567 33.9854 34.0953 34.0359 34.1352L34.0608 34.1193C34.2507 34.0005 34.572 33.8909 34.6735 33.724L34.6648 33.6681C34.3733 33.5381 34.1041 33.3697 33.8169 33.2433C33.3225 33.0257 32.8314 32.8176 32.3575 32.556C32.2603 32.5024 32.2238 32.4387 32.2566 32.3354C32.5087 32.1442 32.9526 32.4649 33.2072 32.573C33.817 32.8317 34.3887 33.0907 34.9566 33.4331C35.0815 33.3291 35.3723 33.0554 35.4502 32.9163C35.2424 32.5377 32.986 32.1479 32.9818 31.7312C33.0379 31.6663 33.1184 31.6244 33.2059 31.6201C33.2803 31.6164 35.6129 32.4418 35.8275 32.5453C35.9731 32.4237 36.2764 32.1747 36.2948 31.9815C36.2688 31.9312 36.2752 31.9147 36.2134 31.9C35.9815 31.8449 35.6206 31.8102 35.4028 31.7518C35.1959 31.6963 33.2061 31.2565 33.1244 31.2639ZM38.897 31.7221C38.8865 31.9306 38.8894 32.1359 38.9045 32.3442C39.0008 33.669 37.8534 33.4743 36.9334 33.4969C36.6024 33.505 35.8635 33.4963 35.5525 33.6184C35.3708 33.6897 34.9728 34.0762 34.8091 34.2251C34.9644 34.2107 35.5131 34.2279 35.5905 34.2072C35.7566 34.2256 36.0545 34.2061 36.2327 34.2019L37.463 34.1744C37.9097 34.1646 38.4463 34.1854 38.8804 34.1379C39.734 34.0447 39.6032 33.09 39.5453 32.5299C39.3264 32.2428 39.1318 31.9957 38.897 31.7221ZM26.1963 33.6204L23.4254 33.6645C23.4242 33.8197 23.4091 34.1448 23.447 34.2797C23.6534 34.3637 24.4681 34.3108 24.7419 34.3176C25.6105 34.3013 26.5969 34.3005 27.4568 34.2611C27.2733 34.0385 27.0925 33.8098 26.8892 33.6055C26.6644 33.6123 26.4196 33.6247 26.1963 33.6204ZM22.1571 33.6737C21.8956 33.6835 20.6995 33.6985 20.5182 33.7476C20.4519 33.8371 20.4051 34.3087 20.5754 34.3596C20.8785 34.4502 21.2238 34.3765 21.5393 34.3846C21.804 34.3707 22.7082 34.4136 22.8512 34.3125C22.9052 34.2128 22.9637 33.7361 22.8536 33.7011C22.6825 33.6467 22.3487 33.6739 22.1571 33.6737ZM34.1314 37.5061C33.7469 37.6872 33.5567 37.9958 33.7521 38.4368C33.8548 38.6686 34.1061 38.6968 34.3375 38.7024C34.7632 38.5818 34.7517 38.3969 34.7782 37.9918L34.6161 37.6261C34.4102 37.4839 34.3848 37.4894 34.1314 37.5061ZM17.4612 37.7391C17.2267 37.8092 17.0524 37.8594 16.9262 38.0982C16.8509 38.2434 16.8397 38.4134 16.8954 38.5672C16.9782 38.7952 17.1324 38.8741 17.3472 38.9418C17.672 38.8978 17.7147 38.8743 17.9292 38.6226C17.9823 38.2091 17.9187 37.8661 17.4612 37.7391Z" fill="#020302"/>
<path d="M33.907 4.1334C33.5967 4.22836 33.2674 4.05735 33.1676 3.74951C33.0678 3.44162 33.2345 3.11094 33.5419 3.00699C33.7449 2.93837 33.9691 2.984 34.1288 3.12638C34.2885 3.26876 34.3589 3.48581 34.3129 3.69443C34.267 3.903 34.1119 4.07078 33.907 4.1334Z" fill="#FEFEFE"/>
<path d="M16.9475 4.34273C16.2391 4.42004 16.0133 3.5516 16.7167 3.23642C17.0028 3.20782 17.2521 3.33238 17.3466 3.61561C17.3948 3.75925 17.3826 3.91622 17.3127 4.05071C17.23 4.20964 17.1109 4.28551 16.9475 4.34273Z" fill="#FEFEFE"/>
<path d="M11.837 7.77656C12.9121 7.72562 13.9935 7.73115 15.0694 7.72501L18.8155 7.68936L33.8714 7.49356L36.0055 7.4685C36.2368 7.46419 36.434 7.45809 36.6642 7.42418C36.7343 7.42218 36.8382 7.45913 36.9039 7.45669C37.4895 7.43516 38.0713 7.4458 38.6573 7.41211L38.7907 7.42314C39.0694 7.44636 39.142 7.53465 39.2968 7.74192C39.3221 8.16781 39.3053 8.88343 39.3143 9.34554C39.3289 10.0945 39.3972 11.0721 39.3655 11.8026C38.9543 12.3243 39.371 12.2822 39.369 12.4778C39.3635 13.0153 39.5137 17.6482 39.3901 17.7892C39.3079 17.7256 38.5657 16.1622 38.5684 16.0891C38.6255 14.5439 38.5249 12.9984 38.5037 11.4529L38.4933 9.92196C38.4923 9.59464 38.5016 9.2196 38.4529 8.89663C38.4313 8.75365 38.2443 8.53235 38.1475 8.43147C38.0327 8.31184 37.7979 8.15836 37.6284 8.14646C36.9383 8.09791 36.1432 8.16171 35.4505 8.16267C34.2022 8.16442 32.978 8.20333 31.7323 8.21854C31.2037 8.23214 30.6751 8.25977 30.1465 8.27236C30.0505 8.27467 29.8508 8.18498 29.7457 8.15679C29.6633 8.13469 29.5742 8.10964 29.4912 8.08746C29.0592 7.97206 28.6095 7.94887 28.1641 7.95362C27.9175 7.95619 27.6466 7.97698 27.4097 8.04871C27.2672 8.09094 26.9661 8.22795 26.8338 8.24064C26.2997 8.2918 25.7021 8.23915 25.1578 8.25737C24.9411 8.26465 24.6809 8.09055 24.516 8.06196C24.2792 8.02087 23.8356 8.00051 23.5963 8.00143C22.9507 8.00387 22.3805 8.20359 21.7635 8.31934C21.5933 8.35128 21.011 8.33276 20.8134 8.33189C20.4225 8.33023 20.0228 8.33847 19.6315 8.33638C19.0813 8.36174 18.4075 8.34379 17.8465 8.34841C16.7909 8.35551 15.7354 8.37098 14.6801 8.39495C14.0088 8.40663 12.43 8.16877 12.2966 9.14142C12.1722 10.0491 12.2884 11.1169 12.2765 12.0536C12.1212 12.0503 11.6485 12.0719 11.5495 11.9948C11.5015 11.5618 11.5084 10.6042 11.5087 10.1437C11.5092 9.54805 11.4694 8.66479 11.5116 8.08824C11.64 7.93053 11.6727 7.90325 11.837 7.77656Z" fill="#FEFEFE"/>
<path d="M25.9863 10.6386C25.9971 9.84465 26.0811 9.30192 26.7664 8.82778C27.3632 8.41482 27.9008 8.41112 28.5943 8.39355C28.6197 8.40179 28.7622 8.40541 28.8072 8.41408C29.0043 8.45278 29.2612 8.47361 29.4481 8.53702C30.634 8.9393 31.7657 9.42276 32.7314 10.2392C32.8823 10.3667 33.1696 10.5366 33.2628 10.7096C33.2566 11.0195 32.8684 11.0986 32.6216 11.1807C32.4991 11.0935 32.4249 11.0078 32.2706 11.0536C32.1477 11.2182 32.2549 11.4763 32.2342 11.6775C32.2233 11.7837 32.1813 11.9051 32.1483 12.0071C31.8841 11.9533 31.3205 11.8921 31.1359 12.1278C31.109 12.4021 31.7002 12.4017 31.8916 12.4175C32.0383 12.5129 32.3993 12.7634 32.4992 12.887C33.3394 13.9269 33.6341 15.7705 33.6139 17.0334L33.5667 17.0318C32.8618 16.5526 31.741 16.446 31.316 15.5359C30.8826 14.1531 32.0757 14.7775 32.1023 14.4426C32.1309 14.0808 31.5162 13.9581 31.1285 14.3272C30.7807 13.9632 30.5338 13.576 30.1902 13.2081C29.9971 13.0013 29.5317 12.7386 29.3828 12.5614C29.3735 12.4193 29.5026 11.506 29.6465 11.4215C29.7023 11.3888 30.0604 11.414 30.1863 11.2416C30.19 11.135 30.1982 11.1767 30.1388 11.0803C29.7948 10.8515 29.2021 11.4058 28.6307 10.4309C28.7729 10.2081 29.0732 9.76377 28.7914 9.54186C28.5733 9.51223 28.446 9.93299 28.1867 10.0857C28.0152 10.1866 27.9654 10.2044 27.7757 10.2812C27.0455 10.0789 26.6072 10.3086 25.9863 10.6386Z" fill="#FEFEFE"/>
<path d="M17.806 13.5851C17.7903 13.6904 17.7529 13.8988 17.6957 13.9883C17.3655 14.5046 16.7072 14.8797 16.23 15.2553C16.0979 15.3592 15.834 15.5408 15.7589 15.6773C15.6214 15.9271 15.5522 16.2592 15.3996 16.5096C15.0073 17.1538 14.4701 17.69 14.2841 18.4454C14.215 18.7259 14.2761 19.287 14.1992 19.5443C13.9277 19.5931 13.4819 19.0406 13.4631 18.7596C13.4124 18.0016 13.7928 17.3136 14.2544 16.7366C14.4852 16.4481 14.8772 15.8599 14.6345 15.4856C13.8607 14.5812 14.7811 14.5726 15.1913 14.0701C15.6358 13.5256 15.5746 12.856 16.1955 12.3068C16.7351 11.8294 17.2078 11.8072 17.7893 11.4499C18.3173 11.1255 18.8758 10.7658 19.3132 10.3273C19.4381 10.1994 19.5341 10.0032 19.6556 9.86938C20.6089 9.05266 22.3962 8.53398 23.583 8.44243C24.2768 8.39213 24.9136 8.5478 25.3447 9.1379C25.7582 9.70382 25.4316 10.6297 25.3589 11.2671C25.3328 11.4949 25.0528 11.3905 24.8804 11.507C24.7999 11.6869 25.0522 12.0194 25.0473 12.1274C25.0329 12.4434 25.0195 12.9581 24.968 13.2578C24.72 13.5014 23.9289 12.957 23.7425 13.293C23.7896 13.4571 24.2197 13.6816 24.3677 13.8427C24.5495 14.0407 24.6725 14.1916 24.7938 14.4388C24.8748 14.602 24.9227 14.7794 24.935 14.9611C24.9701 15.4197 24.7635 17.1818 24.6153 17.6192C23.8513 17.0401 23.1757 16.6221 22.2007 16.5271C22.4479 16.0534 22.4626 15.6046 22.1815 15.1329C22.1452 15.0719 22.1152 15.0576 22.0518 15.0494C21.8037 15.1822 21.9147 15.8287 21.7402 16.1937C21.4516 16.8389 20.8347 17.2009 20.1691 17.3644C19.9722 17.4128 19.3603 17.3849 19.2827 17.5805C19.3282 17.7863 19.4926 17.8066 19.6779 17.8226C20.554 17.8981 21.1782 17.3436 21.9312 17.0422C22.1226 17.0106 22.4545 16.9926 22.6396 17.0225C24.6628 17.3495 24.86 19.3236 24.7931 20.9929C24.7592 21.3774 24.8393 21.8912 24.7849 22.2653C24.6728 23.0369 24.8134 23.7319 24.6224 24.4917C24.5358 24.8359 23.8561 25.4498 24.1042 25.7092C24.3798 25.7551 24.5769 25.2758 24.746 25.2244C24.8436 25.363 24.7997 25.6264 24.8016 25.7875C24.8184 27.202 24.3077 28.4037 22.6936 27.6323C22.6046 27.5898 22.4867 27.545 22.3888 27.5855C22.368 27.6266 22.3592 27.6399 22.3834 27.6884C22.6773 28.2776 23.952 28.4962 24.4889 28.2917C24.5071 28.6008 24.4494 28.9916 24.4611 29.3198C24.4498 29.5829 24.5613 29.9342 24.5539 30.1841C24.5314 30.9426 23.7876 31.7834 23.0029 31.7764C22.2042 31.7694 21.61 31.5423 21.0434 31.0145C21.5062 30.7057 21.5315 30.8588 22.0271 30.3822C21.5739 30.0684 21.2522 30.4691 20.7807 30.5383C20.5346 30.5743 20.2129 30.5632 19.9632 30.551C19.3735 30.1881 19.3508 29.8934 19.2606 29.2345C19.4334 29.1895 19.9417 29.5259 20.2053 29.5674C20.6393 29.6358 20.6688 29.2728 20.363 29.123C19.9267 28.9092 19.4396 28.81 19.0782 28.4404C18.8677 28.2251 18.645 28.0038 18.4074 27.8195C18.026 27.5025 17.5953 27.3571 17.1878 27.0989L17.1532 27.0767C17.008 27.0804 16.7929 27.0286 16.7464 27.2035C16.8193 27.4202 17.2952 27.5028 17.4864 27.6899C18.2325 28.4203 18.89 29.1588 18.9919 30.2314C16.9859 29.764 17.1231 28.2282 15.102 27.9873C14.1838 27.8778 13.3311 27.0737 12.6938 26.4712C11.9626 25.7798 11.5201 25.1109 11.4743 24.0564C11.5837 23.8725 11.7457 23.6485 11.8687 23.4681C11.8645 23.458 11.86 23.4479 11.856 23.4377C11.7011 23.0508 11.3378 22.8216 11.2006 22.3713C10.8564 21.2424 11.835 20.7562 11.7596 20.2859C11.7427 20.1808 11.6627 20.1338 11.5803 20.078C11.5799 19.8358 11.5738 19.5179 11.6014 19.2797C11.6837 18.7519 11.9755 18.0051 12.29 17.5639C12.7404 16.9322 12.8233 16.4132 13.0528 15.6865C13.5553 14.0947 14.3121 13.3036 15.5888 12.2898C15.4898 12.4546 15.4177 12.5728 15.3415 12.753C15.2098 13.0427 15.091 13.7048 14.8262 13.889C14.319 14.2418 13.8186 14.3899 13.9867 15.1471C14.0418 15.3949 14.0904 15.6264 14.0549 15.897C13.9656 16.5773 13.3996 17.043 13.1723 17.6695C13.0591 17.9803 13.0161 18.3537 12.7957 18.6076C12.5956 18.8431 12.1484 18.6337 12.1031 18.9835C12.1581 19.2032 12.3074 19.1691 12.488 19.151C12.6885 19.1172 12.7866 19.0807 12.9757 19.0079C13.0695 19.2104 13.0853 19.3467 13.2216 19.5391C13.3399 19.706 13.4915 19.6911 13.5458 19.8317C13.387 19.9154 13.0374 20.0025 13.0887 20.2049C13.3458 20.4478 13.8806 20.2314 14.1688 20.1246C14.6798 20.3057 14.8134 20.6582 15.2047 20.9787C15.4661 21.1928 15.8547 21.4274 16.1428 21.6064C15.6995 22.2282 15.3431 22.3105 14.6126 22.3156C14.2152 22.3184 14.0596 22.4043 13.665 22.2044C13.1727 21.9549 12.8176 21.576 12.536 21.1076C12.4582 20.9766 12.4177 20.9059 12.2671 20.8467C12.1844 20.8506 12.2156 20.8341 12.1648 20.8851C12.1069 21.0508 12.1757 21.2809 12.2534 21.4309C12.7045 22.3021 13.0396 22.4872 13.9022 22.7792C13.8664 23.0749 13.7294 23.7735 14.0652 23.9293C14.3471 23.8608 14.2772 23.1367 14.5075 22.9392C14.6568 22.8112 15.3283 22.8648 15.5279 22.8933C15.3323 23.5276 15.4509 23.9867 15.7556 24.5616C15.5766 24.7445 14.8472 25.3554 15.3781 25.5174C15.5106 25.5578 16.009 25.1018 16.1349 25.0102L16.3165 25.0278C16.5392 25.0456 16.7051 25.1418 16.8979 25.1922C17.5371 25.3594 17.6687 25.7605 18.003 26.2584C18.1453 26.3788 18.343 26.6276 18.4912 26.7234C18.7134 26.8671 19.2931 27.7179 19.558 27.4349C19.6199 27.0257 18.6962 26.3013 18.4502 26.0021C18.172 25.6637 17.9576 25.3125 17.6013 25.0457C17.2977 24.8184 16.9637 24.714 16.6373 24.5313C15.9497 24.1135 15.9302 23.6518 16.0807 22.9382C16.238 22.1922 16.3666 21.9482 17.0685 21.5818C17.3826 21.4178 17.8804 20.9262 18.0707 20.6159L18.0898 20.5843C18.3548 20.7043 18.8507 21.0185 19.1157 20.8779C19.1796 20.7931 19.1704 20.8301 19.1694 20.7351C19.0214 20.5241 18.6238 20.3236 18.3898 20.15C18.395 19.9033 18.4542 18.9645 18.0312 19.0706C17.5689 19.4378 18.4854 20.5983 16.3991 21.1423C15.9175 20.9464 15.3065 20.6585 15.0704 20.1377C14.8317 19.6109 14.8888 18.3512 15.0494 17.7843C15.183 17.4423 15.5477 17.1088 15.7166 16.8035C16.1687 15.9865 16.5727 15.2998 17.4385 14.8751C17.7771 14.709 18.0191 14.5608 18.3937 14.4197C18.6767 14.3131 19.1207 14.2648 19.3396 14.1698C19.3648 14.1142 19.3529 14.0952 19.3405 14.034C19.1547 13.8033 18.5203 14.0437 18.3011 14.0137C18.3271 13.8429 18.3382 13.4622 18.4567 13.3458C19.0014 12.8107 19.7451 12.5474 20.4289 12.2383C21.3193 11.8358 22.1694 11.0671 23.1991 11.1758C23.4217 11.1986 23.6696 11.2538 23.8908 11.2292C23.9454 11.1891 23.9514 11.1704 23.9651 11.0816C24.0111 10.7828 23.057 10.7147 22.999 10.6721C22.9071 10.6046 23.0823 9.90071 22.8725 9.67271C22.7927 9.6466 22.8332 9.64848 22.7468 9.67567C22.6672 9.77202 22.6657 9.88912 22.6513 10.0191C22.575 10.704 21.9269 11.1216 21.3852 11.441C21.2695 11.5092 20.5092 11.7593 20.3981 11.7419C20.3352 11.6712 20.3515 11.6195 20.3369 11.5065C20.1793 11.4903 19.8342 11.9252 19.677 12.0396C19.1562 12.4187 18.3757 12.9122 17.7627 13.0935C17.668 13.1397 17.2367 13.0342 17.1829 13.1039C16.876 13.5017 17.707 13.5695 17.806 13.5851ZM23.0971 11.961C22.9735 12.2878 22.4182 13.1753 22.0503 13.3288C21.6427 13.4988 21.3585 13.3565 21.2044 13.4221C21.1608 13.5511 21.1372 13.9791 21.1169 14.1453C21.0607 14.6078 20.6695 15.1435 20.2666 15.3608C19.8876 15.5652 19.2845 15.5939 18.8833 15.7236C17.5779 16.1454 16.6308 17.1777 16.1849 18.4549C16.0531 18.8322 16.0328 19.2451 16.2098 19.605C16.2406 19.6685 16.2764 19.7296 16.3169 19.7875C16.4097 19.7584 16.4721 19.7532 16.5186 19.6511C16.6888 19.2775 16.6178 18.8207 16.6595 18.4238C16.7608 17.4581 17.9253 16.536 18.782 16.2028C19.0709 16.0905 19.5532 16.0222 19.8657 15.9325C20.5032 15.7493 21.2867 15.3081 21.5741 14.6836C21.7112 14.3857 21.7062 14.1882 21.7002 13.872C22.6705 13.6636 23.3154 13.2712 23.3112 12.2014C23.3109 12.1291 23.2505 12.0329 23.2029 11.9819C23.1771 11.9766 23.1205 11.963 23.0971 11.961ZM20.1387 18.7929C19.5962 19.4267 21.4017 19.6795 21.7845 19.511C21.885 19.5693 21.9322 19.719 21.961 19.8265C22.1162 20.4055 22.0953 21.1128 21.7869 21.6404C21.5809 21.9927 21.2338 22.2374 20.838 22.3343C20.5641 22.4013 19.6123 22.4876 19.3629 22.3983C19.3063 22.378 19.2706 22.3792 19.2167 22.4077C19.1366 22.45 19.0784 22.5299 18.9983 22.5768C18.7423 22.7267 18.3877 22.8515 18.098 22.9032C17.8159 22.9536 17.5329 22.9564 17.2479 22.9319C17.1324 22.9219 16.9992 22.8906 16.885 22.9027C16.8276 22.9088 16.8145 22.9237 16.7747 22.9612C16.7818 23.2326 17.2391 23.4893 17.4878 23.4293C17.6007 23.4146 17.7214 23.4214 17.8336 23.4044C18.1897 23.3505 18.5333 23.2095 18.841 23.0253C18.9356 22.9687 19.0265 22.8762 19.1112 22.8046C19.2157 22.7162 19.3152 22.6205 19.4178 22.5298C19.4179 22.5298 19.5527 22.6236 19.5644 22.6343C19.7319 22.7525 20.1313 22.753 20.3551 22.7789C20.7155 22.8078 21.2475 22.6181 21.613 22.6008C21.6208 22.6005 21.7393 22.6993 21.7599 22.7274C22.3246 23.5441 22.1011 24.7154 22.0862 25.6517C22.0856 25.689 22.0456 25.7584 22.0275 25.7912C21.9717 25.8918 22.0245 26.0432 22.1076 26.1114C22.5229 26.1257 22.5394 25.2692 22.548 25.0022C22.5818 23.9415 22.4763 23.1109 22.1233 22.105C22.1858 22.0022 22.3882 21.6346 22.3936 21.5427C22.4196 21.0947 22.3724 19.1635 22.1995 18.8564C21.9651 18.7883 21.7804 19.0123 21.6124 19.1588C21.1509 19.191 20.8443 19.2385 20.4554 18.9618C20.3791 18.9075 20.2275 18.8132 20.1387 18.7929ZM12.4963 24.0084C12.3106 24.3362 12.6055 25.0562 12.8732 25.2998C13.7586 26.1054 14.8479 26.652 15.773 27.4068C15.9019 27.5119 16.1923 27.7867 16.3539 27.7235L16.3708 27.7009C16.4513 27.6188 16.5266 27.5655 16.5218 27.4443C16.5165 27.309 16.404 27.1408 16.2965 27.0664C15.7263 26.6719 15.1479 26.3963 14.6036 25.9545C14.1866 25.616 13.6767 25.3512 13.3106 24.937C13.0576 24.6857 12.8468 24.0515 12.4963 24.0084ZM19.5904 24.5436C19.2837 24.5797 18.5022 24.7294 18.5125 25.1638C18.5143 25.2399 18.6472 25.3615 18.7055 25.415C19.2852 25.0207 19.486 24.8603 20.219 25.1004C20.5201 25.2454 20.6702 25.6828 20.9195 25.7707C20.9508 25.7614 20.9792 25.7632 20.9876 25.7311C21.1839 24.9764 20.1867 24.4361 19.5904 24.5436ZM20.9866 26.154C20.7905 26.3816 20.7751 27.3832 20.7882 27.7036C20.8387 28.9428 22.0926 30.2841 23.3625 30.2943C23.3772 30.2944 23.4131 30.2882 23.4297 30.2841C23.5387 30.2424 23.7253 30.1864 23.7703 30.073C23.6792 29.8949 23.2253 29.896 23.0343 29.8282C22.4953 29.6368 22.0182 29.2182 21.6244 28.8189L21.6163 28.7774C21.5704 28.5344 21.5845 28.3472 21.5771 28.1171C21.5628 27.6703 21.4 26.4457 21.056 26.1734L20.9866 26.154Z" fill="#FEFEFE"/>
<path d="M35.3172 8.59713C35.2408 8.60135 35.24 8.60493 35.1641 8.58017C35.2204 8.53289 35.5184 8.53032 35.6062 8.52709C35.6569 8.52474 35.6669 8.52831 35.7175 8.53472L35.7087 8.56409C35.519 8.59883 35.4472 8.5617 35.3172 8.59713Z" fill="#626263"/>
<path d="M35.1069 8.58859C34.9436 8.62528 34.7743 8.62703 34.6103 8.59373L34.5918 8.5498C34.7774 8.56981 35.0157 8.52584 35.1069 8.58859Z" fill="#626263"/>
<path d="M16.4079 11.5418L16.3855 11.5528L16.3828 11.5222C16.9269 10.8532 18.2539 10.0599 19.0864 9.82227L19.1232 9.8475C18.8923 10.4545 18.0092 10.9428 17.4285 11.1661C17.1436 11.2756 16.6482 11.3882 16.4079 11.5418Z" fill="#FEFEFE"/>
<path d="M25.9232 26.7796C25.2066 26.251 25.199 25.2445 25.1174 24.4419C24.999 23.2775 25.0859 22.133 25.0789 20.9695C25.074 20.1851 25.1202 19.4187 25.2696 18.6478C25.3436 18.1938 26.0932 16.7764 26.0779 16.512C26.0354 16.4343 26.0378 16.4386 25.958 16.3975C25.6838 16.3723 25.5371 16.8072 25.3552 16.9167C25.2056 16.7708 25.4432 15.4842 25.5165 15.2729C25.6158 14.987 25.8581 14.6548 25.8316 14.3762C25.8134 14.185 25.6798 14.3285 25.5514 14.2378C25.52 14.1165 25.505 13.953 25.503 13.828C25.4849 12.7232 25.6204 11.3658 26.6399 10.7087C26.9046 10.5381 27.1127 10.5583 27.409 10.5457C28.1804 10.5182 29.0415 11.264 29.1313 12.017C29.148 12.1573 29.2794 12.4033 29.1555 12.5153C28.9566 12.5126 28.7222 12.3951 28.5284 12.3569C28.2074 12.2936 27.5053 12.2265 27.2473 12.4502C27.2048 12.5537 27.212 12.5093 27.2293 12.6207C27.2782 12.6884 27.4459 12.7569 27.5017 12.7471C28.1028 12.6409 28.3623 12.7422 28.916 12.8904C30.8597 13.4105 30.3553 15.0836 31.3709 16.2958C31.8192 16.8309 32.5139 16.9194 33.1047 17.2094C33.5159 17.4471 34.8996 18.9133 35.1969 19.2933C35.3198 19.4506 35.4251 19.6208 35.511 19.8009C35.8558 20.5252 35.6531 20.8219 35.3951 21.5463C35.1764 21.4225 34.8151 20.9479 34.6441 21.0844C34.5223 21.3974 35.1159 21.7115 35.1602 22.179C35.2903 23.5536 34.1944 23.4052 33.5682 24.1928C33.2896 24.5433 33.3591 25.1446 33.0005 25.6562C32.5963 25.7989 32.3665 25.8809 31.9562 25.742C31.8236 25.5878 31.724 25.4264 31.5287 25.3943C31.2954 25.4764 31.3333 26.1995 31.1279 26.5608C30.7954 27.1456 29.6543 27.2786 29.1166 26.9562C29.0266 26.7712 29.1678 26.3719 29.1931 26.1677C29.2805 25.4627 29.438 25.1291 29.9169 24.6028C30.4425 24.0253 30.9987 23.9322 31.7357 23.7925C31.9193 23.7577 32.3953 23.6565 32.5245 23.5486C32.5671 23.4631 32.5644 23.4556 32.5682 23.3577C32.42 23.0321 31.8154 23.3638 31.5567 23.3774C31.4207 23.3845 30.8877 23.5124 30.7824 23.4721C30.7229 22.9342 30.7563 22.1528 30.1611 21.833C30.0935 21.7967 30.0573 21.8251 29.994 21.8515C29.8707 22.0265 30.0724 22.3477 30.1755 22.5564C30.3132 22.8351 30.2298 23.6943 30.0891 23.9311C30.0455 24.0045 29.4772 24.473 29.3895 24.5337C29.172 24.3755 29.293 23.0986 28.7193 23.0662C28.566 23.2551 28.4584 23.6227 28.2033 23.8844C27.7875 24.3106 27.5164 24.3436 26.9356 24.3734C26.7948 24.3806 26.6505 24.3907 26.561 24.4951C26.5449 24.6875 26.6786 24.7319 26.8498 24.7622C27.1766 24.82 27.5347 24.7634 27.8282 24.6186C28.1619 24.4539 28.3595 24.1953 28.6594 23.9936C28.9865 23.9965 28.9717 25.2743 28.9655 25.5298C28.9475 26.2597 28.7695 26.9109 28.4173 27.5461C28.3253 27.712 28.22 28.1314 28.433 28.2547C28.7442 28.2481 28.8342 27.8574 28.9027 27.6218C29.0354 27.5551 29.1344 27.5227 29.2743 27.4743C30.3937 27.7292 31.1635 27.575 31.657 26.4839C31.881 25.9889 32.8327 26.6698 33.421 25.8019C33.5638 26.1645 33.7721 26.3773 33.9123 26.7105C34.0112 26.9456 33.9228 27.6334 33.8085 27.8722C33.6334 28.2384 33.2521 28.3309 32.895 28.4619C32.9043 28.2144 33.0602 27.428 33.0124 27.3185C32.9346 27.2469 32.9787 27.2659 32.8776 27.2545C32.603 27.3902 32.2052 28.637 32.3298 28.9154C32.6357 29.1521 33.1016 28.8593 33.4469 28.7802C33.8156 28.6957 34.1964 28.6626 34.5614 28.5737C34.7566 28.5262 35.3012 28.2272 34.9958 28.0125C34.7301 28.0015 34.5091 28.2548 34.2545 28.1065C34.1584 27.9318 34.375 27.3302 34.3547 27.1132C34.3319 26.8699 34.2456 26.591 34.2172 26.3348C34.4236 26.085 35.1961 26.5039 35.4187 26.2775C36.1556 25.5281 35.6081 25.0629 36.7764 24.4712C37.0198 24.5217 37.2584 24.711 37.5759 24.6431L37.604 24.5797C37.5153 24.3479 37.3634 24.2475 37.1776 24.091C37.2204 23.718 37.2935 23.6872 37.4004 23.341C37.4517 23.1339 37.4282 22.9033 37.4598 22.6946C37.5291 22.2366 37.6524 22.3391 37.9791 22.3998C38.0148 22.3878 38.0585 22.3848 38.0657 22.3531C38.146 21.9955 37.8609 21.8531 37.6391 21.7628C37.5347 21.788 37.4235 21.8226 37.3195 21.8526C37.014 22.397 37.1439 22.98 36.8962 23.517C36.6648 24.0186 36.209 24.1582 35.8689 24.6282C35.6291 24.9021 35.5528 25.2804 35.3686 25.5807C35.0781 26.0545 34.2019 25.7636 33.856 25.5328C33.7185 25.2737 33.6329 25.1483 33.703 24.8525C33.9028 24.1557 34.2618 24.1858 34.7974 23.8092C35.0834 23.6082 35.3142 23.2523 35.492 22.9571C35.7713 22.4933 35.7975 21.3984 36.1557 21.0488C36.3183 21.1323 36.5519 21.2973 36.7158 21.1799C36.8245 20.9231 36.6305 20.8081 36.4028 20.739C35.5941 20.4935 36.1529 19.0993 36.2243 18.5268C36.2469 18.3456 36.332 17.8091 36.4053 17.6579C36.5781 17.5066 36.7965 17.6184 36.9669 17.7204C37.5107 18.0483 37.3787 18.7253 37.5074 19.2505C37.6051 19.6489 37.8412 20.2902 38.1295 20.5854C38.3627 20.4149 38.5517 20.2703 38.7324 20.6375C38.9136 21.0056 38.8131 21.5077 38.8335 21.9111C38.8692 22.6216 39.0287 23.3182 38.8028 24.0157C38.6268 24.7157 38.2586 25.2527 37.8234 25.81C37.523 26.1944 37.5841 26.327 37.084 26.5636C37.0277 26.2911 37.0444 25.9865 36.942 25.7504C36.8596 25.6835 36.7407 25.6638 36.6737 25.7499C36.485 26.0187 36.7169 26.4736 36.6636 26.7798C36.6236 27.01 36.2849 27.405 36.5245 27.6061C36.5716 27.607 36.6705 27.5735 36.699 27.5425C36.8957 27.3282 37.5818 26.9473 37.7242 26.7562C38.1186 26.2266 38.1604 25.8335 38.8591 25.6357C39.0164 25.6831 39.2418 25.7135 39.4086 25.7411C39.18 26.7453 38.5078 27.7296 37.7425 28.4131C37.2621 28.8421 36.3119 29.41 35.6817 29.5131C35.7801 29.2041 36.1039 28.8248 35.7328 28.6651C35.6843 28.6442 35.6268 28.65 35.5923 28.6889C35.2881 29.0388 35.1565 29.4675 34.835 29.8108C34.4985 30.17 33.9805 30.463 33.4996 30.5753C33.298 30.6223 33.0325 30.5893 32.8394 30.6794C32.7684 30.7583 32.7704 30.8244 32.7536 30.9311C32.6746 31.0145 32.5987 31.0935 32.5104 31.1751C31.7829 31.8471 30.6713 32.0061 29.7926 31.5455C29.6583 31.4604 29.5394 31.3559 29.3986 31.2811C29.2649 31.2103 28.665 31.0206 28.6942 30.8263C29.032 30.6849 29.5097 30.7366 29.8951 30.5154C30.1682 30.3587 30.6884 29.9703 30.5029 29.5536C30.4304 29.3906 30.316 29.4709 30.2584 29.4539C30.3064 29.4177 30.2901 29.4418 30.3144 29.3858C29.5955 28.5278 27.9583 28.5842 26.9307 28.322C26.8255 28.2951 26.7595 28.3674 26.6852 28.432C26.6454 28.5365 26.644 28.4874 26.6774 28.5843C27.0546 28.9665 29.4086 28.8358 29.9917 29.7694C29.0182 30.6326 27.9245 30.3128 26.7854 30.3113C26.6831 30.3806 26.6071 30.421 26.5353 30.5216C26.5225 30.6219 26.5119 30.5767 26.5704 30.6612C26.848 30.7562 27.4571 30.7156 27.704 30.8509C28.0476 31.0391 28.6558 31.4085 28.8948 31.7075C27.614 32.4311 25.6456 32.1746 25.2721 30.5882C25.2474 30.4833 25.1694 30.2542 25.2213 30.1602C25.4437 30.3131 25.8342 30.6095 26.119 30.5344C26.175 30.4734 26.2101 30.319 26.1553 30.2736C25.8241 29.9991 25.5727 29.6949 25.3031 29.3646L25.3148 29.2696C25.0429 28.6106 25.0755 27.7986 25.4997 27.1801C25.5677 27.0808 25.8123 26.8984 25.9232 26.7796ZM28.1906 14.6291C28.068 14.6345 28.0182 14.6298 27.9063 14.6875L27.8594 14.7467C27.891 14.9858 28.3988 15.1817 28.4618 15.4009C28.7439 16.3814 28.7399 17.7024 29.6104 18.3909C30.0308 18.7235 31.1333 19.0686 31.5063 18.51C31.5713 18.4126 31.61 18.3054 31.6462 18.1953C31.6276 18.0119 31.6289 17.6599 31.3898 17.6466C31.158 17.8275 31.4386 18.1567 30.9148 18.4706C29.8884 18.3637 29.3553 17.7615 29.0675 16.7816C28.8809 16.1459 29.1353 14.7327 28.2061 14.6276C28.201 14.6281 28.1958 14.6286 28.1906 14.6291ZM27.5698 16.5935C27.5493 16.6194 27.4528 16.7416 27.447 16.7689C27.1717 18.0853 27.5047 19.1607 28.592 20.0562C27.9652 20.5906 27.3841 20.9721 26.9654 21.7163C26.8467 21.9271 26.5226 22.4762 26.9402 22.5678C27.1932 22.5023 27.2956 22.0862 27.4357 21.8728C27.8904 21.1806 28.4606 20.5149 29.3011 20.3057C30.1347 20.0918 30.9654 20.5579 31.6629 20.9155C31.8923 21.1536 31.8889 21.3257 31.959 21.6398C32.0256 21.9382 32.1526 21.8051 32.3311 21.8555C32.4622 21.6686 32.2811 21.0162 32.3579 20.9379C32.7937 20.4935 33.562 20.3858 33.5057 19.5831C33.489 19.3459 33.2337 18.8241 33.0157 19.1369C32.9772 19.4639 33.1557 19.8937 32.787 20.1429C31.9094 20.7358 30.6957 19.8726 29.7678 19.9015C28.3881 19.9445 27.7673 18.3474 27.7131 17.1976C27.7067 16.9924 27.88 16.619 27.5698 16.5935Z" fill="#FEFEFE"/>
<path d="M32.7766 11.5143C33.2809 11.4426 33.3946 11.3605 33.7152 10.9658C33.8396 11.0124 34.0852 11.1579 34.2074 11.2297C35.1387 11.7787 35.968 12.4837 36.659 13.3136C36.842 13.5371 37.1082 13.977 37.269 14.2327C37.6906 14.8867 37.7827 15.703 38.1417 16.3804C38.5154 17.0857 38.8567 17.8029 39.2169 18.514C39.4302 18.9349 39.7459 19.3219 39.9164 19.764C40.0238 20.0423 39.9524 20.3407 39.9939 20.6281C40.1524 21.29 40.5389 21.3423 40.3486 22.1129C40.2263 22.2413 40.1313 22.4525 40.048 22.6141C40.0641 23.219 40.3035 23.5056 40.1034 24.1912C39.839 25.0965 39.8105 25.3319 38.7935 25.0398C39.0442 24.7381 39.3188 24.0943 39.3657 23.7065C39.4296 23.1774 39.2793 22.5572 39.2375 22.0127C39.1987 21.5997 39.2189 21.1979 39.1297 20.7908C39.0153 20.2682 38.655 19.7757 38.0909 19.7072C37.6316 18.9286 37.9505 17.8489 37.2185 17.2329C36.9684 17.0653 36.7308 17.0435 36.5055 16.8991C36.3959 16.7225 36.4856 15.7701 36.4248 15.4838C36.3732 15.2411 36.343 15.003 36.227 14.758C36.0089 14.2971 35.7639 13.9631 35.5412 13.492C35.3847 13.1609 35.1421 12.4049 34.9147 12.227L34.842 12.2584C34.7253 12.6563 35.1291 13.9406 35.3431 14.301C35.9587 14.5814 36.093 15.3243 36.1422 15.9369C36.1496 16.0293 36.1283 16.1471 36.0597 16.2126C35.9533 16.1955 35.6502 15.8031 35.5677 15.7005C35.405 15.4979 35.3557 15.1015 35.1137 14.9625C35.0154 14.9571 35.0621 14.9477 34.9709 15.001C34.7607 15.3542 35.5217 16.146 35.7008 16.4747C35.951 16.9341 36.0524 17.4465 36.0042 17.9695C35.9816 18.2146 35.8786 19.0917 35.5785 19.1536C35.4624 19.1019 35.1934 18.7683 35.066 18.6631C33.279 17.1865 34.3303 14.4606 32.9437 12.8065C32.5021 12.2797 32.5739 12.1132 32.7766 11.5143Z" fill="#FEFEFE"/>
<path d="M7.93857 12.9817C7.73925 13.0123 7.53897 12.9329 7.41537 12.7741C7.29176 12.6154 7.26425 12.4023 7.34355 12.2175C7.42284 12.0327 7.59644 11.9054 7.79703 11.8848C8.09651 11.8541 8.36594 12.0669 8.40434 12.3645C8.44274 12.6621 8.23608 12.9359 7.93857 12.9817Z" fill="#FEFEFE"/>
<path d="M16.3174 19.7875C16.2769 19.7295 16.2411 19.6685 16.2103 19.6049C16.0333 19.2451 16.0536 18.8321 16.1854 18.4548C16.6313 17.1776 17.5784 16.1454 18.8838 15.7235C19.285 15.5939 19.8881 15.5651 20.2671 15.3607C20.67 15.1434 21.0612 14.6078 21.1174 14.1452C21.1377 13.979 21.1613 13.551 21.2048 13.4221C21.359 13.3565 21.6432 13.4988 22.0507 13.3287C22.4187 13.1752 22.974 12.2877 23.0976 11.9609C23.121 11.9629 23.1775 11.9765 23.2034 11.9819C23.251 12.0328 23.3114 12.1291 23.3117 12.2014C23.3159 13.2711 22.671 13.6635 21.7007 13.8719C21.7067 14.1881 21.7116 14.3857 21.5746 14.6835C21.2872 15.3081 20.5037 15.7493 19.8662 15.9324C19.5537 16.0222 19.0714 16.0904 18.7825 16.2027C17.9258 16.5359 16.7613 17.458 16.66 18.4237C16.6183 18.8207 16.6893 19.2774 16.519 19.6511C16.4725 19.7531 16.4102 19.7583 16.3174 19.7875Z" fill="#020302"/>
<path d="M12.3365 15.103C12.1376 15.1041 11.7841 15.1727 11.6077 15.1129C11.5297 14.9406 11.546 12.839 11.5628 12.5191C11.7478 12.5424 12.0933 12.5193 12.2945 12.5117L12.3253 14.2241C12.3301 14.4576 12.3585 14.8967 12.3365 15.103Z" fill="#FEFEFE"/>
<path d="M31.6462 18.1946C31.61 18.3047 31.5713 18.4119 31.5063 18.5093C31.1333 19.0679 30.0308 18.7228 29.6104 18.3903C28.7399 17.7018 28.7439 16.3808 28.4618 15.4003C28.3988 15.181 27.891 14.9852 27.8594 14.746L27.9064 14.6868C28.0182 14.6291 28.068 14.6338 28.1907 14.6284C28.1958 14.628 28.201 14.6274 28.2061 14.627C29.1354 14.732 28.8809 16.1452 29.0676 16.7809C29.3553 17.7609 29.8885 18.363 30.9148 18.4699C31.4386 18.156 31.1581 17.8268 31.3899 17.6459C31.6289 17.6593 31.6276 18.0112 31.6462 18.1946Z" fill="#020302"/>
<path d="M46.7806 15.832C46.5798 15.8799 46.3685 15.8151 46.2299 15.6629C46.0908 15.5108 46.0457 15.2953 46.1122 15.1005C46.1787 14.9057 46.3467 14.7624 46.5496 14.7265C46.7403 14.6928 46.935 14.7584 47.0662 14.9005C47.197 15.0425 47.2464 15.2414 47.1965 15.4279C47.1427 15.6286 46.9831 15.7837 46.7806 15.832Z" fill="#FEFEFE"/>
<path d="M4.38514 16.0647C4.08221 16.1415 3.77381 15.9604 3.69451 15.659C3.61526 15.3577 3.79476 15.0491 4.09651 14.9678C4.25603 14.9249 4.42634 14.9532 4.56325 15.0454C4.70015 15.1375 4.79007 15.2844 4.80971 15.4479C4.84365 15.7305 4.66201 15.9945 4.38514 16.0647Z" fill="#FEFEFE"/>
<path d="M11.5723 15.6263C11.7851 15.6297 11.9438 15.6217 12.156 15.6071C12.2508 15.6032 12.2534 15.5865 12.3154 15.6287C12.3236 15.792 12.353 15.9338 12.3498 16.1011C12.3388 16.6823 11.9953 17.1399 11.6838 17.6001C11.6479 17.6393 11.6698 17.6276 11.6189 17.6366C11.5874 17.5615 11.5811 15.8863 11.5723 15.6263Z" fill="#FEFEFE"/>
<path d="M28.5931 20.0565C27.5058 19.161 27.1728 18.0856 27.4481 16.7692C27.4538 16.7419 27.5503 16.6197 27.5708 16.5938C27.8811 16.6192 27.7078 16.9927 27.7141 17.1978C27.7683 18.3476 28.3892 19.9448 29.7688 19.9018C30.6968 19.8729 31.9104 20.736 32.788 20.1431C33.1568 19.894 32.9782 19.4642 33.0167 19.1372C33.2348 18.8244 33.4901 19.3462 33.5068 19.5834C33.5631 20.3861 32.7948 20.4937 32.3589 20.9382C32.2821 21.0165 32.4633 21.6689 32.3322 21.8558C32.1537 21.8054 32.0266 21.9384 31.9601 21.64C31.89 21.326 31.8934 21.1539 31.664 20.9158C30.9665 20.5581 30.1358 20.0921 29.3021 20.3059C28.4617 20.5152 27.8914 21.1808 27.4368 21.8731C27.2966 22.0865 27.1942 22.5026 26.9413 22.5681C26.5237 22.4765 26.8478 21.9274 26.9664 21.7166C27.3852 20.9724 27.9662 20.5909 28.5931 20.0565Z" fill="#020302"/>
<path d="M20.3558 22.7791C20.1319 22.7531 19.7326 22.7526 19.5651 22.6344C19.5534 22.6237 19.4185 22.5299 19.4184 22.5299C19.3158 22.6206 19.2164 22.7163 19.1119 22.8047C19.0272 22.8763 18.9363 22.9688 18.8416 23.0255C18.534 23.2096 18.1903 23.3506 17.8342 23.4046C17.722 23.4215 17.6014 23.4147 17.4885 23.4294C17.2398 23.4894 16.7824 23.2327 16.7754 22.9613C16.8152 22.9238 16.8282 22.9089 16.8857 22.9028C16.9999 22.8907 17.133 22.922 17.2486 22.932C17.5336 22.9565 17.8166 22.9537 18.0987 22.9033C18.3883 22.8516 18.7429 22.7268 18.9989 22.5769C19.079 22.53 19.1372 22.4501 19.2174 22.4078C19.2712 22.3794 19.3069 22.3781 19.3635 22.3984C19.613 22.4877 20.5647 22.4014 20.8387 22.3344C21.2345 22.2375 21.5816 21.9929 21.7875 21.6405C22.096 21.1129 22.1169 20.4056 21.9617 19.8266C21.9329 19.7192 21.8856 19.5695 21.7852 19.5111C21.4024 19.6796 19.5969 19.4268 20.1394 18.793C20.2282 18.8133 20.3798 18.9076 20.456 18.9619C20.845 19.2386 21.1515 19.1912 21.6131 19.1589C21.7811 19.0124 21.9657 18.7884 22.2002 18.8565C22.3731 19.1637 22.4203 21.0948 22.3942 21.5428C22.3888 21.6347 22.1864 22.0024 22.124 22.1051C22.477 23.111 22.5825 23.9416 22.5486 25.0023C22.5401 25.2693 22.5236 26.1258 22.1082 26.1116C22.0252 26.0433 21.9724 25.8919 22.0281 25.7913C22.0463 25.7585 22.0862 25.6891 22.0868 25.6518C22.1017 24.7155 22.3252 23.5442 21.7606 22.7275C21.7399 22.6994 21.6215 22.6006 21.6137 22.601C21.2482 22.6182 20.7162 22.8079 20.3558 22.7791Z" fill="#020302"/>
<path d="M16.3701 27.7012L16.3533 27.7239C16.1917 27.787 15.9013 27.5123 15.7724 27.4071C14.8473 26.6523 13.758 26.1057 12.8725 25.3002C12.6049 25.0566 12.31 24.3365 12.4957 24.0088C12.8462 24.0519 13.057 24.686 13.31 24.9373C13.6761 25.3515 14.186 25.6164 14.603 25.9548C15.1473 26.3967 15.7257 26.6722 16.2959 27.0667C16.4034 27.1411 16.5159 27.3094 16.5212 27.4446C16.526 27.5658 16.4507 27.6191 16.3701 27.7012Z" fill="#020302"/>
<path d="M18.7067 25.4154C18.6484 25.3618 18.5156 25.2402 18.5138 25.1641C18.5034 24.7297 19.2849 24.58 19.5916 24.5439C20.1879 24.4364 21.1852 24.9767 20.9888 25.7314C20.9805 25.7635 20.9521 25.7617 20.9208 25.771C20.6714 25.6831 20.5213 25.2457 20.2202 25.1007C19.4872 24.8606 19.2865 25.021 18.7067 25.4154Z" fill="#020302"/>
<path d="M4.84929 26.6947C4.64604 26.7342 4.43736 26.6607 4.304 26.5029C4.17064 26.3451 4.13359 26.1276 4.20716 25.9348C4.28077 25.7419 4.45345 25.604 4.65837 25.5743C4.96476 25.53 5.25068 25.7374 5.30255 26.0417C5.35438 26.3459 5.15318 26.6357 4.84929 26.6947Z" fill="#FEFEFE"/>
<path d="M23.4302 30.2844C23.4135 30.2886 23.3776 30.2947 23.363 30.2946C22.093 30.2845 20.8391 28.9431 20.7886 27.7039C20.7755 27.3835 20.791 26.3819 20.9871 26.1543L21.0565 26.1737C21.4004 26.4461 21.5633 27.6706 21.5776 28.1174C21.585 28.3475 21.5708 28.5347 21.6168 28.7778L21.6249 28.8192C22.0187 29.2185 22.4957 29.6371 23.0347 29.8285C23.2257 29.8963 23.6796 29.8952 23.7708 30.0733C23.7258 30.1867 23.5392 30.2427 23.4302 30.2844Z" fill="#020302"/>
<path d="M12.4061 28.8565C12.2001 28.8697 11.9014 28.9129 11.7232 28.8264C11.6237 28.7108 11.6311 26.5728 11.623 26.2637C11.6477 26.282 12.3134 26.8951 12.3066 26.889C12.4806 27.0427 12.4602 28.6475 12.4061 28.8565Z" fill="#FEFEFE"/>
<path d="M38.8744 30.9511C38.8666 30.636 38.8152 28.286 38.8413 28.2006C38.9363 27.8901 39.2296 27.5311 39.4329 27.2773C39.4448 27.3482 39.4185 28.0825 39.4198 28.2372C39.4259 29.0055 39.4524 29.7734 39.4991 30.5402C39.5048 30.6413 39.5817 31.7356 39.5727 31.7628L39.5302 31.7724C39.4403 31.7144 39.3927 31.6402 39.3259 31.5558C39.1759 31.3186 38.9763 31.1246 38.8744 30.9511Z" fill="#FEFEFE"/>
<path d="M14.9008 30.9C14.8137 30.713 14.6729 30.4643 14.6873 30.2661C14.6979 30.2481 14.7086 30.2301 14.7193 30.2121C15.1691 30.1888 15.7587 30.4039 16.1854 30.2718C16.2452 30.2538 16.3323 30.1739 16.3385 30.11C16.4027 29.4508 14.7801 29.8288 14.6049 29.6309C14.4909 29.5022 14.6381 28.7681 14.6829 28.5459C15.0871 28.673 15.5103 28.6588 15.8737 28.8274C16.2517 29.0027 16.5935 29.3835 16.9109 29.659C17.237 29.9419 17.5919 30.19 17.9698 30.3992C18.5002 30.6874 18.662 30.6572 19.205 30.7989C19.5205 30.8812 20.0708 31.0692 20.3802 31.1802C20.6464 31.2756 21.0826 31.7211 21.3833 31.8826C21.571 31.9834 21.9945 32.1114 22.0972 32.2132C22.0849 32.2689 22.0568 32.3071 22.0041 32.3384C20.8806 33.0066 19.4333 33.3009 18.1349 33.1635C17.9968 33.1489 17.6074 33.0725 17.5294 32.9674C17.6292 32.5845 19.2039 32.4918 19.3771 32.0068C19.4329 31.8503 19.47 31.688 19.2798 31.6091C19.0611 31.6217 18.8916 31.7952 18.6777 31.9147C18.3265 32.0908 18.1203 32.1137 17.759 32.232C17.4276 32.3433 17.1085 32.4884 16.8069 32.6649C16.5525 32.5918 16.4336 32.5407 16.2103 32.4024C16.7556 32.219 17.6065 32.09 17.9238 31.5316C17.9504 31.4848 17.9562 31.3884 17.9219 31.35C17.6279 31.0194 17.5465 31.367 17.3263 31.4715C16.9567 31.6498 16.5527 31.7505 16.1657 31.8669C15.5965 32.038 15.557 31.9713 15.2736 31.4662C15.6123 31.4603 16.8471 31.4142 16.927 31.0242C16.906 30.9146 16.8075 30.7928 16.6948 30.7968C16.0944 30.8179 15.5072 30.919 14.9008 30.9Z" fill="#FEFEFE"/>
<path d="M19.5091 34.414C19.3049 34.5159 15.3693 34.4532 14.7879 34.5149C14.2488 34.5722 12.9877 34.5459 12.3929 34.537C11.6385 34.5256 11.7447 33.2183 11.7408 32.81L11.7246 31.1514C11.7218 30.9073 11.6811 29.5966 11.7195 29.442C11.9651 29.4333 12.2108 29.4306 12.4565 29.4341C12.4797 30.1784 12.4605 30.929 12.4779 31.6664C12.4939 32.3441 12.3322 33.3154 13.0068 33.7048C13.3853 33.9232 13.8598 33.8499 14.2799 33.8387L15.609 33.8081C16.9509 33.7714 18.6049 33.7299 19.9471 33.7732C19.9504 33.9657 20.0165 34.2733 19.8786 34.4058C19.7677 34.4536 19.6355 34.4256 19.5091 34.414Z" fill="#FEFEFE"/>
<path d="M35.2374 30.1067C36.098 30.0038 36.3074 30.066 37.1616 29.6534C37.1808 29.6527 37.2104 29.6605 37.2308 29.6646C37.2361 29.7583 37.115 30.2904 37.0873 30.4363C36.6697 30.451 36.2497 30.5135 35.8334 30.5554C35.6331 30.5756 35.2529 30.5454 35.1021 30.6589C34.827 31.1993 36.5283 30.7183 36.8969 30.8314L36.9294 30.8416C36.8039 31.2335 36.7233 31.3378 36.4995 31.6764C36.3115 31.5711 36.2226 31.5392 36.0051 31.5255C35.8944 31.4798 35.3801 31.4037 35.2363 31.3794C34.7104 31.2907 34.1939 31.2177 33.6719 31.1012C34.0471 30.8843 34.4654 30.7401 34.8058 30.4657C34.9514 30.3482 35.0946 30.2276 35.2374 30.1067Z" fill="#FEFEFE"/>
<path d="M29.4613 32.0806C30.4255 32.4857 31.5966 32.4967 32.4454 31.8323C32.6767 31.6513 32.8379 31.445 33.0893 31.2868L33.1246 31.2647C33.2064 31.2573 35.1962 31.697 35.4031 31.7526C35.6208 31.811 35.9818 31.8457 36.2137 31.9008C36.2755 31.9155 36.269 31.932 36.2951 31.9823C36.2767 32.1755 35.9734 32.4245 35.8278 32.5461C35.6132 32.4426 33.2806 31.6172 33.2062 31.6209C33.1186 31.6252 33.0382 31.6671 32.9821 31.732C32.9862 32.1487 35.2427 32.5385 35.4504 32.9171C35.3726 33.0562 35.0818 33.3299 34.9568 33.4339C34.389 33.0915 33.8173 32.8325 33.2075 32.5738C32.9529 32.4657 32.509 32.145 32.2569 32.3362C32.2241 32.4395 32.2605 32.5032 32.3577 32.5568C32.8316 32.8184 33.3228 33.0265 33.8172 33.2441C34.1044 33.3705 34.3736 33.5389 34.6651 33.6689L34.6738 33.7248C34.5723 33.8916 34.251 34.0012 34.061 34.1201L34.0361 34.136C33.9856 34.0961 33.9342 34.0575 33.8819 34.02C33.6284 33.8384 31.7953 32.6694 31.6239 32.6971C31.5925 32.7297 31.576 32.7493 31.5645 32.7944C31.4613 33.1976 33.4129 33.948 33.5744 34.3042C33.5921 34.3433 33.5984 34.3632 33.5796 34.4013C33.4987 34.5655 33.0819 34.6658 32.9127 34.7174L32.904 34.7029L32.8891 34.6789C32.741 34.4346 31.6768 33.3018 31.4659 33.15C31.3573 33.1524 31.3295 33.1882 31.2836 33.279C31.2843 33.5417 31.8126 33.9975 32.0208 34.2241C32.2873 34.4485 32.4358 34.608 32.6486 34.8722C32.2828 34.9865 32.146 35.0188 31.7564 35.0322C31.6345 34.4688 31.2344 34.093 30.9328 33.6076C30.8052 33.4023 30.54 32.6794 30.2724 32.9021C30.0961 33.4069 31.4593 34.7889 31.464 35.0665C31.2476 35.151 30.4086 35.144 30.385 35.0789C30.2644 34.746 29.6114 33.1356 29.2672 32.8889C29.1675 32.8703 29.214 32.8644 29.1226 32.9057C28.9254 33.2021 30.0505 34.7497 29.9756 35.039C29.8725 35.0665 29.4544 34.9506 29.3272 34.9182C29.1964 34.5845 28.7166 33.0996 28.5188 32.8961C28.4335 32.8628 28.4288 32.8576 28.3417 32.8724C28.1173 33.1374 28.8838 34.2622 28.9054 34.6131L28.8603 34.654C28.7538 34.6519 28.5695 34.4981 28.4752 34.4325C27.8595 34.0039 27.2403 33.2927 26.8906 32.6288C27.5556 32.6192 28.1466 32.545 28.7746 32.3288C28.9927 32.2536 29.2482 32.1353 29.4613 32.0806Z" fill="#FEFEFE"/>
<path d="M34.8105 34.2257C34.9743 34.0768 35.3722 33.6903 35.5539 33.6189C35.8649 33.4968 36.6038 33.5055 36.9348 33.4974C37.8548 33.4748 39.0022 33.6695 38.906 32.3447C38.8908 32.1364 38.8879 31.9311 38.8984 31.7227C39.1332 31.9962 39.3279 32.2433 39.5467 32.5304C39.6046 33.0905 39.7355 34.0452 38.8819 34.1385C38.4477 34.1859 37.9111 34.1651 37.4644 34.1749L36.2341 34.2024C36.056 34.2067 35.758 34.2261 35.5919 34.2077C35.5146 34.2284 34.9658 34.2112 34.8105 34.2257Z" fill="#FEFEFE"/>
<path d="M23.4258 33.6645L26.1968 33.6204C26.42 33.6246 26.6648 33.6123 26.8896 33.6055C27.093 33.8098 27.2737 34.0385 27.4572 34.2611C26.5973 34.3005 25.6109 34.3013 24.7423 34.3176C24.4686 34.3108 23.6539 34.3637 23.4475 34.2796C23.4096 34.1448 23.4246 33.8197 23.4258 33.6645Z" fill="#FEFEFE"/>
<path d="M21.5402 34.3845C21.2247 34.3765 20.8794 34.4501 20.5763 34.3595C20.4061 34.3087 20.4529 33.837 20.5191 33.7475C20.7004 33.6984 21.8966 33.6834 22.1581 33.6736C22.3496 33.6738 22.6834 33.6466 22.8545 33.701C22.9646 33.736 22.9062 34.2127 22.8522 34.3124C22.7092 34.4136 21.805 34.3706 21.5402 34.3845Z" fill="#FEFEFE"/>
<path d="M34.3389 38.7028C34.1075 38.6972 33.8562 38.669 33.7535 38.4372C33.5581 37.9962 33.7483 37.6876 34.1328 37.5065C34.3862 37.4897 34.4117 37.4843 34.6175 37.6264L34.7796 37.9922C34.7531 38.3973 34.7646 38.5821 34.3389 38.7028Z" fill="#FEFEFE"/>
<path d="M17.3481 38.942C17.1333 38.8742 16.9791 38.7954 16.8963 38.5673C16.8406 38.4135 16.8518 38.2436 16.9271 38.0983C17.0534 37.8595 17.2277 37.8093 17.4621 37.7393C17.9197 37.8662 17.9832 38.2093 17.9302 38.6228C17.7157 38.8744 17.6729 38.898 17.3481 38.942Z" fill="#FEFEFE"/>
</g>
<defs>
<clipPath id="clip0_167_357">
<rect width="51" height="42" fill="white"/>
</clipPath>
</defs>
</svg>
