<svg width="40" height="42" viewBox="0 0 40 42" fill="none" xmlns="http://www.w3.org/2000/svg">
<path d="M23.8221 34.746C24.0649 34.0136 24.2975 33.4233 24.6916 32.7595C25.23 31.8527 25.7268 30.9152 26.2434 29.9968C26.6858 29.2104 27.1904 28.4361 27.657 27.6616C28.3562 26.4824 28.9293 25.2328 29.3669 23.9335C30.2797 21.2339 30.9787 16.9903 30.8496 14.1817C30.6562 9.97238 29.5126 4.13506 25.6197 1.76011C23.6986 0.588082 21.3154 0.406279 19.1504 0.953059C16.6001 1.58744 14.4096 3.21694 13.0676 5.47805C12.3859 6.62573 11.947 7.90441 11.5242 9.16503C11.2633 9.94287 11.0038 10.6697 10.8328 11.4788C10.4116 13.5047 10.7998 15.6489 11.3038 17.6232C11.4587 18.2302 11.6736 18.7759 11.8646 19.3678C11.9044 19.4911 11.911 19.6765 11.8241 19.7814C11.3779 20.3202 11.0701 19.187 10.9757 18.9027C10.4322 17.2725 10.1019 15.5788 9.99311 13.8638C9.87101 11.8566 10.3091 10.6094 10.948 8.73358C11.6594 6.64465 12.2452 5.12441 13.7303 3.45317C15.1935 1.80937 17.1438 0.677118 19.2961 0.221978C19.8898 0.100248 20.4502 0.0514364 21.0526 0.0160545C21.4785 -0.0303083 22.3776 0.0331095 22.8097 0.0876014C24.9527 0.357866 26.9595 1.51966 28.26 3.26528C31.1323 7.12064 31.8883 13.293 31.3031 17.9447C31.0635 19.849 30.5003 22.7537 29.8548 24.5084C29.4375 25.6555 28.9233 26.7649 28.3178 27.8246C27.894 28.5673 27.3825 29.2891 26.9722 30.0353C26.4034 31.2339 25.4657 32.4884 24.9371 33.6712C24.2281 35.2578 24.0025 36.6512 23.0782 38.2144C21.4589 41.0587 18.372 42.3532 15.1826 41.9173C10.9239 41.3787 11.0088 36.7529 10.7743 33.5008C10.746 33.1083 10.3362 31.1978 10.6759 30.9782C11.1555 30.6681 11.2254 31.7571 11.2639 32.0255C11.3891 32.9161 11.4792 33.8112 11.534 34.7089C11.6411 36.3207 11.6839 37.8486 12.4467 39.3152C12.8999 40.1864 13.4765 40.7959 14.4482 41.0746C16.1809 41.5715 18.1639 41.3585 19.7675 40.5433C22.1606 39.2995 23.051 37.1613 23.8221 34.746Z" fill="black"/>
<path d="M29.0239 8.56915C28.8368 8.4999 28.757 8.17541 28.6747 7.99115L28.2305 7.02198C27.6405 5.76172 26.8198 4.62323 25.8109 3.66538C25.5803 3.44409 24.7008 2.7378 24.6223 2.59296C24.6128 2.49701 24.624 2.48646 24.6651 2.39453C24.776 2.4115 25.0702 2.59056 25.1876 2.65986C26.7574 3.58608 28.1963 5.25709 28.7921 6.98848C28.9104 7.33207 29.169 8.28237 29.0239 8.56915Z" fill="black"/>
<path d="M14.2912 15.4537C14.7009 15.1136 15.6257 14.8849 16.1517 14.826C17.4297 14.6795 18.7128 15.0545 19.7112 15.8663C21.3795 17.2194 22.4561 19.5854 22.6529 21.6866C22.834 23.6207 22.4968 26.2127 20.6643 27.2943C20.0434 27.6607 19.2881 27.8391 18.7648 28.2773C18.4855 28.6122 18.3651 29.1604 18.1535 29.5336C17.6212 30.4724 16.792 31.4176 15.6625 31.5494C14.9973 31.627 14.396 31.2568 14.2057 30.6087C13.7377 29.015 15.4289 27.647 15.3014 26.0769C15.1776 24.9407 14.1046 24.3042 14.0198 23.1347C13.9599 22.3082 14.4283 21.7278 15.2812 21.7007C16.5203 21.6613 17.5432 22.7632 18.7874 22.7043C19.4825 22.6714 19.6099 22.1408 19.5382 21.5507C19.4998 21.1884 19.3542 20.4665 19.0474 20.2318C18.5514 19.8523 17.7105 19.8608 17.1065 19.7012C16.5346 19.554 16.0025 19.2816 15.5484 18.9038C14.0425 17.6306 13.2338 15.1217 13.1371 13.2156C12.8991 8.52507 15.3105 3.99544 20.3375 3.60953C21.756 3.46482 23.4065 3.92107 24.5597 4.76495C26.8175 6.41718 28.0604 9.79528 28.5097 12.4607C28.8202 14.2752 28.7267 16.1103 28.6016 17.9297C28.4001 20.8606 27.8715 23.777 26.4495 26.38C25.9871 27.2266 25.4314 27.7742 24.8502 28.5241C24.5058 28.9717 24.205 29.4512 23.952 29.9561C23.7312 30.3973 23.5095 30.9886 23.3364 31.4593C22.8086 32.894 22.3789 34.2426 21.4724 35.5015C20.998 36.1682 20.3998 36.7374 19.7105 37.1779C19.5737 37.2643 19.338 37.4484 19.1987 37.3247C19.1264 37.076 19.7802 36.6479 19.9791 36.4708C20.3566 36.1348 20.6292 35.8306 20.9479 35.4412C22.3829 33.688 22.7131 31.4042 23.7461 29.4412C24.1404 28.5387 24.8361 27.9487 25.3745 27.1547C26.8585 24.9661 27.6304 21.9433 28.07 19.3668C28.3335 17.8224 28.2924 16.1381 28.1912 14.6181C28.0483 12.4724 27.6905 10.2535 26.7319 8.32134C26.6524 8.16297 26.4767 7.80127 26.3478 7.68807C25.67 7.09268 24.7865 6.67242 23.941 6.3711C21.6362 5.6378 19.6006 5.79006 17.4536 6.87067C19.995 7.09594 21.986 8.16301 23.4687 10.2765C24.6785 12.0304 25.3928 14.0784 25.5365 16.2047C25.5699 16.6928 25.659 17.9358 25.2284 18.2309C25.0816 18.2231 25.0677 18.0308 25.0592 17.9057C25.0347 17.5445 25.0464 17.1729 25.0364 16.8108C25.0231 16.3861 24.9941 15.962 24.9497 15.5395C24.5039 11.3975 21.8279 7.45497 17.3698 7.31995C17.1866 7.31443 17.0066 7.31013 16.8234 7.31035C15.8528 7.84088 14.7663 8.98295 14.198 9.92234C14.0875 10.105 14.0111 10.5457 13.9681 10.7665C17.0482 10.6943 20.3453 11.7051 22.2094 14.3024C23.3298 15.854 24.1269 18.2188 24.2833 20.1343C24.4531 22.2136 24.2497 24.7915 23.5174 26.7675C23.2576 27.4688 22.8568 28.0502 22.342 28.5949C21.9135 29.0983 21.1085 29.3251 20.8093 29.9184C20.725 30.0854 20.7021 30.404 20.6861 30.5766C20.5049 32.5379 20.1163 35.1711 17.8475 35.7297C17.7737 35.7479 17.6983 35.6947 17.6499 35.6492C17.6748 35.4307 18.093 35.2716 18.2743 35.1526C19.5265 34.331 19.8722 32.907 20.0748 31.5187C20.1769 30.8192 20.1434 29.9973 20.5445 29.3935C20.9428 28.8189 21.7311 28.5632 22.1567 27.9901C23.6644 26.1267 23.8683 22.4944 23.7164 20.2109C23.5655 17.9409 22.4674 14.955 20.7202 13.4545C18.942 11.9274 16.1803 11.1607 13.8579 11.357C13.7402 12.776 13.7554 14.0967 14.2912 15.4537ZM16.3491 15.4655C15.7426 15.5127 15.1965 15.6506 14.6656 15.9527L14.6476 16.0039C14.6438 16.0037 15.3793 15.7196 15.5294 15.6818C17.2632 15.2097 18.7283 15.8384 19.8971 17.1146C21.9182 19.3213 22.8497 23.986 20.6718 26.341C19.8902 27.1862 18.0161 27.1115 17.6428 28.7215C17.534 29.1906 16.8548 30.1074 16.4407 30.4059C15.9009 30.7731 15.627 30.9337 15.0129 30.6602C15.032 30.7172 15.1551 30.8047 15.2092 30.8198C16.2912 31.123 17.3648 29.6845 17.6944 28.819C17.9881 28.0477 18.2971 27.5922 19.0993 27.273C20.2052 26.833 21.1172 26.3609 21.5466 25.1568C22.2608 23.3322 22.0763 21.007 21.3 19.2248C20.6597 17.7547 19.6321 16.324 18.0924 15.7112C17.6326 15.5282 16.842 15.3846 16.3491 15.4655Z" fill="black"/>
<path d="M2.84607 29.6073C2.53867 29.4953 2.21647 28.7494 2.0594 28.4553C0.948855 26.3761 0.173718 24.1029 0.0281367 21.7372C-0.136264 19.1089 0.422084 16.4857 1.64251 14.1526C1.92743 13.6036 2.30143 12.9408 2.71135 12.4756C2.79889 12.4804 2.79703 12.4822 2.8743 12.5119C2.9812 12.7073 2.39435 13.5052 2.27193 13.7419C1.09928 16.0104 0.356079 18.5387 0.420229 21.1122C0.492115 23.9962 1.55027 26.7077 2.97333 29.1795C3.09661 29.3937 3.01966 29.4797 2.84607 29.6073Z" fill="black"/>
<path d="M37.3018 29.5745C37.152 29.5877 37.1018 29.6056 36.9982 29.4897C36.9213 29.25 37.1846 28.8888 37.3126 28.6676C38.1138 27.2742 38.7196 25.7769 39.1118 24.2179C39.8886 21.0155 39.5606 17.6444 38.1812 14.6521C37.9858 14.2386 37.7691 13.8356 37.532 13.4446C37.3836 13.2041 37.2244 12.9653 37.0751 12.7251C37.0113 12.6226 37.0353 12.6104 37.0638 12.5044C37.1131 12.5018 37.2307 12.4943 37.2642 12.5304C38.4015 13.7635 39.1493 15.7755 39.5443 17.3674C40.607 21.6523 39.5506 25.8629 37.3018 29.5745Z" fill="black"/>
<path d="M34.9214 27.3474C34.8439 27.3372 34.7652 27.3248 34.7031 27.2726C34.6968 27.2672 34.6907 27.2613 34.6851 27.2551C34.6643 27.2321 34.6486 27.2016 34.6398 27.1719C34.5896 27.0004 35.2013 25.9062 35.3031 25.6777C35.7788 24.5977 36.1001 23.456 36.2576 22.2863C36.508 20.3679 36.2277 18.4176 35.4473 16.6476C35.234 16.1685 34.9969 15.7589 34.7026 15.3252C34.5153 15.0493 34.338 14.906 34.6036 14.6484C34.7922 14.7001 34.8699 14.8043 34.9793 14.9611C37.387 18.4103 37.2332 23.0014 35.3432 26.6445C35.2384 26.8465 35.0941 27.2201 34.9214 27.3474Z" fill="black"/>
<path d="M5.24131 27.3507C5.15948 27.3468 5.13378 27.344 5.05339 27.329C4.80529 27.1391 4.48237 26.3355 4.34702 26.0334C3.25715 23.6529 2.97716 20.9804 3.54998 18.4255C3.73895 17.606 4.57267 15.1804 5.2747 14.7402C5.76754 14.8201 5.42381 15.1477 5.27859 15.3727C3.23367 18.5415 3.24814 22.7084 4.82113 26.0721C4.95241 26.3528 5.30044 26.8789 5.35265 27.1525C5.33016 27.2601 5.31781 27.2655 5.24131 27.3507Z" fill="black"/>
<path d="M16.4395 30.4059C16.8537 30.1074 17.5329 29.1906 17.6416 28.7215C18.015 27.1115 19.8891 27.1862 20.6707 26.341C22.8485 23.986 21.9171 19.3213 19.896 17.1145C18.7272 15.8384 17.2621 15.2097 15.5283 15.6818C15.3782 15.7196 14.6427 16.0037 14.6465 16.0039L14.6645 15.9527C15.1953 15.6506 15.7415 15.5127 16.348 15.4654C16.8409 15.3846 17.6315 15.5282 18.0913 15.7112C19.6309 16.324 20.6585 17.7547 21.2989 19.2247C22.0751 21.007 22.2596 23.3322 21.5455 25.1568C21.1161 26.3608 20.2041 26.833 19.0981 27.273C18.2959 27.5922 17.987 28.0477 17.6933 28.819C17.3636 29.6845 16.2901 31.123 15.208 30.8198C15.154 30.8047 15.0309 30.7172 15.0118 30.6602C15.6258 30.9337 15.8998 30.7731 16.4395 30.4059Z" fill="white"/>
<path d="M7.515 24.9613C7.18099 24.9838 6.95253 24.5091 6.80881 24.2434C5.74278 22.2724 5.81706 19.7517 6.8611 17.7868C7.01673 17.4939 7.23786 17.1358 7.48813 16.9202C7.5634 16.9184 7.59928 16.9251 7.67216 16.9358C7.76178 17.0041 7.73084 16.9617 7.76879 17.0674C7.74102 17.3362 7.29871 17.8694 7.15308 18.162C6.2586 19.9593 6.22553 22.2913 7.19873 24.0636C7.29681 24.2422 7.57503 24.6007 7.62299 24.7633C7.61371 24.8647 7.58652 24.8798 7.515 24.9613Z" fill="black"/>
<path d="M32.6684 25.0246C32.616 25.0225 32.5719 25.0153 32.5201 25.0084C32.4263 24.9391 32.4602 24.9822 32.4153 24.8739C32.4179 24.6153 32.8912 23.9894 33.0447 23.6227C33.7327 21.978 33.6585 20.1331 32.9617 18.5173C32.8629 18.2857 32.7504 18.0603 32.6246 17.8423C32.5339 17.6867 32.354 17.4088 32.293 17.2527C32.3128 17.1322 32.3226 17.1204 32.4071 17.0313C32.5677 17.0303 32.6451 17.0561 32.7401 17.1977C33.9197 18.9548 34.2771 21.2866 33.6326 23.3053C33.4428 23.8996 33.0629 24.6107 32.6684 25.0246Z" fill="black"/>
<path d="M26.0205 35.5898C25.425 35.6783 25.8928 34.5185 26.011 34.2354C26.542 33.0031 27.2897 31.865 28.0301 30.7491C28.3346 30.2904 28.6969 29.6977 29.0392 29.2852C29.1887 29.2909 29.23 29.2901 29.3143 29.4187C29.3326 29.6374 28.6853 30.4998 28.513 30.7712C27.8727 31.7801 27.0855 32.8988 26.5844 33.9735C26.4784 34.1989 26.3851 34.43 26.3048 34.6658C26.217 34.9312 26.1544 35.4246 26.0205 35.5898Z" fill="black"/>
<path d="M15.6241 39.6933C14.0713 39.8042 12.8032 38.4136 12.8459 36.9081C12.8524 36.6798 12.8042 36.4919 12.9607 36.2979C13.0678 36.2995 13.1972 36.305 13.2198 36.435C13.3009 36.9024 13.2556 37.2997 13.4383 37.7598C13.7439 38.529 14.3658 38.9127 15.0967 39.2186C15.2963 39.3021 15.6332 39.3174 15.7194 39.5296C15.7024 39.6219 15.6942 39.6244 15.6241 39.6933Z" fill="black"/>
</svg>
