<svg width="675" height="533" viewBox="0 0 675 533" fill="none" xmlns="http://www.w3.org/2000/svg">
<path d="M344.617 29.5533C343.533 25.2714 344.36 4.50565 347.086 0.907227L347.825 0.956867C352.144 6.6256 350.299 37.2435 350.975 46.4099C351.976 59.9963 351.991 75.7287 352.101 89.4542C351.996 93.9912 352.281 100.047 351.707 104.412C363.852 105.061 375.624 106.347 387.34 107.013L387.553 106.291C389.356 100.02 391.659 80.6407 393.876 77.2469L394.785 77.0866C397.893 80.7927 393.025 102.906 391.409 108.026C400.302 109.2 410.114 111.431 418.598 112.364C430.459 86.8432 435.516 57.4709 443.238 30.5102C443.719 28.8301 444.435 26.8705 445.725 25.6731L446.764 25.5586C447.437 26.1351 448.295 26.591 448.152 27.5624C444.222 54.2405 435.492 90.1156 423.544 113.469C433.889 116.538 444.49 118.553 455.266 121.789C457.3 118.803 462.169 109.2 463.602 108.119C465.317 107.96 464.609 107.725 465.861 108.619C467.154 112.331 461.93 120.032 459.951 123.27C466.335 125.509 472.953 127.471 479.219 129.718C486.694 118.542 493.849 107.059 500.428 95.6743C504.217 89.1182 522.498 55.4976 526.638 52.643L527.663 52.6376C528.237 53.625 528.669 55.0363 528.16 56.1696C518.311 78.1465 505.003 99.844 492.696 120.547C490.905 123.561 486.521 129.173 484.624 131.376C490.35 133.779 506.014 141.108 510.895 142.572C514.028 139.54 525.673 127.18 529.688 127.634C531.622 130.827 518.045 142.869 515.537 144.84C525.104 149.315 533.448 153.836 542.65 158.314C549.568 153.522 553.433 150.655 559.676 145.063C565.975 139.476 572.019 133.61 577.792 127.481C580.852 124.258 592.204 111.181 595.603 111.049C598.337 112.385 598.243 114.558 596.444 116.719C582.462 133.514 566.728 148.526 549.22 161.528C561.278 168.584 571.87 175.864 583.546 182.937C587.061 179.765 591.193 177.194 594.865 174.047C601.255 168.571 607.297 162.853 613.407 157.071C615.352 155.231 618.077 151.897 620.403 151.525C622.112 151.894 621.524 151.441 622.387 152.699C622.71 160.242 595.268 182.348 588.302 186.363C594.3 190.017 604.721 197.738 609.999 202.353C627.076 197.184 642.547 189.779 657.072 179.639C659.759 177.763 665.324 173.887 668.4 174.504C670.377 177.58 667.369 179.793 664.995 181.517C657.859 186.71 650.096 191.897 642.364 196.099C634.22 200.42 625.778 204.134 617.094 207.213C629.923 217.064 642.395 227.267 654.958 237.445C660.645 242.05 667.102 246.319 672.308 251.444C673.353 252.468 674.498 253.617 674.697 255.137C674.842 256.222 674.468 257.193 673.796 258.033C672.72 259.374 671.079 260.367 669.338 260.449C666.789 260.569 662.935 257.261 660.958 255.778C648.272 246.288 636.418 235.668 624.091 225.722C619.205 221.779 614.038 218.189 609.061 214.361C593.66 202.519 578.351 191.149 561.761 180.988C536.341 165.42 509.211 151.518 481.358 140.852C418.64 116.837 342.269 105.359 276.15 119.709C177.524 141.113 119.375 193.775 46.9011 258.508C42.8496 262.127 12.7557 287.943 9.75604 289.241C8.27909 289.881 6.58613 289.746 5.38778 288.598C4.52222 287.768 3.78946 286.331 3.76351 285.13C3.72382 283.27 7.98293 279.376 9.237 278.16C16.0577 271.543 23.76 265.672 30.9676 259.467C38.7256 252.788 46.1119 245.74 53.7317 238.914C48.9146 238.243 44.1281 237.529 39.3919 236.406C32.5415 234.782 4.5497 226.573 1.01266 221.876C0.66231 221.412 0.534841 220.934 0.421875 220.376C3.13 217.409 25.9254 226.549 30.5928 228.029C39.7461 230.931 50.1145 231.446 58.7877 234.23C72.9519 222.499 86.9192 210.531 100.683 198.332C84.1874 190.689 70.4842 183.181 57.0963 170.756C54.8858 168.704 49.2268 164.709 49.0703 161.623C52.4211 157.831 68.6752 173.948 72.026 176.43C82.7837 184.403 94.0207 188.798 105.967 194.429C113.294 188.352 125.312 178.225 133.253 173.649C127.978 170.954 101.602 156.776 101.362 151.554C102.313 150.28 101.712 150.681 103.179 150.246C108.669 152.916 115.928 157.736 121.316 160.992C126.69 164.239 132.12 167.05 137.403 170.181C148.872 162.438 165.982 151.013 178.156 144.762L177.781 144.385C174.378 141.013 165.344 133.863 161.405 130.58C153.905 124.332 119.255 87.4863 118.027 81.076C118.663 79.567 118.261 80.0878 119.891 79.1973C121.449 79.1141 122.853 79.8144 123.853 80.9729C143.047 103.209 160.48 124.608 185.024 141.597C188.529 138.73 202.756 132.407 207.563 130.605C204.542 127.746 200.855 124.915 199.85 120.898L200.298 120.114C203.852 120.242 208.032 126.667 209.885 129.43C218.51 126.214 227.221 123.231 236.007 120.489C242.842 118.376 250.871 116.258 257.463 113.769C242.328 94.1775 228.272 74.2396 216.144 52.5994C214.134 49.014 209.499 43.8149 211.477 40.0095C216.284 39.1008 233.407 70.9191 237.29 76.122C246.006 87.8009 253.598 101.825 263.555 112.596C278.845 109.583 292.449 107.594 307.706 105.381C306.528 100.072 303.334 88.5203 304.705 83.7672L305.275 83.3846C309.338 86.4637 310.819 99.7806 311.938 104.925C322.004 104.302 335.192 103.869 345.233 104.108C344.406 99.8432 344.576 88.1323 344.581 83.2754C344.598 67.6651 343.64 48.9552 344.652 33.5305C346.187 34.4668 345.477 34.4439 346.809 34.1522C347.836 32.5194 347.593 33.3946 347.499 31.4159C346.464 29.829 346.816 30.3338 344.617 29.5533Z" fill="#000001"/>
<path d="M364.717 423.471C359.359 424.027 350.561 424.032 344.944 424.194C316.892 424.98 288.842 422.563 261.336 416.993C253.915 415.472 245.7 413.237 238.227 411.41C214.82 405.886 191.882 398.531 169.625 389.412C156.82 384.081 144.56 377.83 132.216 371.535C113.935 362.211 95.8838 352.129 79.1359 340.219C68.7255 332.816 25.4917 299.839 24.4651 288.889C24.3376 287.535 25.4505 286.388 26.3176 285.466C30.6675 280.836 36.5967 276.946 41.5809 272.983C51.8524 264.73 62.1941 256.565 72.606 248.491C126.486 206.259 187.658 164.932 254.763 147.793C280.356 141.257 303.989 137.098 330.316 136.195C346.939 135.142 364.985 137.178 381.521 138.935C424.256 143.476 461.711 157.262 500.766 174.808C537.591 191.224 573.368 209.9 607.893 230.727C627.9 242.586 647.776 255.405 667.171 268.247C672.979 272.092 669.766 276.461 666.293 280.35C647.615 301.251 625.389 317.529 603.094 334.195C532.091 387.277 454.012 419.502 364.717 423.471ZM252.743 157.963C240.578 162.102 228.233 166.035 216.459 171.182C150.858 199.861 91.6262 244.464 36.5868 289.8C80.3587 336.72 138.501 367.428 198.037 389.793C207.969 393.525 219.411 395.737 229.58 398.991C258.609 407.609 288.455 412.477 318.668 414.121C337.2 415.13 353.459 413.665 371.727 412.658C450.931 408.29 514.303 382.024 579.689 338.304C591.903 330.099 603.824 321.465 615.429 312.418C620.489 308.541 625.618 304.674 630.541 300.631C638.876 293.787 645.936 285.54 653.538 277.955L656.782 274.459C636.189 259.386 615.998 247.085 593.989 234.197C566.729 217.979 538.63 203.219 509.809 189.978C486.369 178.961 458.116 166.911 433.363 159.066C447.021 171.772 456.925 183.267 465.315 200.199C491.693 253.431 489.751 316.994 448.729 362.31C404.079 411.631 317.706 419.618 263.506 382.175C256.969 377.659 249.128 372.363 243.405 366.99C219.773 344.807 205.287 315.17 200.861 283.16C194.225 237.847 216.826 185.704 253.44 158.337C252.904 157.947 253.159 158.016 252.743 157.963ZM336.404 174.374C283.608 177.862 234.732 217.039 239.488 273.569C240.395 284.341 243.019 294.917 247.958 304.563C245.185 294.004 238.808 269.44 243.009 259.489L243.673 259.121C246.053 261.684 250.789 292.676 253.695 299.949C259.653 314.863 265.479 329.514 277.316 341.29C278.981 342.951 283.6 348.624 285.32 348.967L285.506 348.401C283.62 345.795 281.522 343.711 279.459 340.845C268.234 325.253 260.338 308.949 256.558 290.036C255.796 286.226 254.175 278.713 254.693 275.133L255.304 274.778C257.836 276.937 262.732 293.407 264.097 297.339C270.792 316.631 280.941 333.411 294.031 349.035C301.484 357.931 311.291 362.199 322.787 363.04L322.415 362.821C317.458 359.967 314.768 359.59 309.706 355.885C304.36 351.949 299.501 347.388 295.235 342.3C289.524 335.391 267.282 298.822 270.705 290.466C273.084 291.186 279.054 303.482 280.581 306.247C286.689 317.304 296.118 334.324 305.047 342.855C301.52 337.101 289.153 317.384 290.136 310.778L290.71 310.167C297.362 311.036 312.591 359.117 346.194 365.787C340.607 360.726 333.297 357.177 327.969 351.682C324.705 348.318 312.54 337.232 313.848 332.377C316.883 332.412 328.499 345.011 332.079 347.57C336.523 350.746 359.863 366.948 363.779 363.235C362.494 360.533 328.952 345.817 329.831 334.877C333.432 333.624 342.484 342.532 345.891 344.718C356.002 351.207 368.465 357.493 380.378 359.201C381.72 358.538 383.425 357.771 384.625 356.929C373.401 355.633 359.142 350.168 350.275 341.425C349.393 340.555 347.424 337.793 347.505 336.635C349.529 335.972 353.246 337.592 355.087 338.589C366.061 344.536 377.138 350.173 389.774 351.269C392.943 351.544 397.105 353.33 399.359 349.695C397.596 348.344 384.443 345.781 381.591 344.536C378.054 342.992 373.29 340.672 370.164 338.478C367.879 336.664 364.691 334.335 363.798 331.479L364.105 330.771C366.4 330.367 372.772 333.625 375.371 334.836C385.161 339.394 394.69 341.814 405.193 344.201C406.568 342.925 408.153 341.525 409.424 340.174C404.054 338.66 377.522 328.269 378.731 322.336C382.825 320.605 409.033 336.343 415.125 333.815L415.46 332.93C412.711 329.259 403.92 323.64 402.464 320.009L402.713 319.104C406.247 317.687 417.237 325.704 420.834 327.902C421.809 326.812 423.024 325.541 423.841 324.358C417.825 318.15 409.866 310.038 406.383 302.117C414.584 305.907 421.141 313.075 427.723 319.36C428.909 317.387 430.37 315.1 431.35 313.07C428.214 309.913 411.662 294.45 411.484 291.674C415.934 290.183 430.35 303.191 433.865 306.674C435.367 304.251 435.688 303.237 436.664 300.577C433.34 297.388 411.555 277.827 410.728 275.213L411.033 274.635C418.105 273.635 435.616 291.927 438.893 291.571C440.082 289.936 440.236 287.82 440.594 285.771C436.448 281.491 431.892 277.628 426.993 274.235C422.168 270.931 412.464 264.968 408.852 261.077L408.992 260.296C415.071 258.782 436.42 272.849 441.539 277.201C441.646 275.203 441.841 272.788 441.825 270.822C431.867 261.838 423.096 253.056 411.707 245.889C410.249 244.973 407.812 243.263 406.81 241.904L406.786 240.788C412.864 238.209 435.75 256.103 440.825 260.793C440.501 258.226 440.131 255.596 439.943 253.023C427.926 241.834 412.618 232.856 397.458 226.507C393.937 225.033 379.295 220.73 377.799 218.571C378.609 217.691 379.128 217.663 380.551 217.622C399.766 217.071 422.75 230.478 437.209 242.014C436.798 240.9 434.242 233.513 433.704 232.911C426.683 225.065 412.19 217.211 402.702 212.644C395.588 209.22 387.908 206.752 380.614 204.479C376.867 203.312 367.785 203.501 364.521 201.794L364.588 200.901C367.08 199.043 373.239 198.319 376.29 198.545C393.518 199.825 409.579 208.183 424.581 216.165C422.979 213.058 421.039 210.373 419.065 207.5L418.515 207.235C404.344 200.454 385.105 194.999 369.579 192.875C365.563 192.291 361.513 191.971 357.455 191.917C352.197 191.824 337.531 193.286 334.156 190.61L334.053 189.827C338.618 186.455 359.312 185.578 365.392 185.907C376.071 186.484 387.998 188.794 398.412 191.324L398.507 191.018C395.288 189.483 389.597 186.782 386.17 186.037C371.004 182.737 353.361 181.534 337.946 183.434C330.071 184.405 323.473 187.082 315.785 188.109C314.597 188.268 314.153 188.037 313.727 187.29C317.436 181.206 338.721 176.703 345.88 176.272C349.969 176.026 355.112 175.68 359.245 175.442C352.032 174.317 343.682 173.764 336.404 174.374Z" fill="#000001"/>
<path d="M36.5859 289.8C91.6254 244.464 150.858 199.862 216.458 171.183C228.232 166.036 240.577 162.103 252.742 157.964C253.158 158.017 252.904 157.948 253.439 158.338C216.826 185.704 194.224 237.848 200.86 283.161C205.286 315.17 219.772 344.808 243.405 366.991C249.127 372.363 256.968 377.659 263.505 382.176C317.705 419.619 404.078 411.632 448.728 362.31C489.75 316.995 491.692 253.432 465.314 200.2C456.924 183.268 447.02 171.773 433.362 159.067C458.115 166.912 486.368 178.962 509.808 189.979C538.629 203.22 566.728 217.98 593.988 234.197C615.997 247.086 636.188 259.387 656.782 274.46L653.538 277.956C645.935 285.541 638.875 293.788 630.54 300.632C625.617 304.674 620.488 308.542 615.428 312.419C603.823 321.465 591.902 330.099 579.689 338.305C514.302 382.024 450.93 408.29 371.727 412.658C353.458 413.666 337.2 415.13 318.667 414.122C288.454 412.477 258.608 407.61 229.579 398.992C219.41 395.738 207.968 393.525 198.037 389.794C138.5 367.429 80.3578 336.72 36.5859 289.8Z" fill="#FEFEFE"/>
<path d="M247.79 303.441C242.852 293.795 240.228 283.219 239.321 272.447C234.565 215.916 283.441 176.74 336.236 173.252C343.515 172.642 351.864 173.195 359.077 174.32C354.944 174.557 349.802 174.904 345.713 175.15C338.553 175.581 317.269 180.083 313.56 186.167C313.986 186.914 314.429 187.146 315.618 186.987C323.305 185.96 329.903 183.282 337.779 182.312C353.193 180.412 370.836 181.615 386.003 184.914C389.43 185.66 395.12 188.361 398.34 189.896L398.244 190.202C387.831 187.672 375.903 185.362 365.225 184.784C359.144 184.456 338.45 185.333 333.886 188.704L333.989 189.488C337.363 192.164 352.03 190.701 357.287 190.795C361.346 190.849 365.396 191.169 369.411 191.753C384.938 193.877 404.177 199.332 418.348 206.112L418.897 206.378C420.872 209.251 422.811 211.935 424.413 215.043C409.411 207.061 393.351 198.702 376.122 197.423C373.071 197.197 366.912 197.92 364.421 199.779L364.354 200.672C367.618 202.379 376.7 202.19 380.446 203.357C387.741 205.63 395.421 208.098 402.535 211.522C412.022 216.089 426.515 223.943 433.536 231.789C434.074 232.39 436.63 239.778 437.041 240.892C422.582 229.355 399.598 215.948 380.384 216.5C378.961 216.541 378.442 216.569 377.632 217.449C379.128 219.608 393.769 223.91 397.29 225.385C412.451 231.734 427.759 240.712 439.775 251.901C439.964 254.473 440.334 257.104 440.658 259.671C435.582 254.981 412.696 237.087 406.619 239.666L406.643 240.781C407.645 242.141 410.082 243.851 411.539 244.767C422.929 251.933 431.7 260.716 441.657 269.7C441.673 271.666 441.478 274.081 441.372 276.078C436.253 271.727 414.904 257.66 408.825 259.174L408.684 259.955C412.297 263.846 422.001 269.809 426.825 273.113C431.725 276.505 436.28 280.369 440.427 284.649C440.068 286.698 439.915 288.813 438.726 290.449C435.449 290.805 417.938 272.513 410.865 273.512L410.561 274.091C411.388 276.705 433.173 296.266 436.497 299.455C435.521 302.115 435.199 303.129 433.698 305.552C430.182 302.069 415.766 289.061 411.316 290.552C411.494 293.328 428.047 308.791 431.183 311.947C430.202 313.978 428.742 316.265 427.556 318.238C420.974 311.953 414.417 304.785 406.216 300.995C409.698 308.916 417.658 317.027 423.674 323.236C422.856 324.419 421.642 325.69 420.666 326.779C417.069 324.582 406.079 316.565 402.545 317.982L402.297 318.887C403.753 322.518 412.544 328.136 415.293 331.807L414.958 332.693C408.865 335.221 382.657 319.482 378.564 321.214C377.354 327.147 403.886 337.538 409.257 339.052C407.985 340.403 406.401 341.803 405.025 343.079C394.523 340.692 384.994 338.272 375.204 333.713C372.604 332.503 366.233 329.244 363.937 329.648L363.631 330.357C364.523 333.213 367.712 335.542 369.997 337.355C373.122 339.55 377.887 341.87 381.423 343.414C384.275 344.659 397.428 347.221 399.192 348.572C396.938 352.207 392.775 350.422 389.606 350.147C376.97 349.051 365.893 343.414 354.92 337.467C353.079 336.47 349.362 334.85 347.337 335.513C347.256 336.671 349.226 339.433 350.108 340.302C358.975 349.046 373.233 354.511 384.458 355.807C383.258 356.649 381.553 357.416 380.211 358.078C368.298 356.371 355.835 350.085 345.724 343.596C342.316 341.41 333.265 332.502 329.663 333.755C328.784 344.694 362.327 359.411 363.612 362.113C359.696 365.826 336.355 349.624 331.911 346.448C328.332 343.889 316.716 331.29 313.68 331.255C312.373 336.11 324.538 347.195 327.801 350.56C333.13 356.055 340.44 359.604 346.027 364.665C312.423 357.994 297.195 309.914 290.543 309.045L289.968 309.656C288.986 316.261 301.353 335.979 304.88 341.733C295.95 333.202 286.521 316.182 280.414 305.125C278.887 302.36 272.917 290.064 270.537 289.344C267.114 297.699 289.356 334.269 295.068 341.178C299.334 346.266 304.192 350.827 309.539 354.763C314.6 358.468 317.291 358.845 322.247 361.699L322.619 361.917C311.123 361.077 301.317 356.809 293.863 347.913C280.774 332.289 270.624 315.509 263.93 296.216C262.565 292.284 257.669 275.815 255.137 273.655L254.525 274.01C254.007 277.591 255.629 285.104 256.391 288.914C260.171 307.827 268.067 324.131 279.292 339.723C281.355 342.589 283.453 344.673 285.339 347.279L285.153 347.845C283.432 347.502 278.814 341.829 277.148 340.168C265.312 328.392 259.485 313.741 253.528 298.827C250.622 291.554 245.886 260.562 243.505 257.999L242.842 258.367C238.641 268.318 245.018 292.882 247.79 303.441ZM339.562 210.09C307.921 213.522 285.054 241.978 288.492 273.642C291.93 305.305 320.37 328.181 352.009 324.732C383.635 321.285 406.483 292.836 403.047 261.185C399.611 229.533 371.19 206.66 339.562 210.09Z" fill="#FEFEFE"/>
<path d="M352.175 325.854C320.536 329.303 292.096 306.427 288.658 274.764C285.221 243.101 308.088 214.645 339.728 211.213C371.356 207.782 399.777 230.656 403.213 262.307C406.649 293.959 383.801 322.407 352.175 325.854ZM323.733 241.499C313.045 244.813 310.456 252.538 321.452 259.051C323.893 260.496 326.619 260.154 329.425 260.001C344.952 255.063 338.608 241.098 323.733 241.499Z" fill="#000001"/>
<path d="M329.424 260.001C326.619 260.155 323.893 260.497 321.452 259.051C310.456 252.539 313.045 244.813 323.733 241.5C338.608 241.099 344.952 255.063 329.424 260.001Z" fill="#000001"/>
<path d="M92.8625 381.281C86.6319 377.75 49.7226 354.487 50.9683 347.726C53.9665 344.827 57.4852 347.704 60.5032 349.582C101.133 374.818 143.995 402.066 189.841 416.458C300.906 451.322 422.27 452.202 528.875 401.834C552.962 390.454 575.857 376.527 598.601 362.688C608.008 356.965 616.303 350.005 626.173 344.977L627.913 345.444C630.341 348.169 628.15 349.982 626.204 352.375C613.131 368.405 593.388 377.246 576.393 388.515C583.543 393.95 619.558 414.999 622.344 419.742C622.576 421.718 622.728 420.796 621.841 422.604C621.26 423.064 620.631 423.637 619.861 423.737C616.264 424.204 575.997 395.926 570.355 391.755C562.102 396.317 553.879 400.935 545.687 405.607C551.504 409.851 557.865 413.281 563.581 417.614C565.638 419.174 567.366 420.628 567.05 423.338C564.891 425.898 562.273 425.098 559.696 423.495C552.803 419.209 545.916 413.565 539.632 408.498C529.309 413.498 522.425 416.716 511.675 420.153C525.389 434.882 543.049 451.576 559.371 463.013C561.861 464.758 564.737 465.891 565.36 468.73C565.091 469.919 565.085 470.19 564.224 471.061C563.831 471.58 561.957 472.613 561.337 472.3C542.804 462.952 519.121 437.142 506.119 422.752C495.901 426.643 484.591 429.811 474.85 433.807C480.062 439.785 485.751 446.145 490.512 452.526C491.786 454.234 492.561 456.195 491.318 458.079C488.614 459.226 488.016 458.507 485.823 456.481C479.086 450.257 474.275 442.297 468.284 435.382C458.296 437.56 448.767 440.282 438.308 442.444C440.889 447.885 446.538 456.673 449.851 462.203C456.808 474.078 464.009 485.809 471.451 497.386C473.948 501.193 484.507 513.293 481.476 517.243C480.178 517.8 478.595 517.717 477.255 517.292C469.713 514.897 438.707 454.783 432.556 443.756C418.162 446.909 404.683 448.116 390.29 450.318C391.492 454.891 398.253 479.581 393.272 481.279C388.096 478.349 385.898 456.683 385.091 450.681C372.97 451.3 359.538 452.101 347.494 452.047C346.343 464.264 345.123 526.124 342.485 531.406C341.349 532.461 341.247 532.434 339.666 532.722C337.072 531.876 336.579 529.27 336.688 526.727C337.078 517.679 337.789 508.605 338.389 499.561C339.308 483.614 340.35 467.673 341.514 451.741C330.285 451.726 319.067 451.059 307.915 449.743C305.331 455.671 298.726 481.861 294.049 483.097C292.354 482.312 291.53 478.411 291.97 476.924C294.727 467.615 297.952 458.283 301.698 449.318C292.613 448.923 281.778 446.76 272.072 446.11C265.932 456.213 241.842 512.73 237.994 515.543C237.162 516.151 235.86 516.68 234.82 516.523C234.043 516.406 234.083 516.216 233.617 515.649C232.499 510.468 239.521 497.981 241.997 492.759C247.793 480.219 253.889 467.82 260.278 455.572C262.267 451.982 263.848 448.699 265.613 445.006C256.5 443.661 245.448 441.227 236.29 439.457C232.11 448.085 227.228 456.573 222.609 464.985C221.247 467.464 219.008 470.908 216.071 471.41C215.083 470.851 214.593 470.42 214.298 469.262C213.224 465.049 227.833 443.082 230.655 438.083C221.501 436.309 211.554 433.864 202.394 431.783C188.94 447.885 177.503 466.801 163.293 482.42C161.691 484.18 160.703 485.291 158.225 484.955C156.538 483.249 156.423 480.505 157.954 478.683C171.351 462.737 183.692 445.927 196.463 429.462C187.591 426.929 177.145 422.812 168.175 419.779C164.53 424.612 158.807 429.654 154.699 434.257C152.443 436.784 142.955 447.394 139.666 443.864C139.352 438.51 158.126 421.373 162.784 417.344C153.78 412.668 140.797 407.21 131.228 402.661C127.041 407.326 85.4266 440.305 80.1814 442.806C77.3893 442.706 76.4817 441.585 76.6947 438.825C79.0525 435.185 119.288 404.766 125.771 400.103C116.597 395.133 107.637 389.916 98.5223 384.845C92.3397 389.573 72.2463 403.541 64.8684 403.628C63.2701 403.647 62.3412 403.394 61.2108 402.317C61.4962 401.108 61.8069 400.419 62.9305 399.682C72.7837 393.226 83.0284 387.883 92.8625 381.281Z" fill="#000001"/>
</svg>
