<svg width="98" height="42" viewBox="0 0 98 42" fill="none" xmlns="http://www.w3.org/2000/svg">
<path d="M37.6173 4.54687C38.1668 4.18045 38.9515 3.48394 39.5237 3.05184C41.4907 1.56605 43.6385 0.405366 46.1054 0.0588371C52.6628 -0.768814 58.7602 7.32326 61.3135 12.5048C61.7311 9.51998 63.9456 6.89381 66.2287 5.04291C70.9474 1.21749 77.212 0.105934 83.1419 0.814827C87.7401 1.38882 92.1059 3.45328 94.9725 7.16563C99.1604 12.5893 97.9545 18.4239 92.5013 22.3776C87.8806 25.7278 82.8061 27.3873 77.0706 27.1223C75.6177 27.0553 74.3509 26.8538 72.924 26.657C71.781 27.5737 70.8204 28.5228 69.534 29.3531C67.8353 30.4498 65.9939 31.3369 63.8993 30.9346C63.6693 30.8823 63.4663 30.7871 63.3407 30.5852C63.2177 30.3876 63.502 30.142 63.6597 29.9973C64.3244 29.3869 64.8846 28.7212 65.3157 27.9255C66.6435 25.4745 66.2143 22.4442 63.5243 21.1757C63.0839 21.2761 62.7074 21.3012 62.2587 21.3195C62.3448 23.6361 61.3474 27.5719 60.3694 29.6615C60.2471 29.9443 60.1013 30.2206 59.9519 30.4899C57.1648 35.5141 51.3083 39.185 45.8989 40.7275C38.17 42.9315 29.9314 42.3226 22.8086 38.5079C20.5434 37.2946 18.4136 35.7805 16.6323 33.9221C14.0622 31.241 12.8433 28.258 9.57226 26.0915C8.41899 25.3276 6.5882 24.4119 5.20514 24.1808C4.37159 24.0415 0.723489 24.3107 0.260729 24.027C0.119295 23.9403 0.0330385 23.8078 0.00561258 23.6444C-0.0132161 23.5323 0.0160066 23.4366 0.0830896 23.3463C0.428025 22.8821 1.6631 22.2771 2.19166 21.898C3.65522 20.8482 5.01557 19.6958 6.33152 18.4668C11.9135 13.2532 19.0281 2.61781 26.8711 1.15811C30.9883 0.391865 34.369 2.32559 37.6173 4.54687ZM32.2919 27.236C31.8377 27.1934 29.6489 27.1385 29.3261 27.2343C29.4877 27.3168 29.5942 27.2966 29.7763 27.2932C33.8454 28.0111 37.9687 27.9699 42.0457 27.389C43.8883 27.1474 45.7444 26.9327 47.4948 26.2677C48.6407 25.8322 49.9599 25.3741 51.0124 24.7351C49.3208 24.8848 47.9864 25.0861 46.3783 25.6721C45.1434 26.1266 43.9411 26.6348 42.6647 26.9528C41.3115 27.29 40.2034 26.8972 38.8984 26.8708C38.3009 26.8586 37.3607 27.1999 36.6625 27.2274C35.1987 27.285 33.7559 27.2533 32.2919 27.236ZM46.6207 0.975199C43.6704 1.26976 41.4609 2.70216 39.2036 4.49957C38.8291 4.79758 37.9484 5.59762 37.6278 5.79525C34.6582 3.56514 31.3629 1.49591 27.4746 2.05102C20.3119 3.07376 13.1786 12.8114 8.36621 17.813C6.47841 19.775 4.41794 21.5761 2.22113 23.1847C3.81535 23.0953 5.24244 23.0945 6.83839 22.8619C11.2243 22.2225 15.888 20.309 19.6838 18.039C22.1931 16.5186 25.9409 13.9542 28.6891 13.6576C33.5974 13.1279 37.5607 17.2882 42.7011 14.986C44.5573 14.1547 47.528 13.7883 49.4706 14.2324C55.4064 15.1234 58.2863 21.6018 64.6964 19.9586C61.9597 17.5057 61.2024 14.0324 59.4345 10.9776C57.098 6.94019 51.8076 0.587054 46.6207 0.975199ZM79.5855 1.58574C73.9098 1.8061 69.0629 3.23982 65.0374 7.45979C63.522 9.0484 62.1398 11.3809 62.1552 13.6979C62.2557 15.1797 64.0468 18.0357 65.1557 19.0518C65.5175 19.3832 66.1392 19.6489 66.3417 20.0847C66.48 20.6914 65.2819 20.8237 64.9613 20.9175C65.167 21.1031 65.4008 21.3013 65.5915 21.4999C67.8982 23.9016 67.2189 27.6531 65.1439 29.9253L65.0387 30.0389C65.6306 29.9826 66.2072 29.9088 66.7673 29.6984C68.7675 28.9469 70.7573 27.2736 72.301 25.8347L72.353 25.7863C72.6725 25.4932 72.6688 25.5508 73.0989 25.6132C73.5512 25.679 74.0511 25.8737 74.4973 25.9355C78.3824 26.4731 82.443 26.1631 86.1524 24.8582C90.3915 23.1834 96.2144 19.4454 96.5757 14.439C96.7532 11.978 95.478 9.11285 93.8756 7.32672C90.4209 3.24165 84.8584 1.36568 79.5855 1.58574ZM29.3346 14.5258C28.3012 14.6055 27.2355 14.8423 26.3132 15.3284C26.3837 15.7129 26.8967 18.0635 26.4393 18.1501C26.2277 17.993 26.2116 17.9351 26.1774 17.6285C26.1 16.9302 26.0212 16.2182 25.9491 15.5196C24.5163 16.1742 23.1609 17.0061 21.8173 17.8236C23.7907 18.2362 25.7284 18.8219 27.7504 19.1243C30.0435 19.4673 32.4035 19.4134 34.7031 19.1521C36.3641 18.9633 37.7929 18.4051 39.4679 18.2882C41.1452 18.1711 42.8048 18.2774 44.4744 18.1801C47.2523 18.0181 50.0361 17.4448 52.7597 16.8816L53.3058 16.7787C52.738 16.4105 51.9323 15.9825 51.2903 15.7276C51.3858 15.9479 51.5821 16.238 51.5803 16.4121C51.4839 16.5748 51.5512 16.5229 51.3764 16.5786C50.7672 16.3522 51.1572 15.6581 50.7168 15.4926C49.92 15.193 48.9878 15.0371 48.1423 14.9452C48.2656 15.2871 48.8604 16.7046 48.8135 16.9363C48.6887 17.01 48.699 17.0099 48.5552 16.9991C48.2067 16.7494 47.8179 15.3554 47.7173 14.9154C45.5166 14.9263 44.2767 15.4646 42.2531 16.1194C41.8072 16.2636 41.0987 16.396 40.623 16.5025C40.7159 16.8026 40.9685 17.4847 40.7844 17.7717C40.4209 17.6931 40.2625 16.8795 40.1819 16.5736C38.9919 16.5856 38.1043 16.5453 36.916 16.3537C37.1224 16.7624 37.3557 17.2473 37.2472 17.7118L37.1862 17.7741C36.778 17.6268 36.5983 16.6712 36.5001 16.2741C35.4334 15.9629 34.478 15.6694 33.4248 15.3095C33.5579 15.9398 33.9704 17.7097 33.7388 18.2343L33.6511 18.2771C33.3179 18.0941 33.2534 17.2031 33.2109 16.8301C33.1517 16.312 33.0111 15.6927 33.0075 15.1795C32.0018 14.7883 30.3964 14.4344 29.3346 14.5258ZM58.0493 19.9159C56.4162 21.5693 54.4044 23.5766 52.5119 24.9155C49.065 27.3541 44.6539 28.1197 40.5559 28.4908C35.6957 28.931 30.7904 28.7822 26.1238 27.2653C21.852 25.8682 17.7539 23.515 13.4807 22.1301C11.5169 22.8417 9.35941 23.5362 7.29546 23.8448C10.731 25.0121 12.9502 27.4611 14.962 30.3094C23.6754 42.8757 43.3422 44.4244 54.8845 34.9397C59.2645 31.3405 61.2141 26.7668 61.3073 21.1423C60.6466 20.956 60.2117 20.8268 59.5681 20.5714C59.1487 20.4049 58.4281 20.0402 58.0493 19.9159ZM45.0373 22.6943C43.3034 22.9235 41.6768 23.4402 40.4471 24.7332C39.9552 25.2504 39.5294 25.8011 39.0222 26.3045C40.5293 25.3284 41.2488 24.875 42.9631 24.3275C45.8512 23.4364 47.517 23.1775 50.5298 23.2336C49.4157 22.8415 46.1688 22.5105 45.0373 22.6943ZM48.9306 23.6099C45.8755 23.8412 42.0979 24.6345 39.5808 26.4458C40.6423 26.6658 41.6648 26.7332 42.7296 26.4838C44.2116 26.0631 45.6044 25.3947 47.0815 24.9697C48.5829 24.5377 50.0413 24.3596 51.5876 24.2344C51.7333 24.2226 51.9129 24.1552 52.0373 24.0734L52.0606 23.971C51.7391 23.5317 49.4942 23.5523 48.9306 23.6099ZM31.2687 24.0675C29.3319 24.1882 27.7542 24.5781 25.9201 25.1953C25.4821 25.3428 24.8982 25.5211 24.4919 25.7205L25.4081 26.0662C26.493 25.5925 30.4281 25.2173 31.6966 25.1258C33.8868 25.0493 36.1861 25.5098 38.2514 26.232C37.8072 25.8614 37.1861 25.3371 36.6846 25.0776C35.324 24.3737 32.7651 23.9707 31.2687 24.0675ZM32.1617 25.592C30.4127 25.6427 27.6922 25.9699 25.9586 26.2639C26.4049 26.4035 27.1141 26.6295 27.5601 26.6776C29.0061 26.8336 30.6125 26.8079 32.077 26.8216C34.1683 26.8407 36.0071 27.0133 38.0702 26.5804C35.6917 25.9616 34.6678 25.5957 32.1617 25.592Z" fill="black"/>
<path d="M37.6274 5.79528C37.948 5.59766 38.8287 4.79762 39.2031 4.4996C41.4604 2.7022 43.67 1.2698 46.6203 0.975236C51.8072 0.587091 57.0976 6.94023 59.4341 10.9776C61.202 14.0324 61.9593 17.5057 64.696 19.9586C58.2859 21.6019 55.406 15.1235 49.4702 14.2325C47.5276 13.7883 44.5569 14.1547 42.7007 14.986C37.5603 17.2882 33.597 13.1279 28.6887 13.6577C25.9405 13.9543 22.1926 16.5186 19.6834 18.039C15.8876 20.309 11.2239 22.2225 6.83797 22.8619C5.24201 23.0945 3.81493 23.0954 2.2207 23.1848C4.41752 21.5762 6.47799 19.775 8.36578 17.8131C13.1782 12.8114 20.3115 3.0738 27.4742 2.05106C31.3625 1.49594 34.6578 3.56517 37.6274 5.79528ZM28.4067 2.54924C27.5788 2.60516 24.7945 3.02985 24.3369 3.73793L24.3652 3.80726C24.8981 3.93586 26.1816 3.38227 26.8335 3.27995C29.1147 2.92206 31.0175 3.15368 33.1421 3.98143C33.6312 4.19175 33.9958 4.36887 34.4647 4.60882C35.0019 4.88389 35.6997 5.39445 36.2662 5.48793C36.3984 5.425 36.3502 5.47281 36.4128 5.3371C36.2999 5.12456 35.9355 4.88724 35.7368 4.74818C33.6499 3.28716 30.9736 2.35618 28.4067 2.54924ZM43.2768 2.78695C41.777 3.20464 40.4355 4.13907 39.4355 5.38775C39.3524 5.49149 39.3456 5.57208 39.3615 5.69591C39.4992 5.81254 39.423 5.77854 39.5954 5.80838L39.7558 5.71723C40.8292 4.78351 41.7252 4.01798 43.077 3.49301C43.3312 3.39424 43.772 3.26564 43.8233 3.03827C43.6989 2.82309 43.5153 2.79274 43.2768 2.78695Z" fill="#FEFEFE"/>
<path d="M64.9615 20.9174C65.2821 20.8236 66.4802 20.6914 66.3419 20.0846C66.1394 19.6488 65.5177 19.3831 65.1559 19.0517C64.047 18.0357 62.2559 15.1796 62.1554 13.6979C62.14 11.3809 63.5222 9.04833 65.0377 7.45972C69.0631 3.23975 73.91 1.80603 79.5857 1.58567C84.8587 1.36561 90.4211 3.24158 93.8758 7.32665C95.4782 9.11279 96.7534 11.9779 96.5759 14.4389C96.2146 19.4453 90.3918 23.1834 86.1526 24.8581C82.4432 26.1631 78.3826 26.473 74.4975 25.9354C74.0513 25.8737 73.5514 25.6789 73.0991 25.6131C72.669 25.5507 72.6727 25.4931 72.3532 25.7862L72.3012 25.8346C70.7575 27.2735 68.7677 28.9469 66.7675 29.6983C66.2074 29.9087 65.6308 29.9825 65.0389 30.0388L65.1441 29.9253C67.2192 27.653 67.8984 23.9015 65.5918 21.4998C65.401 21.3012 65.1672 21.1031 64.9615 20.9174ZM75.8522 2.85526C73.7229 2.94164 71.5381 3.70382 69.59 4.53899C69.3467 4.64333 68.8227 4.90155 68.7488 5.16109C68.8934 5.32989 69.1875 5.23306 69.3838 5.1885C71.2851 4.51107 73.1556 3.90074 75.1415 3.49899C75.507 3.425 76.3605 3.35953 76.5275 3.12262C76.5239 2.81558 76.0663 2.84856 75.8522 2.85526ZM89.3157 4.55543C89.0893 4.66982 89.1625 4.58639 89.0625 4.7896C89.1118 4.95301 89.069 4.88216 89.2095 4.99991L89.4286 5.03097C89.6437 4.91383 89.5864 4.98265 89.6873 4.78117C89.654 4.61714 89.6915 4.68677 89.5639 4.56903C89.4823 4.56355 89.3974 4.55563 89.3157 4.55543ZM90.7481 5.49737C90.7871 5.83832 90.9185 5.95647 91.1602 6.18211C92.907 7.81254 94.0846 9.63918 95.1521 11.7463C95.1742 11.7899 95.2661 11.777 95.31 11.7781C94.9368 9.45099 93.4458 7.30817 91.5903 5.87618C91.3198 5.66729 91.0869 5.4991 90.7481 5.49737ZM79.0435 11.8843C77.6876 11.9694 76.6067 12.4524 75.7002 13.4779C74.6249 14.6944 75.2124 15.245 76.6469 15.2724C77.8701 15.1244 79.2736 14.8362 80.072 13.8183C80.938 12.7144 80.3227 11.9252 79.0435 11.8843ZM85.1352 12.0873C83.2618 12.3124 79.812 14.4958 83.933 14.645C84.9191 14.564 86.016 14.4566 86.7042 13.6458C87.0293 13.2628 87.1 12.708 86.6688 12.3704C86.2911 12.0747 85.6026 12.0118 85.1352 12.0873ZM72.5999 13.4026C71.5647 13.6849 70.4364 14.409 69.8614 15.3379C69.2454 16.333 70.3631 16.4124 71.0662 16.2846C72.067 16.026 73.0805 15.5495 73.6635 14.6439C74.348 13.5806 73.5774 13.2983 72.5999 13.4026ZM90.3291 20.7783L90.2642 20.8178C89.4605 21.3119 88.7233 21.9694 87.9274 22.4653C85.8828 23.7393 83.4735 24.5079 81.1163 24.9561C80.8633 25.0042 80.3718 25.0032 80.259 25.244C80.3645 25.3702 80.3015 25.3162 80.4895 25.3665C82.5979 25.6377 85.6942 24.4539 87.5306 23.4098C88.0935 23.0898 90.3527 21.5051 90.5058 20.9392L90.474 20.8134L90.3291 20.7783Z" fill="#FEFEFE"/>
<path d="M33.1421 3.98138C31.0175 3.15363 29.1147 2.922 26.8336 3.2799C26.1816 3.38222 24.8981 3.93581 24.3652 3.8072L24.3369 3.73788C24.7945 3.0298 27.5788 2.60511 28.4068 2.54918C30.9737 2.35613 33.65 3.28711 35.7369 4.74813C35.9355 4.88719 36.2999 5.1245 36.4129 5.33705C36.3502 5.47276 36.3984 5.42495 36.2662 5.48788C35.6997 5.3944 35.002 4.88384 34.4647 4.60877C33.9958 4.36882 33.6312 4.1917 33.1421 3.98138Z" fill="black"/>
<path d="M39.7566 5.71714L39.5963 5.80829C39.4238 5.77845 39.5 5.81245 39.3623 5.69583C39.3465 5.57199 39.3533 5.4914 39.4363 5.38766C40.4363 4.13898 41.7778 3.20455 43.2776 2.78687C43.5161 2.79265 43.6997 2.823 43.8241 3.03819C43.7728 3.26555 43.3321 3.39416 43.0778 3.49292C41.726 4.01789 40.83 4.78342 39.7566 5.71714Z" fill="black"/>
<path d="M69.383 5.18853C69.1867 5.23309 68.8927 5.32992 68.748 5.16113C68.8219 4.90158 69.346 4.64336 69.5893 4.53902C71.5373 3.70386 73.7222 2.94167 75.8515 2.85529C76.0656 2.84859 76.5231 2.81561 76.5268 3.12265C76.3597 3.35956 75.5063 3.42503 75.1408 3.49902C73.1549 3.90077 71.2844 4.5111 69.383 5.18853Z" fill="black"/>
<path d="M76.6462 15.2724C75.2117 15.245 74.6242 14.6945 75.6995 13.478C76.606 12.4525 77.6869 11.9695 79.0428 11.8844C80.3221 11.9253 80.9374 12.7145 80.0713 13.8184C79.2729 14.8363 77.8694 15.1245 76.6462 15.2724Z" fill="black"/>
<path d="M71.0662 16.2847C70.3631 16.4125 69.2454 16.333 69.8614 15.338C70.4364 14.409 71.5647 13.6849 72.5999 13.4027C73.5774 13.2984 74.348 13.5807 73.6635 14.6439C73.0805 15.5495 72.067 16.0261 71.0662 16.2847Z" fill="black"/>
<path d="M26.3132 15.3283C27.2356 14.8423 28.3013 14.6054 29.3347 14.5258C30.3965 14.4344 32.0018 14.7882 33.0076 15.1794C33.0112 15.6927 33.1518 16.312 33.2109 16.8301C33.2535 17.2031 33.318 18.0941 33.6511 18.2771L33.7388 18.2343C33.9705 17.7097 33.558 15.9398 33.4249 15.3095C34.4781 15.6694 35.4334 15.9629 36.5002 16.274C36.5984 16.6712 36.778 17.6268 37.1863 17.774L37.2473 17.7118C37.3558 17.2472 37.1224 16.7624 36.9161 16.3537C38.1044 16.5453 38.992 16.5856 40.182 16.5736C40.2626 16.8795 40.421 17.693 40.7844 17.7717C40.9686 17.4847 40.716 16.8026 40.623 16.5025C41.0988 16.3959 41.8073 16.2636 42.2532 16.1194C44.2767 15.4646 45.5167 14.9263 47.7174 14.9154C47.8179 15.3553 48.2068 16.7494 48.5553 16.9991C48.6991 17.0099 48.6887 17.01 48.8136 16.9362C48.8605 16.7046 48.2657 15.2871 48.1423 14.9452C48.9879 15.0371 49.9201 15.1929 50.7168 15.4926C51.1573 15.6581 50.7673 16.3522 51.3765 16.5785C51.5513 16.5229 51.484 16.5748 51.5803 16.4121C51.5822 16.238 51.3859 15.9479 51.2903 15.7276C51.9323 15.9825 52.7381 16.4105 53.3059 16.7787L52.7598 16.8816C50.0362 17.4448 47.2524 18.0181 44.4745 18.1801C42.8048 18.2774 41.1453 18.1711 39.4679 18.2882C37.793 18.4051 36.3642 18.9632 34.7032 19.152C32.4036 19.4134 30.0435 19.4673 27.7505 19.1243C25.7285 18.8219 23.7908 18.2362 21.8174 17.8236C23.161 17.0061 24.5163 16.1742 25.9491 15.5196C26.0213 16.2182 26.1001 16.9302 26.1775 17.6285C26.2116 17.9351 26.2278 17.993 26.4394 18.1501C26.8968 18.0635 26.3838 15.7129 26.3132 15.3283ZM29.584 14.7929C29.4501 14.9804 29.4751 15.0777 29.5229 15.3111C29.7384 16.3648 29.8348 17.4493 30.0607 18.4967C30.0821 18.5961 30.3051 18.6607 30.3961 18.6886C30.4386 18.615 30.5041 18.4962 30.491 18.4103C30.4005 17.8166 30.1351 15.1046 29.8019 14.8314L29.584 14.7929ZM44.1751 15.54C44.0448 15.7336 44.0429 15.8131 44.1057 16.0471C44.2236 16.4862 44.3042 17.2075 44.7237 17.4437C44.8954 17.1811 44.864 17.231 44.8025 16.872C44.7528 16.5821 44.5149 15.7441 44.2929 15.5674L44.1751 15.54Z" fill="#FEFEFE"/>
<path d="M30.3958 18.6886C30.3049 18.6607 30.0819 18.5962 30.0604 18.4968C29.8345 17.4494 29.7382 16.3648 29.5227 15.3111C29.4749 15.0778 29.4498 14.9804 29.5838 14.793L29.8016 14.8314C30.1348 15.1047 30.4003 17.8166 30.4907 18.4103C30.5038 18.4963 30.4383 18.615 30.3958 18.6886Z" fill="black"/>
<path d="M44.7237 17.4437C44.3042 17.2075 44.2236 16.4862 44.1057 16.0471C44.0428 15.8132 44.0448 15.7337 44.1751 15.54L44.2928 15.5674C44.5148 15.7442 44.7528 16.5822 44.8025 16.8721C44.864 17.2311 44.8954 17.1811 44.7237 17.4437Z" fill="black"/>
<path d="M13.4812 22.1302C17.7543 23.5151 21.8525 25.8682 26.1242 27.2654C30.7909 28.7822 35.6962 28.931 40.5563 28.4908C44.6544 28.1197 49.0655 27.3541 52.5124 24.9155C54.4048 23.5767 56.4167 21.5694 58.0498 19.9159C58.4286 20.0402 59.1491 20.4049 59.5685 20.5714C60.2122 20.8269 60.647 20.956 61.3078 21.1423C61.2145 26.7668 59.2649 31.3405 54.8849 34.9398C43.3427 44.4245 23.6759 42.8757 14.9625 30.3094C12.9506 27.4612 10.7315 25.0121 7.2959 23.8448C9.35985 23.5363 11.5174 22.8417 13.4812 22.1302ZM56.5071 31.025L56.4669 31.0719C56.0808 31.5311 55.7577 32.0919 55.39 32.5732C54.702 33.4736 53.8797 34.2809 52.9874 34.9794C52.4604 35.392 51.8525 35.8079 51.2728 36.1494C50.8513 36.3977 50.3786 36.6184 49.9593 36.8743C49.8505 36.9408 49.7672 37.0063 49.717 37.123L49.7606 37.2103C49.9076 37.2588 49.9118 37.2768 50.0579 37.2432L50.1733 37.1475C50.6603 37.2595 52.738 35.7655 53.1898 35.4974C53.839 35.1123 57.1591 31.9754 56.8659 31.1668C56.7393 31.0459 56.68 31.0529 56.5071 31.025ZM17.1117 31.5288L17.024 31.6901C17.1468 32.098 17.7307 32.6004 18.0331 32.9122C19.4694 34.3922 21.0798 35.6872 22.9021 36.6649C23.9497 37.227 26.2492 38.2286 27.396 38.087L27.5012 37.9708C27.4802 37.8834 27.481 37.8175 27.3786 37.7771C26.6954 37.5088 25.9925 37.3594 25.2957 37.0992C22.6587 36.1146 20.3996 34.4675 18.3983 32.5106C18.0694 32.189 17.5395 31.5783 17.1117 31.5288ZM47.5752 37.4847C47.5112 37.5449 47.4845 37.635 47.5055 37.7203C47.5265 37.8057 47.592 37.873 47.6766 37.8965C47.7613 37.92 47.8521 37.896 47.914 37.8336C48.0076 37.7396 48.0085 37.5879 47.9161 37.4928C47.8237 37.3976 47.672 37.394 47.5752 37.4847Z" fill="#FEFEFE"/>
<path d="M39.0225 26.3045C39.5297 25.801 39.9555 25.2504 40.4474 24.7331C41.6771 23.4402 43.3037 22.9235 45.0376 22.6943C46.169 22.5104 49.416 22.8414 50.5301 23.2335C47.5173 23.1775 45.8514 23.4363 42.9634 24.3274C41.2491 24.8749 40.5296 25.3284 39.0225 26.3045Z" fill="#FEFEFE"/>
<path d="M39.5811 26.4458C42.0981 24.6345 45.8757 23.8412 48.9308 23.61C49.4944 23.5523 51.7393 23.5317 52.0608 23.971L52.0375 24.0734C51.9131 24.1552 51.7335 24.2226 51.5878 24.2344C50.0415 24.3597 48.5831 24.5377 47.0817 24.9697C45.6046 25.3947 44.2118 26.0631 42.7298 26.4838C41.665 26.7332 40.6425 26.6658 39.5811 26.4458Z" fill="#FEFEFE"/>
<path d="M24.4922 25.7204C24.8985 25.5211 25.4823 25.3427 25.9204 25.1953C27.7545 24.578 29.3322 24.1882 31.269 24.0675C32.7653 23.9706 35.3243 24.3737 36.6849 25.0775C37.1864 25.3371 37.8075 25.8613 38.2517 26.232C36.1864 25.5097 33.887 25.0493 31.6969 25.1257C30.4284 25.2173 26.4933 25.5924 25.4083 26.0662L24.4922 25.7204Z" fill="#FEFEFE"/>
<path d="M29.7764 27.2932C30.2175 27.1928 31.7088 27.2545 32.2919 27.236C33.756 27.2533 35.1987 27.2851 36.6626 27.2274C37.3607 27.1999 38.3009 26.8586 38.8985 26.8708C40.2034 26.8972 41.3115 27.29 42.6647 26.9528C43.9411 26.6348 45.1434 26.1266 46.3783 25.6721C47.9864 25.0861 49.3209 24.8848 51.0124 24.7351C49.9599 25.3741 48.6408 25.8322 47.4948 26.2677C45.7444 26.9327 43.8884 27.1474 42.0458 27.389C37.9687 27.9699 33.8455 28.0111 29.7764 27.2932Z" fill="#FEFEFE"/>
<path d="M25.959 26.2639C27.6925 25.9698 30.4131 25.6427 32.1621 25.5919C34.6682 25.5957 35.6921 25.9616 38.0706 26.5803C36.0075 27.0133 34.1687 26.8406 32.0773 26.8215C30.6129 26.8078 29.0065 26.8335 27.5605 26.6776C27.1145 26.6295 26.4053 26.4034 25.959 26.2639Z" fill="#FEFEFE"/>
<path d="M32.292 27.236C31.7088 27.2544 30.2176 27.1927 29.7764 27.2931C29.5943 27.2966 29.4879 27.3168 29.3262 27.2342C29.6491 27.1384 31.8378 27.1933 32.292 27.236Z" fill="#5F625F"/>
<path d="M50.1731 37.1474L50.0576 37.2432C49.9116 37.2768 49.9074 37.2588 49.7603 37.2103L49.7168 37.123C49.7669 37.0063 49.8503 36.9408 49.9591 36.8743C50.3784 36.6184 50.8511 36.3976 51.2726 36.1494C51.8523 35.8079 52.4602 35.392 52.9872 34.9794C53.8795 34.2809 54.7018 33.4736 55.3898 32.5732C55.7575 32.0919 56.0806 31.5311 56.4667 31.0719L56.5069 31.025C56.6798 31.0529 56.739 31.0459 56.8657 31.1668C57.1589 31.9754 53.8388 35.1123 53.1896 35.4974C52.7378 35.7655 50.6601 37.2595 50.1731 37.1474Z" fill="black"/>
<path d="M27.3955 38.087C26.2487 38.2286 23.9492 37.227 22.9015 36.6649C21.0793 35.6873 19.4688 34.3922 18.0326 32.9122C17.7301 32.6005 17.1463 32.098 17.0234 31.6901L17.1111 31.5288C17.539 31.5783 18.0688 32.189 18.3978 32.5106C20.399 34.4675 22.6581 36.1146 25.2952 37.0993C25.992 37.3594 26.6949 37.5088 27.378 37.7771C27.4804 37.8175 27.4796 37.8835 27.5006 37.9709L27.3955 38.087Z" fill="black"/>
<path d="M47.9136 37.8336C47.8517 37.896 47.7609 37.92 47.6762 37.8965C47.5916 37.873 47.5261 37.8057 47.5051 37.7203C47.4841 37.635 47.5108 37.5449 47.5748 37.4847C47.6717 37.394 47.8233 37.3975 47.9157 37.4928C48.0081 37.5879 48.0072 37.7396 47.9136 37.8336Z" fill="black"/>
</svg>
