<svg width="71" height="42" viewBox="0 0 71 42" fill="none" xmlns="http://www.w3.org/2000/svg">
<path d="M44.0562 29.581C43.8556 29.4936 43.4906 29.4219 43.2638 29.3698C39.6388 30.6574 37.9595 34.0572 35.3027 36.5259C33.9286 37.8028 32.0654 39.0891 30.4024 39.9421C25.235 42.5808 18.8646 42.6746 13.5969 40.266C11.7472 39.4203 9.85199 38.2028 8.42529 36.7427C6.17475 34.4393 4.43002 31.4268 1.20557 30.3221C0.894444 30.2155 0.227283 30.702 0.0269845 30.2935C-0.00456788 30.2233 -0.0147914 30.0452 0.0314152 29.9902C0.369165 29.588 0.871473 29.2395 1.20382 28.837C5.9406 23.1012 10.361 15.6402 18.339 14.2548C19.7971 14.0016 21.5797 13.9799 22.9677 14.5403C23.4535 14.7313 24.1555 15.0853 24.5691 15.2229C25.2831 14.9822 26.1615 14.4856 26.8633 14.1491C28.7722 13.2339 30.8604 13.5488 32.7264 14.4202C35.103 15.5437 37.4463 17.5092 39.279 19.3906C38.9205 18.6937 38.5184 17.9351 38.2655 17.1943C36.0889 10.8183 39.5169 4.88831 45.3063 1.93773C53.9442 -2.46468 66.5683 0.780267 70.283 10.1888C72.256 15.3522 69.9839 20.8718 65.5902 23.9611C60.7919 27.3349 54.3893 28.2176 48.8041 26.5148C46.8562 25.9209 45.627 24.6177 43.2851 25.1721C43.8079 26.3148 44.7143 27.424 45.5898 28.323C45.9299 28.6722 46.2855 28.9867 46.6032 29.3702C46.759 29.5582 46.6686 29.895 46.419 29.9991C45.7432 30.0586 44.7747 29.7423 44.1167 29.568L44.0562 29.581ZM53.4217 0.720205C51.7761 0.782769 50.0096 0.988764 48.4292 1.46096C45.8289 2.23796 43.2447 3.73456 41.4007 5.72823C39.3292 7.96794 38.2006 10.7296 38.3417 13.7963C38.4065 15.2018 38.6013 15.8956 39.0315 17.206C39.4601 18.5749 40.5256 19.6045 40.262 21.1374C40.1719 21.6613 40.0938 21.9848 39.7104 22.4076C39.359 22.8195 38.7138 23.1303 38.2219 23.2434C37.8264 23.3342 36.5943 23.6325 36.723 24.1524C37.0277 25.3835 39.6035 25.4524 40.4193 25.3615C41.8932 25.1973 42.5516 24.4833 43.9836 24.3911C45.8854 24.2703 46.9259 24.9763 48.5663 25.683C49.235 25.9711 50.2717 26.2343 50.9839 26.3619C55.9746 27.1576 60.9788 26.3231 65.1518 23.3964C70.3812 19.7287 72.0445 12.898 68.1212 7.61551C64.6151 2.89478 59.1944 0.725925 53.4217 0.720205ZM28.8944 14.8717C28.2787 14.9675 28.0158 15.0451 27.4216 15.2931C26.5592 15.6531 25.6157 16.4562 24.6925 16.5585C24.2794 16.6044 23.5746 16.1298 23.189 15.9337C21.8287 15.2421 20.7332 14.8231 19.1727 15.0025C13.7949 15.6208 9.48463 19.819 6.29103 23.8594C4.77921 25.7721 3.2703 27.9254 1.59502 29.6512C4.13049 29.1673 6.43442 27.7272 8.58316 26.3576C9.41036 25.8303 10.4562 25.1788 11.2472 24.6268C10.8925 24.1401 10.2492 23.266 10.2894 22.6305L10.304 22.6034C10.3608 22.6126 10.3984 22.6192 10.4283 22.6796C10.7549 23.3396 11.0215 23.8997 11.4828 24.4907C11.7193 24.3569 11.9477 24.2285 12.178 24.0844C11.6821 23.438 11.2601 22.8582 11.0331 22.0641C10.9577 21.8003 10.6779 20.8246 10.8595 20.6163C10.9508 20.8093 11.0696 21.341 11.1369 21.5775C11.3872 22.458 11.8472 23.2599 12.4401 23.9577C13.5268 23.4401 14.1048 23.2114 15.2771 22.9026C14.4303 21.571 13.822 19.512 13.9784 17.8809C13.9838 17.824 13.9869 17.833 14.031 17.8017C14.1638 17.9605 14.1624 18.6698 14.1922 18.9043C14.3603 20.2301 14.8144 21.6927 15.5532 22.8105C16.0286 22.7441 16.5663 22.6572 17.0389 22.6096C16.1028 20.7989 15.6988 18.5238 16.1506 16.5102C16.1703 16.4224 16.2282 16.3932 16.2994 16.3606C16.4401 16.4731 16.3136 16.9777 16.2867 17.1845C16.0508 19.0024 16.4779 20.9575 17.3611 22.5547C17.8296 22.5138 18.2161 22.507 18.6869 22.5012C18.0405 21.6624 17.6964 20.2184 17.8254 19.1776L17.8578 19.1438C17.962 19.3896 17.9968 20.0041 18.0759 20.3394C18.2829 21.1386 18.5027 21.864 19.0657 22.493C19.4868 22.5629 19.9506 22.63 20.3637 22.7235C20.138 22.2243 19.6021 20.8751 19.8412 20.3714L19.9427 20.3739C20.1047 20.5525 20.1032 21.3131 20.2169 21.6497C20.3845 22.1455 20.6127 22.4285 20.8079 22.8585C23.264 23.8219 24.415 24.7891 27.1248 23.5964C27.7241 23.3326 27.9697 23.2316 28.2311 22.57C28.3044 22.3846 28.3838 22.0046 28.4778 21.887L28.551 21.8703C28.7749 22.0511 28.3914 22.8521 28.2964 23.0755C28.6422 22.9023 28.9708 22.7424 29.3226 22.5808C29.526 21.9568 29.629 21.5098 29.4744 20.8591C29.4323 20.6817 29.2072 20.0321 29.3081 19.9646C29.5005 20.0841 29.653 20.5332 29.702 20.7605C29.8461 21.4278 29.83 21.9081 29.6407 22.5529C29.8242 22.5168 30.0237 22.4902 30.1638 22.3633C30.7903 21.7964 30.8006 20.7578 30.6484 19.9893C30.6007 19.7484 30.3884 19.2445 30.4202 19.0631C30.4758 19.0695 30.5083 19.0637 30.5532 19.1358C30.917 19.7197 31.0741 20.55 30.9885 21.2236C30.9228 21.7414 30.7637 22.0027 30.5812 22.4381C30.8616 22.4879 31.1078 22.5274 31.3811 22.6073C31.5162 22.3891 31.5678 22.287 31.6694 22.0726C31.7783 21.8431 32.0159 20.8738 32.1221 20.7914C32.3492 21.1286 31.869 22.3666 31.687 22.7107C32.0139 22.8987 32.2698 23.0565 32.5844 23.2627C32.9467 22.7084 33.1705 22.3218 33.3618 21.671C33.4558 21.3514 33.5492 20.9362 33.6577 20.6325C33.6406 21.7638 33.3796 22.427 32.863 23.3946C33.1313 23.6747 33.5557 23.9368 33.8846 24.1544C34.2079 23.8215 34.2102 23.775 34.4394 23.4142C34.5991 23.1631 34.906 22.253 35.0123 22.1653L35.0544 22.1858C35.0868 22.3741 35.0297 22.5348 34.9939 22.7166C34.864 23.3748 34.5828 23.8468 34.172 24.3646C34.7115 24.7221 35.255 25.0724 35.7881 25.4392C38.6363 27.3989 41.8007 28.5226 45.1405 29.3415L45.1023 29.2944C44.7773 28.8977 44.3999 28.562 44.0695 28.1895C43.4356 27.4749 42.6966 26.4521 42.3179 25.5774C40.4729 26.1582 38.8857 26.3384 37.0713 25.4694C35.6138 24.7714 35.8014 23.2481 37.282 22.8036C38.3751 22.4755 38.9604 22.4892 39.5705 21.4137C39.4105 21.171 39.0818 20.8164 38.8823 20.5942C36.7294 18.1955 32.3351 14.4599 28.8944 14.8717ZM17.2692 23.6762C16.3675 23.7657 15.4646 23.8474 14.6007 24.145C14.6159 25.3689 14.6674 26.5898 14.6815 27.8099C15.2285 27.9933 15.5061 28.0307 16.0835 28.0841C16.8902 28.0971 17.9689 28.0892 18.6914 27.6905C18.7518 27.2461 18.732 26.5291 18.7341 26.0603L18.7612 23.6641C18.2965 23.651 17.7244 23.623 17.2692 23.6762ZM29.4338 23.6711C29.3511 24.7763 29.3627 26.2967 29.4065 27.4272C30.6339 27.5906 31.8532 27.6263 33.0697 27.3461C33.1576 27.3177 33.2808 27.3011 33.2894 27.2275C33.3719 26.5264 33.2631 25.2517 33.2325 24.602C32.0117 24.023 30.7951 23.6838 29.4338 23.6711ZM19.2417 23.7185L19.2612 26.2325C19.2639 26.6646 19.2505 27.1008 19.2837 27.5308C19.3136 27.9191 19.8549 28.035 20.1738 28.0952C21.2221 28.2927 22.618 28.3289 23.6118 27.8896C23.7317 27.8201 23.8505 27.7558 23.9615 27.6731C23.9897 26.6993 23.9554 25.7222 23.9666 24.7491C23.1634 24.5278 22.5388 24.3117 21.778 24.0439C21.3413 23.8902 19.7044 23.7218 19.2417 23.7185ZM28.7908 23.731C27.2145 24.124 26.2728 24.8019 24.5919 24.7949C24.606 25.691 24.5977 26.5828 24.5988 27.4777C24.599 27.6928 24.7633 27.7463 24.9353 27.8114C25.6412 27.9807 28.7677 28.198 28.8592 27.3512C28.8876 27.0871 28.9713 23.9134 28.9266 23.7358C28.8356 23.7136 28.8809 23.7148 28.7908 23.731ZM14.0106 24.2996C12.4979 24.7932 10.8711 25.6713 9.54328 26.5514L9.55052 27.8553L9.9082 27.9496C11.1131 28.2216 13.0091 28.3572 14.1171 27.7155C14.1062 27.328 14.0969 24.4202 14.0596 24.3132L14.0106 24.2996ZM33.7422 25.0602C33.8307 25.8594 33.8569 26.4447 33.8624 27.249C34.8832 27.2173 35.8834 27.2334 36.9029 27.288C37.1926 27.3036 37.5184 27.3164 37.8053 27.2916C37.1092 26.9702 36.4483 26.5722 35.7681 26.2213C35.0822 25.8674 34.4248 25.4098 33.7422 25.0602ZM8.97654 26.9145C8.76892 27.0421 7.4005 27.8274 7.30801 27.9363C7.34142 27.9822 7.32049 27.972 7.3625 27.9799C7.95627 28.0131 8.40141 28.0397 8.96772 27.843C8.98113 27.6621 9.04981 27.0369 8.97654 26.9145ZM40.5688 28.6012C39.3118 28.7968 38.021 28.9178 36.7354 29.1024C36.9342 29.2715 37.8291 30.0524 37.6185 30.3196C37.5575 30.3274 37.52 30.3429 37.4699 30.2907C37.0691 29.8725 36.8228 29.481 36.3083 29.1746C35.9412 29.2475 35.6846 29.321 35.3293 29.4269C35.6821 29.7714 36.3646 30.5838 36.513 31.0334C36.4825 31.1586 36.5136 31.1061 36.411 31.1925C36.2088 31.1912 35.9938 30.7055 35.8827 30.5312C35.6281 30.1316 35.3715 29.8069 35.0142 29.4944L34.1889 29.7696C34.5306 30.0539 35.209 30.5663 35.3054 30.9664L35.2857 31.0393C35.1033 31.0444 34.1593 30.0632 33.8384 29.8586C33.131 30.0745 32.5072 30.2759 31.8179 30.5451C32.5755 31.1497 33.2668 32.1939 33.4748 33.1751C33.4889 33.2416 33.4817 33.3048 33.4381 33.3566C33.3524 33.3386 33.2619 33.3049 33.23 33.2176C32.8605 32.208 32.4474 31.3536 31.5588 30.6508C31.1645 30.801 30.8433 30.932 30.4599 31.1071C31.4374 32.2996 32.0282 34.0232 32.2398 35.5648C32.2341 35.5914 32.2283 35.618 32.2225 35.6447L32.1761 35.6709C32.0632 35.6097 32.0039 35.4726 31.9808 35.3498C31.7313 34.0245 31.1316 32.2285 30.1929 31.2224C29.9452 31.3334 29.7182 31.4334 29.4795 31.5623C30.1276 32.1731 30.9037 33.0368 30.9982 33.9842C31.0094 34.0961 31.01 34.0855 30.9624 34.1555C30.903 34.1271 30.8474 34.108 30.8216 34.0398C30.4674 33.107 30.0172 32.3502 29.1904 31.7234C28.8717 31.8579 28.5264 31.9953 28.2201 32.1512C28.8925 33.0751 29.3378 33.9183 29.5869 35.0477C29.6307 35.2465 29.7066 35.5361 29.6752 35.737L29.6276 35.7604C29.5187 35.7017 29.4676 35.6004 29.437 35.4835C29.1279 34.2999 28.7438 33.2503 27.9427 32.2859C27.6034 32.4246 27.1782 32.5824 26.8523 32.7272C27.1678 33.1016 27.6635 33.766 27.7113 34.2531L27.6894 34.3113C27.6151 34.2902 27.5581 34.2333 27.5198 34.1696C27.2098 33.6541 27.0175 33.2831 26.6227 32.8198C25.871 33.0207 25.2518 33.2211 24.4781 33.369C24.5989 33.7539 24.7563 34.1523 24.6492 34.5575L24.6009 34.5935C24.4804 34.4775 24.3488 33.6883 24.2571 33.4043C23.5807 33.4987 22.8639 33.5107 22.1797 33.511C22.0935 33.781 21.994 34.3989 21.8758 34.5559L21.8188 34.5094L21.8486 34.5712L21.8994 34.5134L21.8122 34.4833C21.7824 34.0887 21.8148 33.863 21.924 33.4758C21.4452 33.4499 20.8571 33.4238 20.3851 33.3395C19.9156 34.0694 19.6662 34.7662 19.6327 35.6279C19.6261 35.7976 19.6304 36.1037 19.5045 36.1759C19.3736 36.0189 19.4256 35.4453 19.4418 35.2313C19.4954 34.5242 19.7725 33.9226 20.084 33.2957C19.7345 33.2235 19.3916 33.1509 19.0434 33.0714C18.8729 33.4416 18.6213 33.9086 18.5287 34.2917C18.4286 34.7051 18.4485 35.6496 18.2591 35.9774L18.2326 35.9782L18.2129 35.9328L18.2607 35.9565C18.0916 35.7339 18.2101 34.8875 18.2322 34.5851C18.2761 33.9883 18.56 33.5469 18.7807 33.0271L18.5063 32.9399L17.7074 32.7198C17.4531 33.1051 17.2797 33.4477 17.1215 33.879C17.0723 34.0131 16.9859 34.233 16.8589 34.3035C16.6486 33.9914 17.2591 32.9076 17.4202 32.6368C17.0308 32.5276 16.7051 32.4421 16.3295 32.2873C16.0865 32.6691 15.8794 32.9927 15.7015 33.4149C15.6232 33.6008 15.5396 33.9629 15.4341 34.0792L15.3875 34.0692C15.2388 33.6153 15.832 32.6602 16.0333 32.2296C15.5364 32.0844 15.0547 31.9444 14.568 31.7665C13.8851 32.4481 13.8169 32.5152 13.2958 33.3449L13.2389 33.3368C13.0892 32.8715 13.998 32.0259 14.283 31.6719C13.7019 31.4962 13.1222 31.3225 12.5449 31.1341C12.2317 31.4162 11.4484 32.4128 11.2557 32.4918C11.1456 32.23 12.0397 31.2143 12.237 31.0127C11.5598 30.7469 10.907 30.5935 10.2344 30.3592C10.0951 30.4669 10.0431 30.5143 9.91745 30.6331C9.74682 30.7943 9.52435 31.2182 9.31888 31.2461L9.24116 31.2052C9.20632 30.9345 9.74825 30.4489 9.94727 30.2637C8.49031 29.7174 5.75885 29.4166 4.17102 29.5313C3.81835 29.5569 2.89179 29.7983 2.52075 29.8998C5.80201 31.5271 6.78988 33.7482 9.19241 36.1301C13.9479 40.7375 21.9437 41.6465 28.0472 39.6152C30.8436 38.6845 33.4801 37.0208 35.503 34.9071C37.3895 32.9358 39.1403 30.3115 41.4888 28.8533C41.205 28.7372 40.8549 28.5492 40.5688 28.6012ZM23.3432 29.0405C23.0887 29.0809 22.8758 29.2549 22.7861 29.4958C22.6963 29.7367 22.7435 30.0071 22.9097 30.2035C23.076 30.3999 23.3353 30.4918 23.5885 30.444C23.9722 30.3715 24.2265 30.0053 24.1593 29.6216C24.0923 29.238 23.7288 28.9791 23.3432 29.0405ZM15.4505 29.5806C15.2272 29.6126 15.039 29.7634 14.9595 29.974C14.8799 30.1846 14.9217 30.4217 15.0683 30.5928C15.2149 30.7638 15.4433 30.8417 15.6643 30.796C15.9918 30.7284 16.2062 30.4135 16.1484 30.085C16.0906 29.7563 15.7816 29.533 15.4505 29.5806ZM20.3316 30.1778C20.0714 30.1961 19.8755 30.4215 19.8941 30.681C19.9126 30.9405 20.1387 31.1358 20.3989 31.1172C20.6589 31.0986 20.8546 30.8733 20.8361 30.6139C20.8175 30.3546 20.5916 30.1593 20.3316 30.1778ZM26.5614 30.2898C26.328 30.3718 26.2041 30.6257 26.2831 30.8595C26.3621 31.0933 26.6149 31.2205 26.8504 31.1449C27.0057 31.0951 27.1221 30.9657 27.155 30.8063C27.1879 30.647 27.1323 30.4823 27.0093 30.3753C26.8864 30.2684 26.7152 30.2357 26.5614 30.2898ZM21.4491 31.0359C21.2873 31.0567 21.1494 31.1631 21.0885 31.3141C21.0276 31.4652 21.0532 31.6372 21.1554 31.764C21.2578 31.8908 21.4207 31.9527 21.5816 31.9258C21.8241 31.8852 21.9894 31.6585 21.9533 31.416C21.9172 31.1734 21.6929 31.0043 21.4491 31.0359Z" fill="#010101"/>
<path d="M50.9839 26.3619C50.2717 26.2343 49.235 25.9711 48.5663 25.683C46.9259 24.9763 45.8854 24.2703 43.9836 24.3911C42.5516 24.4833 41.8932 25.1973 40.4193 25.3615C39.6035 25.4524 37.0277 25.3835 36.723 24.1524C36.5943 23.6325 37.8264 23.3342 38.2219 23.2434C38.7138 23.1303 39.359 22.8195 39.7104 22.4076C40.0938 21.9848 40.1719 21.6613 40.262 21.1374C40.5256 19.6045 39.4601 18.5749 39.0315 17.206C38.6013 15.8956 38.4065 15.2018 38.3417 13.7963C38.2006 10.7296 39.3292 7.96794 41.4007 5.72823C43.2447 3.73456 45.8289 2.23796 48.4292 1.46096C50.0096 0.988764 51.7761 0.782769 53.4217 0.720205C59.1944 0.725925 64.6151 2.89478 68.1212 7.61551C72.0445 12.898 70.3812 19.7287 65.1518 23.3964C60.9788 26.3231 55.9746 27.1576 50.9839 26.3619ZM47.0898 2.84487C45.2932 3.51591 43.0952 5.16551 42.2652 6.93546C42.2044 7.06531 42.15 7.1672 42.19 7.30276C42.2635 7.30605 42.2356 7.31206 42.2756 7.30026C43.0281 6.00973 44.0686 5.06413 45.2654 4.19624C45.8458 3.77539 46.4759 3.46321 47.0817 3.08525C47.143 3.047 47.1763 2.98722 47.1936 2.91958C47.1403 2.84386 47.1756 2.86767 47.0898 2.84487ZM48.3262 3.32092C47.1745 3.54408 45.7397 4.28798 45.0496 5.26869C44.9576 5.39947 44.8405 5.59023 44.8915 5.75254C45.0332 5.75797 45.0572 5.73931 45.1812 5.65444C45.9679 4.85434 46.5842 4.28633 47.6422 3.817C47.9238 3.69209 48.4957 3.54136 48.6931 3.43168L48.6912 3.35789C48.5899 3.2831 48.4514 3.30433 48.3262 3.32092ZM68.049 9.77521C67.9368 9.85844 67.8986 9.85629 67.8563 9.96533C68.0298 10.5876 68.1683 10.9557 68.3064 11.6224C68.8006 14.0082 68.3366 16.2766 67.172 18.3951C67.0233 18.6657 66.425 19.5026 66.46 19.6638C66.5497 19.6312 66.5105 19.656 66.5779 19.5898C68.2246 17.6939 69.05 15.2893 68.8841 12.7733C68.8396 12.0998 68.5585 10.2391 68.049 9.77521ZM67.465 11.053C67.3531 11.2799 67.4629 11.8457 67.4762 12.1243C67.5194 13.023 67.3749 13.8984 67.1754 14.7722C67.1065 15.0736 66.896 15.6338 66.8761 15.901L66.9204 15.9546C67.0406 15.9458 66.9907 15.9682 67.077 15.8892C67.5923 14.6974 67.9081 13.5245 67.8608 12.2135C67.849 11.8836 67.8974 11.1088 67.465 11.053Z" fill="#FEFEFE"/>
<path d="M55.0206 13.4852C56.435 13.3666 57.0701 13.8559 56.1383 15.1787C55.3527 16.2938 54.3392 16.8856 53.014 17.1084C51.7511 17.1978 51.0638 16.4733 51.8014 15.2841C52.4814 14.1876 53.8324 13.7573 55.0206 13.4852Z" fill="black"/>
<path d="M47.8687 14.8695C51.9618 14.5948 48.772 17.1004 46.9413 17.5141C46.4866 17.6364 45.7989 17.6448 45.3947 17.392C44.9334 17.1033 44.9466 16.549 45.229 16.1382C45.8268 15.2684 46.9012 15.0503 47.8687 14.8695Z" fill="black"/>
<path d="M60.4529 11.9392C61.1391 11.7397 62.2591 11.7038 61.7493 12.7568C61.2734 13.7398 60.2259 14.5761 59.2253 14.9634C58.2638 15.1676 57.468 14.9662 58.0389 13.8383C58.5252 12.8776 59.4841 12.2994 60.4529 11.9392Z" fill="black"/>
<path d="M33.9608 2.99023C33.965 2.8089 33.9652 2.62057 33.9829 2.44067C34.0102 2.66139 34.0433 2.8754 34.0397 3.0977L33.9608 2.99023Z" fill="#56575A"/>
<path d="M42.2756 7.30026C42.2356 7.31206 42.2635 7.30605 42.19 7.30276C42.15 7.1672 42.2044 7.06531 42.2652 6.93546C43.0952 5.16551 45.2932 3.51591 47.0898 2.84487C47.1756 2.86767 47.1403 2.84386 47.1936 2.91958C47.1763 2.98722 47.143 3.047 47.0817 3.08525C46.4759 3.46321 45.8458 3.77539 45.2654 4.19624C44.0686 5.06413 43.0281 6.00973 42.2756 7.30026Z" fill="#010101"/>
<path d="M33.9608 2.99023L34.0397 3.0977C34.0726 4.66229 34.0063 5.44144 35.222 6.65568C36.1618 7.59421 36.8227 7.47044 38.0555 7.48953C38.3036 7.49339 38.6154 7.47222 38.8536 7.55295C38.645 7.62466 38.1724 7.60893 37.9285 7.63768C37.1731 7.72684 36.4457 7.64225 35.7763 8.07784C34.3494 9.00621 33.9364 10.3591 33.999 11.9904L33.9324 12.364C33.8994 11.7607 33.8917 11.1383 33.8401 10.5378C33.7025 9.26154 32.658 8.00813 31.3851 7.7395C30.7064 7.59621 29.5174 7.69531 28.9358 7.51491C29.6838 7.45778 30.433 7.48538 31.1902 7.44112C32.1433 7.38542 32.9567 6.48357 33.4505 5.73703C33.9913 4.91934 33.9322 3.94306 33.9608 2.99023ZM33.9665 5.44959C33.4617 6.39992 32.9033 7.0297 31.985 7.59142C32.9319 8.06769 33.5271 8.723 33.9955 9.68362C34.3996 8.80365 35.0465 8.0511 35.9288 7.62281C35.2312 7.16541 34.7396 6.68156 34.2589 5.98693C34.1629 5.84821 34.0529 5.53589 33.9665 5.44959Z" fill="#010101"/>
<path d="M45.1812 5.65444C45.0572 5.73931 45.0332 5.75797 44.8915 5.75254C44.8405 5.59023 44.9576 5.39947 45.0496 5.26869C45.7397 4.28798 47.1745 3.54408 48.3262 3.32092C48.4514 3.30433 48.5899 3.2831 48.6912 3.35789L48.6931 3.43168C48.4957 3.54136 47.9238 3.69209 47.6422 3.817C46.5842 4.28633 45.9679 4.85434 45.1812 5.65444Z" fill="#010101"/>
<path d="M31.985 7.59142C32.9033 7.0297 33.4617 6.39992 33.9665 5.44959C34.0529 5.53589 34.1629 5.84821 34.2589 5.98693C34.7396 6.68156 35.2312 7.16541 35.9288 7.62281C35.0465 8.0511 34.3996 8.80365 33.9955 9.68362C33.5271 8.723 32.9319 8.06769 31.985 7.59142Z" fill="#FEFEFE"/>
<path d="M66.5779 19.5898C66.5105 19.656 66.5497 19.6312 66.46 19.6638C66.425 19.5026 67.0233 18.6657 67.172 18.3951C68.3366 16.2766 68.8006 14.0082 68.3064 11.6224C68.1683 10.9557 68.0298 10.5876 67.8563 9.96533C67.8986 9.85629 67.9368 9.85844 68.049 9.77521C68.5585 10.2391 68.8396 12.0998 68.8841 12.7733C69.05 15.2893 68.2246 17.6939 66.5779 19.5898Z" fill="#010101"/>
<path d="M67.077 15.8892C66.9907 15.9682 67.0406 15.9458 66.9204 15.9546L66.8761 15.901C66.896 15.6338 67.1065 15.0736 67.1754 14.7722C67.3749 13.8984 67.5194 13.023 67.4762 12.1243C67.4629 11.8457 67.3531 11.2799 67.465 11.053C67.8974 11.1088 67.849 11.8836 67.8608 12.2135C67.9081 13.5245 67.5923 14.6974 67.077 15.8892Z" fill="#010101"/>
<path d="M33.9324 12.364L33.999 11.9904C34.0103 12.2418 34.0407 12.9251 33.952 13.1311L34.0083 12.9913L33.8822 12.9527C33.8967 12.8406 33.9205 12.4137 33.9324 12.364Z" fill="#D2D2D3"/>
<path d="M1.59502 29.6512C3.2703 27.9254 4.77921 25.7721 6.29103 23.8594C9.48463 19.819 13.7949 15.6208 19.1727 15.0025C20.7332 14.8231 21.8287 15.2421 23.189 15.9337C23.5746 16.1298 24.2794 16.6044 24.6925 16.5585C25.6157 16.4562 26.5592 15.6531 27.4216 15.2931C28.0158 15.0451 28.2787 14.9675 28.8944 14.8717C32.3351 14.4599 36.7294 18.1955 38.8823 20.5942C39.0818 20.8164 39.4105 21.171 39.5705 21.4137C38.9604 22.4892 38.3751 22.4755 37.282 22.8036C35.8014 23.2481 35.6138 24.7714 37.0713 25.4694C38.8857 26.3384 40.4729 26.1582 42.3179 25.5774C42.6966 26.4521 43.4356 27.4749 44.0695 28.1895C44.3999 28.562 44.7773 28.8977 45.1023 29.2944L45.1405 29.3415C41.8007 28.5226 38.6363 27.3989 35.7881 25.4392C35.255 25.0724 34.7115 24.7221 34.172 24.3646C34.5828 23.8468 34.864 23.3748 34.9939 22.7166C35.0297 22.5348 35.0868 22.3741 35.0544 22.1858L35.0123 22.1653C34.906 22.253 34.5991 23.1631 34.4394 23.4142C34.2102 23.775 34.2079 23.8215 33.8846 24.1544C33.5557 23.9368 33.1313 23.6747 32.863 23.3946C33.3796 22.427 33.6406 21.7638 33.6577 20.6325C33.5492 20.9362 33.4558 21.3514 33.3618 21.671C33.1705 22.3218 32.9467 22.7084 32.5844 23.2627C32.2698 23.0565 32.0139 22.8987 31.687 22.7107C31.869 22.3666 32.3492 21.1286 32.1221 20.7914C32.0159 20.8738 31.7783 21.8431 31.6694 22.0726C31.5678 22.287 31.5162 22.3891 31.3811 22.6073C31.1078 22.5274 30.8616 22.4879 30.5812 22.4381C30.7637 22.0027 30.9228 21.7414 30.9885 21.2236C31.0741 20.55 30.917 19.7197 30.5532 19.1358C30.5083 19.0637 30.4758 19.0695 30.4202 19.0631C30.3884 19.2445 30.6007 19.7484 30.6484 19.9893C30.8006 20.7578 30.7903 21.7964 30.1638 22.3633C30.0237 22.4902 29.8242 22.5168 29.6407 22.5529C29.83 21.9081 29.8461 21.4278 29.702 20.7605C29.653 20.5332 29.5005 20.0841 29.3081 19.9646C29.2072 20.0321 29.4323 20.6817 29.4744 20.8591C29.629 21.5098 29.526 21.9568 29.3226 22.5808C28.9708 22.7424 28.6422 22.9023 28.2964 23.0755C28.3914 22.8521 28.7749 22.0511 28.551 21.8703L28.4778 21.887C28.3838 22.0046 28.3044 22.3846 28.2311 22.57C27.9697 23.2316 27.7241 23.3326 27.1248 23.5964C24.415 24.7891 23.264 23.8219 20.8079 22.8585C20.6127 22.4285 20.3845 22.1455 20.2169 21.6497C20.1032 21.3131 20.1047 20.5525 19.9427 20.3739L19.8412 20.3714C19.6021 20.8751 20.138 22.2243 20.3637 22.7235C19.9506 22.63 19.4868 22.5629 19.0657 22.493C18.5027 21.864 18.2829 21.1386 18.0759 20.3394C17.9968 20.0041 17.962 19.3896 17.8578 19.1438L17.8254 19.1776C17.6964 20.2184 18.0405 21.6624 18.6869 22.5012C18.2161 22.507 17.8296 22.5138 17.3611 22.5547C16.4779 20.9575 16.0508 19.0024 16.2867 17.1845C16.3136 16.9777 16.4401 16.4731 16.2994 16.3606C16.2282 16.3932 16.1703 16.4224 16.1506 16.5102C15.6988 18.5238 16.1028 20.7989 17.0389 22.6096C16.5663 22.6572 16.0286 22.7441 15.5532 22.8105C14.8144 21.6927 14.3603 20.2301 14.1922 18.9043C14.1624 18.6698 14.1638 17.9605 14.031 17.8017C13.9869 17.833 13.9838 17.824 13.9784 17.8809C13.822 19.512 14.4303 21.571 15.2771 22.9026C14.1048 23.2114 13.5268 23.4401 12.4401 23.9577C11.8472 23.2599 11.3872 22.458 11.1369 21.5775C11.0696 21.341 10.9508 20.8093 10.8595 20.6163C10.6779 20.8246 10.9577 21.8003 11.0331 22.0641C11.2601 22.8582 11.6821 23.438 12.178 24.0844C11.9477 24.2285 11.7193 24.3569 11.4828 24.4907C11.0215 23.8997 10.7549 23.3396 10.4283 22.6796C10.3984 22.6192 10.3608 22.6126 10.304 22.6034L10.2894 22.6305C10.2492 23.266 10.8925 24.1401 11.2472 24.6268C10.4562 25.1788 9.41036 25.8303 8.58316 26.3576C6.43442 27.7272 4.13049 29.1673 1.59502 29.6512ZM15.1273 16.6324C14.9408 16.8362 14.5713 17.2415 14.8979 17.4662C15.0394 17.3123 15.2791 16.9156 15.2165 16.7052L15.1273 16.6324ZM31.5672 18.6671C31.5638 18.8806 31.5283 19.2695 31.6577 19.4367C31.734 19.4577 31.7105 19.4601 31.7847 19.4531C31.8394 19.2208 31.824 18.7785 31.5672 18.6671Z" fill="#FEFEFE"/>
<path d="M14.8979 17.4662C14.5713 17.2415 14.9408 16.8362 15.1273 16.6324L15.2165 16.7052C15.2791 16.9156 15.0394 17.3123 14.8979 17.4662Z" fill="#010101"/>
<path d="M31.7847 19.4531C31.7105 19.4601 31.734 19.4577 31.6577 19.4367C31.5283 19.2695 31.5638 18.8806 31.5672 18.6671C31.824 18.7785 31.8394 19.2208 31.7847 19.4531Z" fill="#010101"/>
<path d="M14.6007 24.145C15.4646 23.8474 16.3675 23.7657 17.2692 23.6762C17.7244 23.623 18.2965 23.651 18.7612 23.6641L18.7341 26.0603C18.732 26.5291 18.7518 27.2461 18.6914 27.6905C17.9689 28.0892 16.8902 28.0971 16.0835 28.0841C15.5061 28.0307 15.2285 27.9933 14.6815 27.8099C14.6674 26.5898 14.6159 25.3689 14.6007 24.145Z" fill="#FEFEFE"/>
<path d="M29.4065 27.4272C29.3627 26.2967 29.3511 24.7763 29.4338 23.6711C30.7951 23.6838 32.0117 24.023 33.2325 24.602C33.2631 25.2517 33.3719 26.5264 33.2894 27.2275C33.2808 27.3011 33.1576 27.3177 33.0697 27.3461C31.8532 27.6263 30.6339 27.5906 29.4065 27.4272Z" fill="#FEFEFE"/>
<path d="M23.6118 27.8896C22.618 28.3289 21.2221 28.2927 20.1738 28.0952C19.8549 28.035 19.3136 27.9191 19.2837 27.5308C19.2505 27.1008 19.2639 26.6646 19.2612 26.2325L19.2417 23.7185C19.7044 23.7218 21.3413 23.8902 21.778 24.0439C22.5388 24.3117 23.1634 24.5278 23.9666 24.7491C23.9554 25.7222 23.9897 26.6993 23.9615 27.6731C23.8505 27.7558 23.7317 27.8201 23.6118 27.8896Z" fill="#FEFEFE"/>
<path d="M24.5919 24.7949C26.2728 24.8019 27.2145 24.124 28.7908 23.731C28.8809 23.7148 28.8356 23.7136 28.9266 23.7358C28.9713 23.9134 28.8876 27.0871 28.8592 27.3512C28.7677 28.198 25.6412 27.9807 24.9353 27.8114C24.7633 27.7463 24.599 27.6928 24.5988 27.4777C24.5977 26.5828 24.606 25.691 24.5919 24.7949Z" fill="#FEFEFE"/>
<path d="M9.54328 26.5514C10.8711 25.6713 12.4979 24.7932 14.0106 24.2996L14.0596 24.3132C14.0969 24.4202 14.1062 27.328 14.1171 27.7155C13.0091 28.3572 11.1131 28.2216 9.9082 27.9496L9.55052 27.8553L9.54328 26.5514Z" fill="#FEFEFE"/>
<path d="M33.8624 27.249C33.8569 26.4447 33.8307 25.8594 33.7422 25.0602C34.4248 25.4098 35.0822 25.8674 35.7681 26.2213C36.4483 26.5722 37.1092 26.9702 37.8053 27.2916C37.5184 27.3164 37.1926 27.3036 36.9029 27.288C35.8834 27.2334 34.8832 27.2173 33.8624 27.249Z" fill="#FEFEFE"/>
<path d="M7.3625 27.9799C7.32049 27.972 7.34142 27.9822 7.30801 27.9363C7.4005 27.8274 8.76892 27.0421 8.97654 26.9145C9.04981 27.0369 8.98113 27.6621 8.96772 27.843C8.40141 28.0397 7.95627 28.0131 7.3625 27.9799Z" fill="#FEFEFE"/>
<path d="M36.7354 29.1024C38.021 28.9178 39.3118 28.7968 40.5688 28.6012C40.8549 28.5492 41.205 28.7372 41.4888 28.8533C39.1403 30.3115 37.3895 32.9358 35.503 34.9071C33.4801 37.0208 30.8436 38.6845 28.0472 39.6152C21.9437 41.6465 13.9479 40.7375 9.19241 36.1301C6.78988 33.7482 5.80201 31.5271 2.52075 29.8998C2.89179 29.7983 3.81835 29.5569 4.17102 29.5313C5.75885 29.4166 8.49031 29.7174 9.94727 30.2637C9.74825 30.4489 9.20632 30.9345 9.24116 31.2052L9.31888 31.2461C9.52435 31.2182 9.74682 30.7943 9.91745 30.6331C10.0431 30.5143 10.0951 30.4669 10.2344 30.3592C10.907 30.5935 11.5598 30.7469 12.237 31.0127C12.0397 31.2143 11.1456 32.23 11.2557 32.4918C11.4484 32.4128 12.2317 31.4162 12.5449 31.1341C13.1222 31.3225 13.7019 31.4962 14.283 31.6719C13.998 32.0259 13.0892 32.8715 13.2389 33.3368L13.2958 33.3449C13.8169 32.5152 13.8851 32.4481 14.568 31.7665C15.0547 31.9444 15.5364 32.0844 16.0333 32.2296C15.832 32.6602 15.2388 33.6153 15.3875 34.0692L15.4341 34.0792C15.5396 33.9629 15.6232 33.6008 15.7015 33.4149C15.8794 32.9927 16.0865 32.6691 16.3295 32.2873C16.7051 32.4421 17.0308 32.5276 17.4202 32.6368C17.2591 32.9076 16.6486 33.9914 16.8589 34.3035C16.9859 34.233 17.0723 34.0131 17.1215 33.879C17.2797 33.4477 17.4531 33.1051 17.7074 32.7198L18.5063 32.9399L18.7807 33.0271C18.56 33.5469 18.2761 33.9883 18.2322 34.5851C18.2101 34.8875 18.0916 35.7339 18.2607 35.9565L18.2129 35.9328L18.2326 35.9782L18.2591 35.9774C18.4485 35.6496 18.4286 34.7051 18.5287 34.2917C18.6213 33.9086 18.8729 33.4416 19.0434 33.0714C19.3916 33.1509 19.7345 33.2235 20.084 33.2957C19.7725 33.9226 19.4954 34.5242 19.4418 35.2313C19.4256 35.4453 19.3736 36.0189 19.5045 36.1759C19.6304 36.1037 19.6261 35.7976 19.6327 35.6279C19.6662 34.7662 19.9156 34.0694 20.3851 33.3395C20.8571 33.4238 21.4452 33.4499 21.924 33.4758C21.8148 33.863 21.7824 34.0887 21.8122 34.4833L21.8994 34.5134L21.8486 34.5712L21.8188 34.5094L21.8758 34.5559C21.994 34.3989 22.0935 33.781 22.1797 33.511C22.8639 33.5107 23.5807 33.4987 24.2571 33.4043C24.3488 33.6883 24.4804 34.4775 24.6009 34.5935L24.6492 34.5575C24.7563 34.1523 24.5989 33.7539 24.4781 33.369C25.2518 33.2211 25.871 33.0207 26.6227 32.8198C27.0175 33.2831 27.2098 33.6541 27.5198 34.1696C27.5581 34.2333 27.6151 34.2902 27.6894 34.3113L27.7113 34.2531C27.6635 33.766 27.1678 33.1016 26.8523 32.7272C27.1782 32.5824 27.6034 32.4246 27.9427 32.2859C28.7438 33.2503 29.1279 34.2999 29.437 35.4835C29.4676 35.6004 29.5187 35.7017 29.6276 35.7604L29.6752 35.737C29.7066 35.5361 29.6307 35.2465 29.5869 35.0477C29.3378 33.9183 28.8925 33.0751 28.2201 32.1512C28.5264 31.9953 28.8717 31.8579 29.1904 31.7234C30.0172 32.3502 30.4674 33.107 30.8216 34.0398C30.8474 34.108 30.903 34.1271 30.9624 34.1555C31.01 34.0855 31.0094 34.0961 30.9982 33.9842C30.9037 33.0368 30.1276 32.1731 29.4795 31.5623C29.7182 31.4334 29.9452 31.3334 30.1929 31.2224C31.1316 32.2285 31.7313 34.0245 31.9808 35.3498C32.0039 35.4726 32.0632 35.6097 32.1761 35.6709L32.2225 35.6447C32.2283 35.618 32.2341 35.5914 32.2398 35.5648C32.0282 34.0232 31.4374 32.2996 30.4599 31.1071C30.8433 30.932 31.1645 30.801 31.5588 30.6508C32.4474 31.3536 32.8605 32.208 33.23 33.2176C33.2619 33.3049 33.3524 33.3386 33.4381 33.3566C33.4817 33.3048 33.4889 33.2416 33.4748 33.1751C33.2668 32.1939 32.5755 31.1497 31.8179 30.5451C32.5072 30.2759 33.131 30.0745 33.8384 29.8586C34.1593 30.0632 35.1033 31.0444 35.2857 31.0393L35.3054 30.9664C35.209 30.5663 34.5306 30.0539 34.1889 29.7696L35.0142 29.4944C35.3715 29.8069 35.6281 30.1316 35.8827 30.5312C35.9938 30.7055 36.2088 31.1912 36.411 31.1925C36.5136 31.1061 36.4825 31.1586 36.513 31.0334C36.3646 30.5838 35.6821 29.7714 35.3293 29.4269C35.6846 29.321 35.9412 29.2475 36.3083 29.1746C36.8228 29.481 37.0691 29.8725 37.4699 30.2907C37.52 30.3429 37.5575 30.3274 37.6185 30.3196C37.8291 30.0524 36.9342 29.2715 36.7354 29.1024Z" fill="#FEFEFE"/>
<path d="M23.5885 30.444C23.3353 30.4918 23.076 30.3999 22.9097 30.2035C22.7435 30.0071 22.6963 29.7367 22.7861 29.4958C22.8758 29.2549 23.0887 29.0809 23.3432 29.0405C23.7288 28.9791 24.0923 29.238 24.1593 29.6216C24.2265 30.0053 23.9722 30.3715 23.5885 30.444Z" fill="#010101"/>
<path d="M15.6643 30.796C15.4433 30.8417 15.2149 30.7638 15.0683 30.5928C14.9217 30.4217 14.8799 30.1846 14.9595 29.974C15.039 29.7634 15.2272 29.6126 15.4505 29.5806C15.7816 29.533 16.0906 29.7563 16.1484 30.085C16.2062 30.4135 15.9918 30.7284 15.6643 30.796Z" fill="#010101"/>
<path d="M44.0562 29.581L44.1167 29.568C44.1116 29.9234 44.1065 30.2772 44.1068 30.6328C44.0915 30.5249 44.0768 30.434 44.0554 30.3272L44.0109 30.3349C44.0081 30.1332 44.042 29.7934 44.0562 29.581Z" fill="#56575A"/>
<path d="M20.3989 31.1172C20.1387 31.1358 19.9126 30.9405 19.8941 30.681C19.8755 30.4215 20.0714 30.1961 20.3316 30.1778C20.5916 30.1593 20.8175 30.3546 20.8361 30.6139C20.8546 30.8733 20.6589 31.0986 20.3989 31.1172Z" fill="#010101"/>
<path d="M26.8504 31.1449C26.6149 31.2205 26.3621 31.0933 26.2831 30.8595C26.2041 30.6257 26.328 30.3718 26.5614 30.2898C26.7152 30.2357 26.8864 30.2684 27.0093 30.3753C27.1323 30.4823 27.1879 30.647 27.155 30.8063C27.1221 30.9657 27.0057 31.0951 26.8504 31.1449Z" fill="#010101"/>
<path d="M44.0109 30.3349L44.0554 30.3272C44.0768 30.434 44.0915 30.5249 44.1068 30.6328C44.1535 32.0724 44.07 33.4487 45.2144 34.5446C46.0879 35.3811 46.8878 35.3952 48.0365 35.4482C48.1643 35.4541 48.46 35.4407 48.5613 35.4883C48.4105 35.5511 47.7677 35.5613 47.5789 35.5507C46.0108 35.4622 44.8851 36.2712 44.2754 37.695C44.0254 38.2787 44.0444 38.9152 43.9669 39.5721L43.8988 39.1541C43.8987 38.0438 43.7928 37.3384 42.9826 36.4862C41.9682 35.4189 40.733 35.5046 39.3449 35.4886L39.5122 35.4154C40.5709 35.442 41.7861 35.3465 42.5857 34.641C44.0811 33.3213 43.8452 32.0406 44.0109 30.3349ZM43.9842 33.0856C43.5842 34.2217 43.0125 34.8847 41.9365 35.3997L41.9076 35.4135C42.962 35.9331 43.5139 36.3972 43.9734 37.5056L44.006 37.4593C44.1277 37.2837 44.2283 37.027 44.3587 36.8379C44.8186 36.1713 45.3207 35.8056 46.0325 35.4596C45.1867 35.0101 44.637 34.5616 44.2204 33.659C44.1656 33.5402 44.0459 33.153 43.9842 33.0856Z" fill="#010101"/>
<path d="M21.5816 31.9258C21.4207 31.9527 21.2578 31.8908 21.1554 31.764C21.0532 31.6372 21.0276 31.4652 21.0885 31.3141C21.1494 31.1631 21.2873 31.0567 21.4491 31.0359C21.6929 31.0043 21.9172 31.1734 21.9533 31.416C21.9894 31.6585 21.8241 31.8852 21.5816 31.9258Z" fill="#010101"/>
<path d="M41.9076 35.4135L41.9365 35.3997C43.0125 34.8847 43.5842 34.2217 43.9842 33.0856C44.0459 33.153 44.1656 33.5402 44.2204 33.659C44.637 34.5616 45.1867 35.0101 46.0325 35.4596C45.3207 35.8056 44.8186 36.1713 44.3587 36.8379C44.2283 37.027 44.1277 37.2837 44.006 37.4593L43.9734 37.5056C43.5139 36.3972 42.962 35.9331 41.9076 35.4135Z" fill="#FEFEFE"/>
<path d="M38.5323 35.4785C38.8435 35.4141 39.1931 35.4185 39.5122 35.4154L39.3449 35.4886C39.1538 35.5038 38.74 35.4832 38.5323 35.4785Z" fill="#959299"/>
<path d="M43.8988 39.1541L43.9669 39.5721C43.9752 39.6342 43.9843 39.9086 43.9404 39.9494C43.8669 39.7432 43.891 39.3749 43.8988 39.1541Z" fill="#959299"/>
</svg>
