<svg width="61" height="43" viewBox="0 0 61 43" fill="none" xmlns="http://www.w3.org/2000/svg">
<path d="M15.3281 6.74662C15.4029 6.65127 15.4877 6.55877 15.559 6.46755C16.1296 5.73722 16.7867 5.24572 17.4419 4.63009C18.9754 3.18928 20.676 1.82279 22.5959 0.932658C23.391 0.563981 24.293 0.404973 25.1627 0.337857C26.8314 0.179096 28.2553 0.81069 29.5409 1.79574C31.2102 3.07483 33.2696 2.9173 35.0728 1.98753C36.1093 1.45313 36.9759 0.703083 38.2564 0.688291C42.2519 0.642006 45.4339 3.91997 48.2026 6.39723C48.4423 6.19391 48.7777 5.84637 49.0131 5.61692L50.5952 4.06511C50.7659 3.89692 51.5599 3.06145 51.7462 3.08888C51.6883 3.37565 48.8561 6.22947 48.4628 6.65719C49.2425 7.45833 49.877 8.26311 50.5738 9.1302C51.2274 8.56843 55.5275 4.7258 56.0406 4.60223L56.0599 4.64377C55.9111 4.89756 55.3309 5.36898 55.0756 5.59788C54.2756 6.31532 53.4444 7.0234 52.6307 7.72143C52.185 8.10373 51.1519 8.92965 50.8127 9.36236L50.7841 9.39934C51.0828 9.93559 51.6444 10.6511 51.9958 11.1919C52.3874 11.7948 52.8136 12.5529 53.2214 13.1178C54.349 12.4342 55.4466 11.7251 56.5661 11.0442L58.5867 9.8379C58.7837 9.72087 59.5456 9.21451 59.7102 9.25457L59.7404 9.30849C59.549 9.67643 58.415 10.2665 58.052 10.4883C56.5027 11.4349 54.9463 12.4066 53.4186 13.3883C53.4918 13.5447 53.5794 13.7034 53.6661 13.8529C54.2167 14.8017 54.7803 15.7401 55.3706 16.6648C55.9945 16.4264 56.8488 16.2867 57.5036 16.0973C57.8846 15.9871 60.5319 15.126 60.6539 15.4979C60.5637 15.6955 59.9219 15.8209 59.699 15.8789C58.6283 16.157 57.5874 16.527 56.5115 16.7877C56.2323 16.8554 55.9144 16.9334 55.6583 17.0608C55.7497 17.2782 55.9832 17.6366 56.127 17.8436C56.8039 18.8182 57.6957 19.8896 58.7536 20.4436C59.0051 20.5754 59.2727 20.6912 59.5339 20.797C59.8272 20.9158 60.5273 20.9545 60.7146 21.1792L60.7034 21.2284C60.104 21.6065 58.2319 20.6776 57.8805 21.1481C57.55 21.6478 57.259 22.2271 56.8875 22.699C55.6712 24.2441 54.638 25.8716 53.3792 27.3874C53.9542 27.691 56.3027 29.1561 56.4666 29.6595L56.4248 29.6737C55.8447 29.54 53.6946 28.0099 53.1824 27.5799C51.743 29.4035 50.314 30.6484 48.5783 32.1398C49.1386 32.5189 52.8718 34.9202 53.0238 35.237L53.0036 35.2718C52.9096 35.2821 52.7743 35.258 52.6984 35.2037C51.3104 34.2101 49.7487 33.2863 48.3716 32.2961C47.5216 33.158 46.3784 33.9264 45.3141 34.4901C46.2249 35.0439 46.7771 35.5201 47.5984 36.1942L50.1311 38.2937C50.6463 38.7148 51.1913 39.1025 51.7163 39.5104C51.9737 39.7104 52.8942 40.2869 52.7476 40.65L52.6705 40.6669C52.2354 40.5565 50.5156 39.0033 49.9789 38.6191C48.2529 37.3838 46.6502 35.9616 45.0103 34.6202C44.5754 34.7901 44.0761 35.0552 43.617 35.2468C42.5896 35.6753 41.6906 35.9648 40.626 36.2664C40.7683 36.5178 40.9855 36.8251 41.1439 37.0766L42.2304 38.8216C42.3811 39.0596 42.8665 39.7237 42.8613 39.9668L42.8141 40.0094C42.776 40.0074 42.7456 40.0079 42.7079 39.9956C42.3786 39.8882 40.6281 36.8638 40.2886 36.3527C39.2809 36.6108 38.2265 36.8153 37.2065 37.0569C37.5438 37.8717 37.8165 38.7084 38.0574 39.5562C38.1119 39.7476 38.2348 40.0239 38.1286 40.2023C38.0757 40.2049 38.0724 40.2137 38.0309 40.1902C37.8002 40.0601 37.0566 37.5939 36.8678 37.1332C35.9802 37.3304 35.1396 37.4935 34.2443 37.6435C33.4522 37.7716 32.8171 37.839 32.021 37.9066C32.1181 38.7053 32.1275 39.5053 32.1931 40.311C32.2262 40.7174 32.4361 42.144 32.0493 42.3132C31.6175 42.3259 31.6698 41.81 31.6617 41.5011C31.6311 40.3097 31.6417 39.1184 31.6476 37.9268C30.8743 37.9445 29.8333 37.9456 29.0705 37.8161C27.8198 37.6037 26.4989 37.4817 25.2905 37.1207C25.1533 37.6965 24.701 39.3829 24.3685 39.8019C24.3208 39.8619 24.291 39.8971 24.2123 39.9032C24.0924 39.6342 24.8811 37.4383 25.0227 37.0619C24.1032 36.8172 23.1715 36.6325 22.2559 36.3696C21.8065 36.2497 21.4097 36.0061 20.9879 35.816C20.5695 35.6275 20.1366 35.4693 19.7077 35.3057C18.6916 36.4367 17.8237 37.9292 16.8896 39.1348C16.66 39.4311 15.6633 40.9177 15.3596 40.9265L15.3121 40.8793C15.291 40.581 17.8613 37.0964 18.2448 36.5896C18.6182 36.096 19.0127 35.6195 19.389 35.1284C18.1203 34.4852 16.9506 33.7601 15.7641 32.9815C14.9671 33.5902 11.1482 37.142 10.6082 37.2174L10.6048 37.177C10.9433 36.5375 14.7284 33.4003 15.4368 32.7873C15.0773 32.5443 14.6648 32.3274 14.2984 32.0774C13.4773 31.5169 12.5387 30.7179 11.8697 29.9858C11.4501 30.2664 11.0265 30.5464 10.571 30.765C9.46121 31.2976 8.34779 31.8109 7.27769 32.4214C6.89391 32.6279 6.49843 32.8086 6.10072 32.9866C5.67762 33.1761 5.24988 33.3451 4.81594 33.5099C4.30122 33.7054 3.80197 33.9462 3.30317 34.1788C3.28364 34.173 3.26411 34.1671 3.24458 34.1613L3.24144 34.1113C3.34124 33.9904 3.48487 33.9222 3.62494 33.8566C4.57785 33.4106 5.45668 32.8093 6.41874 32.3811C7.78787 31.7718 9.10536 31.0619 10.4456 30.3935C10.8437 30.195 11.2538 30.0228 11.6468 29.8153C11.2312 29.382 10.7644 28.9785 10.3292 28.5612C9.81448 28.0678 9.38263 27.5964 8.92213 27.0552C8.46285 27.2482 7.67102 27.4759 7.18635 27.6143L5.01423 28.2288L2.42711 28.9516C2.1467 29.03 1.31784 29.3452 1.11343 29.2137C1.18595 29.1213 1.68624 28.9914 1.83418 28.9508C4.14242 28.3168 6.39483 27.51 8.67554 26.7955C8.34335 26.3698 7.95261 25.9691 7.62788 25.5419C7.0515 24.7837 6.46706 24.0374 5.87743 23.2896C5.27622 22.5271 4.7594 21.6648 4.14477 20.9134C3.10579 20.8919 1.76156 20.3409 0.75353 20.0712C0.66122 20.0465 0.644012 20.0355 0.607422 19.9687C0.646367 19.8961 0.615896 19.9197 0.695912 19.891C0.775298 19.9093 0.840658 19.9222 0.920125 19.9361C1.14701 19.8293 1.455 19.7633 1.69787 19.6941C3.30809 19.2464 4.72961 18.5202 6.10103 17.579C7.27855 16.771 8.08444 15.8649 9.01081 14.7839C8.28548 14.7007 4.5592 14.2271 4.15071 13.9531L4.16031 13.9131C4.54564 13.814 8.70254 14.3473 9.33259 14.434C10.0881 13.5451 10.9625 12.3659 11.6412 11.4028C11.0371 11.0348 9.75526 10.6082 9.06536 10.2972C7.89295 9.76863 6.69768 9.26344 5.52034 8.73958C4.68215 8.36659 3.81307 8.02497 3.00847 7.575C2.93927 7.53629 2.79313 7.40391 2.75268 7.33606C2.6944 7.23831 2.69974 7.24453 2.72064 7.15671C3.05122 6.89478 4.36647 7.76562 4.73097 7.95027C7.03036 9.11541 9.56253 9.92665 11.8698 11.0591C12.9352 9.73381 13.9353 8.41423 15.0191 7.09058C13.9587 6.45597 12.7089 5.96532 11.6198 5.3654C11.4991 5.29884 11.3437 5.25447 11.3286 5.11044L11.3797 5.06785C11.6482 5.05281 14.909 6.52099 15.3281 6.74662ZM25.5194 1.04698C23.2262 1.17795 21.4416 2.34635 19.6145 3.5974C17.8868 4.78028 16.8013 6.13961 15.5158 7.76741C14.9005 8.54674 14.2361 9.31053 13.6707 10.1354C12.5091 11.7861 11.3994 13.4301 10.0843 14.9657C9.50904 15.6375 8.98505 16.2966 8.30206 16.8829C7.38758 17.6679 6.41966 18.4105 5.39406 19.0475C4.86226 19.3779 3.99504 19.7373 3.53316 20.0853C5.48115 20.9127 8.25238 20.8969 10.1931 20.0829C11.2282 19.6488 12.4242 19.0244 13.3721 18.4176C14.1736 17.9045 14.9561 17.1963 15.7441 16.6536C17.9082 15.1226 20.3361 13.9791 22.7546 12.9129C22.9313 12.835 23.1066 12.7637 23.2723 12.664C22.6348 12.0299 22.0132 11.4955 21.5934 10.6735C21.4901 10.4712 21.0687 9.88098 21.2837 9.65942C21.6139 9.65184 21.831 10.2421 22.0182 10.4789C22.5388 11.1376 23.3485 12.0612 24.1259 12.4016C24.5281 12.3115 24.9512 12.1873 25.3604 12.0866C25.9397 11.9439 26.6144 11.8351 27.1786 11.6825C26.2798 10.4494 25.5042 9.07547 25.3164 7.53525C25.3127 7.50523 25.3473 7.44034 25.3624 7.41365L25.4431 7.36453C25.4901 7.37932 25.5413 7.38684 25.559 7.45211C25.6479 7.77924 25.7567 8.11976 25.8565 8.44128C26.1889 9.51151 27.0485 10.8377 27.9289 11.5412C28.9687 11.4149 30.002 11.305 31.0473 11.2416C31.2125 11.2316 31.3877 11.2219 31.5519 11.2046C31.5046 10.357 31.2975 6.54958 31.8458 5.97561C31.8899 5.92945 31.8936 5.92834 31.9597 5.92489C32.0202 5.9946 32.0276 6.02781 32.0106 6.12914C31.8005 7.38567 31.7612 8.67893 31.8211 9.94631C31.8504 10.3338 31.8601 10.8356 31.91 11.2046C33.0034 11.2048 34.0838 11.2403 35.1713 11.3567C35.4377 11.3852 35.7155 11.4172 35.982 11.4356C36.7006 10.6627 37.253 9.6988 37.6832 8.73835C37.9186 8.21282 38.0336 7.64168 38.2389 7.10685C38.2743 7.01465 38.3553 6.92652 38.4574 6.91623C38.6341 7.06999 38.4584 7.64834 38.3978 7.85493C38.0331 9.09975 37.337 10.4497 36.4449 11.4004L36.3455 11.5045C37.9203 11.7854 39.1144 12.1234 40.6124 12.6442C40.8886 12.3831 42.0593 11.0237 42.1911 10.9626L42.2438 10.9698C42.3839 11.2934 41.2877 12.4785 41.0371 12.7677C41.5869 12.9957 42.1432 13.1985 42.6933 13.4293C43.471 13.7557 44.1924 14.1218 44.9319 14.522C46.9655 15.6224 48.8402 16.9805 50.7577 18.2666C51.6632 18.8737 52.5641 19.5325 53.5481 20.0095C54.46 20.4341 55.6784 20.6506 56.6811 20.5261C56.8147 20.5096 57.1356 20.4609 57.2232 20.3705C57.2314 20.2199 57.1085 20.0784 57.0103 19.9725C53.2956 15.9671 51.2551 10.697 47.4471 6.78292C45.254 4.52876 42.3097 1.73398 39.0164 1.40075C36.2984 1.17419 35.0889 3.73656 32.4172 3.64892C29.3039 3.54674 28.7727 0.753003 25.5194 1.04698ZM30.2968 11.9249C29.8374 11.9554 29.3811 11.9989 28.9307 12.0741C26.3494 12.5053 23.8214 13.0717 21.4635 14.248C21.32 14.3196 21.1952 14.3719 21.0777 14.4871C21.1049 14.8007 22.8038 15.7166 23.15 15.8743C24.9331 16.6799 27.3438 16.8304 29.2285 16.2672C29.9428 16.0538 30.8098 15.4181 31.526 15.3147L31.5408 13.3813C31.542 13.0497 31.5583 12.4756 31.5123 12.1597C31.06 11.9665 30.8025 11.8852 30.2968 11.9249ZM33.1002 11.9605C32.6383 11.9993 32.3404 12.0267 31.8861 12.1423C31.9201 12.6425 31.8903 13.2701 31.8835 13.785C31.8781 14.1913 31.9006 14.9236 31.8434 15.2941C33.1229 15.4118 33.0115 15.6986 34.0327 16.1662C35.8291 16.9886 38.3662 16.7216 40.1319 15.9175C43.6839 14.2782 41.7955 13.8207 39.3635 13.0354C38.3515 12.7087 37.294 12.5179 36.2544 12.3031C35.1284 12.0758 34.2506 11.8474 33.1002 11.9605ZM21.031 18.8677C20.9721 18.9488 20.9105 19.0532 20.9389 19.1561C21.0425 19.5315 21.3371 20.12 21.7932 20.0312C21.8506 19.9196 21.9082 19.8141 21.8567 19.687C21.7352 19.3872 21.3955 18.8317 21.031 18.8677ZM47.239 18.8731C46.9818 19.1854 47.0675 19.6566 47.498 19.7272C47.768 19.3966 47.7296 18.9129 47.239 18.8731ZM35.6781 19.0632C35.1947 19.2804 35.0776 19.6545 35.0338 20.1515L35.3955 20.0937C35.666 19.9874 35.7807 19.8876 35.9278 19.6289C36.1124 19.3041 36.1185 19.054 35.6781 19.0632ZM56.7814 21.0099C55.86 21.2118 55.4994 21.1959 54.5973 21.2878C52.1057 21.5416 49.5881 21.2724 47.1646 21.9626C45.0458 22.5662 43.0632 23.833 41.0989 24.7928C40.0057 25.327 38.8792 25.6066 37.7235 25.9444C37.9769 26.1595 38.3019 26.421 38.5103 26.6764C39.2494 27.5825 39.6344 28.8513 39.7346 30.0017C39.7501 30.1799 39.772 30.4225 39.6683 30.5682L39.611 30.5799C39.4561 30.4773 39.4112 30.2643 39.3797 30.0784C39.1799 28.8959 38.912 27.7215 38.0723 26.8135C37.8182 26.5387 37.4189 26.2578 37.2051 26.008C36.1155 26.3035 35.2105 26.3605 34.1883 26.5873C35.0177 27.3448 35.4673 27.9677 35.5064 29.1139C35.5136 29.3254 35.5314 29.7512 35.435 29.9337C35.3409 30.005 35.3933 29.9856 35.2703 29.9881C35.1846 29.9317 35.157 29.913 35.1305 29.7945C35.0958 29.6396 35.107 29.4653 35.0812 29.3063C34.9874 28.7301 34.8537 28.0492 34.5503 27.5418C34.4045 27.2979 34.1529 27.058 33.9765 26.833C33.9602 26.8122 33.9762 26.6655 33.9818 26.6285C33.6709 26.6065 32.9831 26.7355 32.6337 26.7577C31.9814 26.7993 31.3354 26.8205 30.6824 26.815C29.1219 26.8017 27.5318 26.4737 26.0055 26.3458C25.1938 26.7487 24.6481 27.2879 24.2731 28.1533C24.1683 28.395 24.1464 28.7512 23.9469 28.9235C23.8288 28.9517 23.8852 28.9562 23.7718 28.9065C23.6811 28.7663 23.7135 28.5065 23.7518 28.3525C23.9674 27.4866 24.5309 26.8084 25.1987 26.2544C23.3847 26.0079 22.2404 25.6163 20.5969 24.8165C18.6196 23.8543 16.7113 22.7098 14.6267 22.006C13.3939 21.6123 11.4499 21.3507 10.1611 21.2309C8.55179 21.0907 6.91431 21.264 5.32472 21.1538C6.32524 22.253 6.91499 23.5792 7.92808 24.6702C8.3028 25.0738 8.69594 25.4592 9.06727 25.8636C10.2204 27.1126 11.4605 28.5663 12.7203 29.6944C15.3134 32.0163 18.7462 34.0574 22.0369 35.175C24.7385 36.0926 27.9299 36.7295 30.7743 36.9122C33.9802 37.1181 37.0843 36.6386 40.0909 35.5205C41.1521 35.1287 42.3078 34.8228 43.3355 34.3309C45.9889 33.0645 48.2693 31.2555 50.426 29.279C51.5462 28.2524 52.5439 27.1604 53.5229 25.9985C53.9701 25.4678 57.1818 21.6253 56.9178 21.0226C56.8352 20.9967 56.8653 20.9995 56.7814 21.0099ZM20.9651 21.018C20.891 21.1264 20.844 21.2247 20.8867 21.3559C21.0086 21.7311 21.32 22.3123 21.766 22.2764C21.8301 22.1951 21.8882 22.1102 21.8575 22.0021C21.7508 21.6256 21.3886 21.0319 20.9651 21.018ZM35.6243 22.6478C35.3713 22.6706 34.9384 22.6934 34.7124 22.7831C33.7062 23.1822 32.7828 23.866 31.8424 24.4083L31.8035 26.5253C33.5158 26.41 35.4135 26.0674 37.0797 25.684C38.5072 25.321 40.2874 24.8067 41.642 24.1871C40.534 23.0263 38.2174 22.6297 36.6696 22.632C36.4403 22.6324 35.8247 22.6143 35.6243 22.6478ZM27.2305 22.8651C25.968 22.9378 24.5458 23.0814 23.446 23.743C22.9684 24.0302 22.2699 24.4805 21.9043 24.8834C23.193 25.4568 24.244 25.6462 25.6308 25.8349C25.9985 25.885 26.3643 25.9662 26.7471 26.0136C28.2762 26.2468 29.9045 26.579 31.4393 26.5455C31.4521 25.8896 31.4855 25.2129 31.4645 24.5611C31.4577 24.3519 30.7585 24.0076 30.5681 23.8966C29.5265 23.2891 28.5079 22.8242 27.2749 22.8634L27.2305 22.8651Z" fill="black"/>
<path d="M3.5332 20.0852C3.99509 19.7372 4.86231 19.3778 5.39411 19.0475C6.41971 18.4105 7.38762 17.6678 8.3021 16.8828C8.9851 16.2965 9.50909 15.6375 10.0844 14.9657C11.3994 13.4301 12.5092 11.7861 13.6707 10.1353C14.2361 9.31048 14.9005 8.54668 15.5159 7.76736C16.8014 6.13956 17.8869 4.78023 19.6145 3.59734C21.4416 2.3463 23.2262 1.1779 25.5194 1.04693C28.7727 0.75295 29.3039 3.54668 32.4172 3.64887C35.089 3.73651 36.2985 1.17414 39.0164 1.40069C42.3098 1.73393 45.2541 4.52871 47.4472 6.78287C51.2551 10.6969 53.2957 15.9671 57.0103 19.9725C57.1086 20.0784 57.2314 20.2198 57.2232 20.3705C57.1356 20.4609 56.8148 20.5095 56.6811 20.5261C55.6784 20.6506 54.4601 20.4341 53.5482 20.0095C52.5641 19.5324 51.6632 18.8737 50.7578 18.2665C48.8402 16.9805 46.9655 15.6224 44.932 14.522C44.1925 14.1218 43.471 13.7556 42.6934 13.4292C42.1433 13.1984 41.5869 12.9956 41.0371 12.7676C41.2878 12.4784 42.384 11.2934 42.2439 10.9697L42.1911 10.9626C42.0593 11.0237 40.8887 12.3831 40.6125 12.6442C39.1144 12.1233 37.9204 11.7853 36.3456 11.5045L36.445 11.4003C37.3371 10.4496 38.0331 9.0997 38.3979 7.85488C38.4585 7.64829 38.6342 7.06994 38.4575 6.91617C38.3553 6.92646 38.2743 7.0146 38.2389 7.1068C38.0337 7.64163 37.9187 8.21277 37.6833 8.73829C37.2531 9.69875 36.7006 10.6627 35.982 11.4356C35.7155 11.4171 35.4377 11.3852 35.1714 11.3566C34.0839 11.2403 33.0034 11.2047 31.91 11.2045C31.8602 10.8355 31.8504 10.3338 31.8212 9.94626C31.7613 8.67888 31.8006 7.38562 32.0107 6.12908C32.0276 6.02776 32.0202 5.99454 31.9598 5.92484C31.8936 5.92829 31.8899 5.9294 31.8458 5.97556C31.2976 6.54953 31.5047 10.3569 31.5519 11.2045C31.3877 11.2218 31.2125 11.2315 31.0473 11.2416C30.0021 11.305 28.9687 11.4149 27.929 11.5411C27.0486 10.8376 26.189 9.51145 25.8566 8.44123C25.7567 8.1197 25.6479 7.77919 25.559 7.45205C25.5413 7.38679 25.4901 7.37927 25.4432 7.36448L25.3624 7.4136C25.3473 7.44028 25.3128 7.50518 25.3164 7.53519C25.5042 9.07541 26.2799 10.4494 27.1787 11.6825C26.6145 11.835 25.9398 11.9438 25.3605 12.0865C24.9512 12.1872 24.5282 12.3115 24.1259 12.4016C23.3485 12.0612 22.5388 11.1375 22.0183 10.4789C21.8311 10.242 21.6139 9.65179 21.2837 9.65937C21.0687 9.88093 21.4902 10.4711 21.5934 10.6734C22.0132 11.4954 22.6349 12.0299 23.2724 12.6639C23.1066 12.7636 22.9314 12.8349 22.7546 12.9128C20.3362 13.9791 17.9082 15.1226 15.7442 16.6535C14.9562 17.1963 14.1737 17.9044 13.3722 18.4176C12.4242 19.0244 11.2283 19.6487 10.1932 20.0828C8.25243 20.8969 5.48119 20.9126 3.5332 20.0852ZM25.6367 1.50892C24.4692 1.57351 23.4242 1.85504 22.421 2.4658C22.2368 2.57791 21.8214 2.82073 21.8341 3.04988C21.9401 3.15027 21.9982 3.13369 22.125 3.04901C24.692 1.33358 27.3542 1.39342 29.6449 3.5041C30.5265 4.31639 32.1701 4.66183 33.3884 4.48273C34.4957 4.3379 35.248 3.92239 36.1739 3.33591C36.3862 3.20149 36.8244 3.00735 36.8683 2.74604C36.8319 2.65118 36.8626 2.68317 36.7835 2.638C36.4987 2.67898 35.5423 3.3446 35.1885 3.5248C33.7293 4.2682 31.987 4.45081 30.5034 3.66341C29.9814 3.38638 29.5358 3.0039 28.9725 2.80557C28.3534 1.86521 26.6927 1.47674 25.6367 1.50892ZM38.8519 1.99075C38.7927 2.08356 38.7723 2.10039 38.7726 2.21163C38.8835 2.38802 39.2921 2.31345 39.5053 2.3373C39.9584 2.38802 40.3696 2.49298 40.7922 2.6661C41.2148 2.79614 42.1889 3.43556 42.4448 3.44234C42.5001 3.34706 42.5318 3.31532 42.5207 3.20648C42.3603 2.88563 41.014 2.34488 40.6676 2.22439C40.0509 2.00992 39.5023 1.94563 38.8519 1.99075ZM20.9037 3.27341C20.5608 3.49226 18.1973 4.85308 18.4447 5.2395C18.4856 5.24912 18.5128 5.26052 18.5518 5.25756C19.3469 4.66738 20.1317 4.13618 20.9667 3.60566C21.0894 3.5277 21.0933 3.45652 21.0398 3.33646C20.9594 3.27699 20.9946 3.28728 20.9037 3.27341ZM43.5775 3.85065C43.5118 3.95776 43.4906 3.95295 43.4898 4.05871C43.7381 4.34647 44.3675 4.84328 44.6691 5.09442C46.1106 6.29499 47.2719 7.67467 48.4501 9.12287C48.6368 9.35226 49.0678 9.91014 49.3258 9.97782C49.3609 9.93122 49.4055 9.90164 49.3924 9.84784C49.3434 9.64729 49.1498 9.46277 49.0144 9.30277C48.401 8.57861 47.8231 7.81297 47.1949 7.10242C46.1493 5.91991 44.9486 4.87508 43.7017 3.91222C43.6764 3.89268 43.6069 3.86322 43.5775 3.85065ZM38.2988 9.27775C38.0309 9.65789 37.1231 10.8887 37.0191 11.271C37.043 11.3881 37.0494 11.3613 37.1565 11.4623C37.7136 11.0262 38.0845 10.0787 38.4024 9.44292C38.4341 9.37944 38.359 9.30518 38.2988 9.27775ZM25.4898 9.92062C25.3277 10.3064 26.0447 11.1873 26.3359 11.4296C26.3435 11.4359 26.4148 11.4569 26.4263 11.4609C26.4865 11.2646 26.4685 11.2499 26.3751 11.0648C26.181 10.6796 25.7646 10.3303 25.5743 9.9666L25.4898 9.92062Z" fill="#FEFEFE"/>
<path d="M33.3885 4.48274C32.1703 4.66184 30.5267 4.3164 29.6451 3.5041C27.3543 1.39342 24.6922 1.33358 22.1252 3.04902C21.9984 3.1337 21.9403 3.15028 21.8343 3.04988C21.8215 2.82073 22.2369 2.57791 22.4211 2.4658C23.4244 1.85504 24.4694 1.57351 25.6369 1.50892C26.6929 1.47675 28.3536 1.86521 28.9727 2.80557C29.5359 3.0039 29.9816 3.38638 30.5036 3.66342C31.9871 4.45081 33.7295 4.2682 35.1887 3.52481C35.5424 3.3446 36.4988 2.67898 36.7837 2.638C36.8628 2.68317 36.8321 2.65119 36.8684 2.74604C36.8245 3.00735 36.3863 3.20149 36.1741 3.33591C35.2481 3.92239 34.4959 4.3379 33.3885 4.48274Z" fill="black"/>
<path d="M42.4457 3.44238C42.1898 3.4356 41.2156 2.79618 40.7931 2.66614C40.3705 2.49302 39.9593 2.38806 39.5062 2.33734C39.2929 2.31349 38.8843 2.38806 38.7734 2.21167C38.7731 2.10043 38.7936 2.0836 38.8528 1.99079C39.5032 1.94567 40.0518 2.00996 40.6684 2.22443C41.0149 2.34492 42.3611 2.88567 42.5216 3.20652C42.5327 3.31536 42.5009 3.3471 42.4457 3.44238Z" fill="black"/>
<path d="M18.551 5.25759C18.512 5.26054 18.4848 5.24914 18.4439 5.23953C18.1966 4.8531 20.56 3.49229 20.903 3.27344C20.9938 3.2873 20.9586 3.27701 21.039 3.33649C21.0925 3.45654 21.0886 3.52773 20.9659 3.60569C20.131 4.13621 19.3461 4.66741 18.551 5.25759Z" fill="black"/>
<path d="M49.3263 9.97788C49.0683 9.91021 48.6372 9.35232 48.4505 9.12293C47.2723 7.67473 46.1111 6.29505 44.6695 5.09448C44.3679 4.84334 43.7386 4.34653 43.4902 4.05877C43.4911 3.95301 43.5122 3.95782 43.578 3.85071C43.6073 3.86328 43.6769 3.89274 43.7021 3.91228C44.9491 4.87514 46.1497 5.91997 47.1954 7.10248C47.8236 7.81303 48.4015 8.57867 49.0148 9.30283C49.1503 9.46283 49.3439 9.64735 49.3929 9.8479C49.406 9.9017 49.3614 9.93128 49.3263 9.97788Z" fill="black"/>
<path d="M37.157 11.4623C37.0499 11.3614 37.0434 11.3881 37.0195 11.271C37.1236 10.8888 38.0313 9.65797 38.2992 9.27783C38.3594 9.30526 38.4346 9.37952 38.4028 9.443C38.085 10.0788 37.7141 11.0262 37.157 11.4623Z" fill="black"/>
<path d="M26.4269 11.4609C26.4154 11.4569 26.3441 11.4359 26.3365 11.4296C26.0453 11.1874 25.3283 10.3064 25.4904 9.92065L25.5749 9.96663C25.7652 10.3303 26.1816 10.6796 26.3757 11.0648C26.4691 11.25 26.4871 11.2646 26.4269 11.4609Z" fill="black"/>
<path d="M23.1505 15.8742C22.8042 15.7166 21.1054 14.8006 21.0781 14.4871C21.1957 14.3719 21.3205 14.3196 21.464 14.248C23.8218 13.0717 26.3499 12.5052 28.9311 12.074C29.3815 11.9988 29.8379 11.9554 30.2973 11.9249C30.803 11.8851 31.0605 11.9665 31.5127 12.1597C31.5588 12.4755 31.5425 13.0497 31.5412 13.3813L31.5265 15.3146C30.8103 15.4181 29.9433 16.0537 29.2289 16.2671C27.3442 16.8304 24.9336 16.6799 23.1505 15.8742Z" fill="#FEFEFE"/>
<path d="M31.8865 12.1423C32.3407 12.0267 32.6386 11.9993 33.1005 11.9605C34.2509 11.8475 35.1287 12.0758 36.2547 12.3031C37.2943 12.5179 38.3519 12.7087 39.3638 13.0354C41.7959 13.8207 43.6842 14.2782 40.1322 15.9175C38.3665 16.7216 35.8294 16.9887 34.0331 16.1662C33.0118 15.6987 33.1232 15.4118 31.8438 15.2941C31.9009 14.9236 31.8784 14.1913 31.8838 13.785C31.8906 13.2701 31.9204 12.6425 31.8865 12.1423Z" fill="#FEFEFE"/>
<path d="M21.7931 20.0312C21.337 20.12 21.0424 19.5315 20.9388 19.1562C20.9104 19.0533 20.972 18.9488 21.0309 18.8678C21.3954 18.8318 21.7351 19.3872 21.8567 19.6871C21.9081 19.8141 21.8506 19.9196 21.7931 20.0312Z" fill="black"/>
<path d="M47.4973 19.7272C47.0669 19.6566 46.9811 19.1854 47.2384 18.873C47.7289 18.9129 47.7673 19.3965 47.4973 19.7272Z" fill="black"/>
<path d="M35.0332 20.1516C35.077 19.6545 35.1941 19.2804 35.6775 19.0632C36.118 19.0541 36.1119 19.3041 35.9272 19.6289C35.7801 19.8876 35.6654 19.9874 35.3949 20.0937L35.0332 20.1516Z" fill="black"/>
<path d="M37.723 25.9445C38.8787 25.6067 40.0052 25.3271 41.0984 24.7928C43.0627 23.8331 45.0453 22.5662 47.1641 21.9627C49.5876 21.2724 52.1052 21.5417 54.5968 21.2879C55.4989 21.196 55.8595 21.2118 56.7809 21.01C56.8648 20.9996 56.8347 20.9967 56.9173 21.0227C57.1813 21.6253 53.9696 25.4679 53.5224 25.9985C52.5434 27.1605 51.5457 28.2524 50.4255 29.2791C48.2688 31.2555 45.9884 33.0645 43.335 34.331C42.3073 34.8229 41.1516 35.1287 40.0904 35.5205C37.0838 36.6386 33.9797 37.1181 30.7738 36.9123C27.9294 36.7296 24.738 36.0926 22.0364 35.175C18.7457 34.0575 15.3129 32.0164 12.7198 29.6945C11.46 28.5664 10.2199 27.1126 9.06677 25.8636C8.69544 25.4593 8.3023 25.0738 7.92758 24.6703C6.91449 23.5793 6.32474 22.253 5.32422 21.1539C6.91381 21.264 8.55128 21.0907 10.1606 21.231C11.4494 21.3507 13.3934 21.6124 14.6262 22.006C16.7108 22.7099 18.6191 23.8543 20.5964 24.8165C22.2399 25.6163 23.3842 26.008 25.1982 26.2545C24.5304 26.8084 23.9669 27.4867 23.7513 28.3526C23.713 28.5066 23.6806 28.7663 23.7713 28.9066C23.8847 28.9563 23.8283 28.9518 23.9464 28.9236C24.1459 28.7513 24.1678 28.395 24.2726 28.1534C24.6476 27.288 25.1933 26.7488 26.005 26.3458C27.5313 26.4737 29.1214 26.8018 30.6819 26.815C31.3349 26.8206 31.9809 26.7994 32.6332 26.7578C32.9826 26.7355 33.6704 26.6065 33.9813 26.6286C33.9757 26.6656 33.9597 26.8122 33.976 26.8331C34.1524 27.0581 34.404 27.298 34.5498 27.5418C34.8532 28.0493 34.9869 28.7301 35.0807 29.3064C35.1065 29.4653 35.0953 29.6397 35.13 29.7946C35.1565 29.913 35.1841 29.9318 35.2698 29.9881C35.3928 29.9856 35.3404 30.0051 35.4345 29.9337C35.5309 29.7512 35.5131 29.3254 35.5059 29.114C35.4668 27.9678 35.0172 27.3449 34.1878 26.5873C35.21 26.3605 36.115 26.3036 37.2046 26.008C37.4184 26.2579 37.8177 26.5388 38.0718 26.8135C38.9115 27.7215 39.1794 28.8959 39.3792 30.0784C39.4107 30.2643 39.4556 30.4773 39.6105 30.5799L39.6678 30.5682C39.7715 30.4225 39.7496 30.1799 39.7341 30.0017C39.6339 28.8514 39.2489 27.5826 38.5098 26.6765C38.3014 26.421 37.9764 26.1596 37.723 25.9445ZM28.1087 26.7216C27.9189 26.9144 26.8269 28.2805 27.4045 28.388C27.5112 28.254 28.2259 26.9573 28.2656 26.8444L28.2557 26.7707C28.1901 26.7223 28.1915 26.7285 28.1087 26.7216ZM28.8946 26.7637C28.0522 27.455 27.6611 29.1525 27.5388 30.2071C27.5145 30.4164 27.483 30.6707 27.6886 30.7884C27.7583 30.7526 27.8454 30.7156 27.8625 30.6308C28.0658 29.6251 28.0738 28.5651 28.6224 27.6611C28.7131 27.5117 28.7974 27.3368 28.8898 27.1862C28.9548 27.0551 29.0505 26.9811 29.0032 26.8361L28.8946 26.7637ZM31.6176 27.4551C31.5082 27.5962 31.4911 27.6876 31.5286 27.8679C31.649 28.4486 31.6959 29.0522 31.7591 29.6293C31.8055 30.0533 31.5453 31.9438 31.7875 32.1555C31.8818 32.1712 31.8787 32.1731 31.9694 32.1049C32.541 30.8997 32.1127 28.8737 31.8482 27.6007C31.8248 27.4877 31.7109 27.4666 31.6176 27.4551ZM31.2929 27.8537C31.0316 28.1522 30.9074 29.9887 31.1974 30.2256C31.2478 30.1981 31.3474 30.1612 31.3467 30.0924C31.3401 29.4781 31.3132 28.8684 31.356 28.2542C31.3626 28.1587 31.3797 27.9617 31.3482 27.879L31.2929 27.8537ZM50.8268 28.0502C50.6057 28.2274 50.3992 28.4464 50.1936 28.6387C48.4718 30.2484 46.5449 31.6148 44.5117 32.8015C44.4031 32.8648 44.2144 32.9596 44.1798 33.0823C44.2174 33.1869 44.252 33.1984 44.3627 33.2369C45.4225 32.897 50.3845 29.2823 50.9432 28.3056C50.9697 28.2592 50.9792 28.2166 50.9876 28.1645C50.9479 28.0669 50.9463 28.0627 50.8268 28.0502ZM12.6331 28.8703C12.5934 28.9373 12.5398 28.9984 12.5635 29.0735C12.6267 29.2734 13.0073 29.5509 13.1656 29.6833C14.8739 31.1122 16.8493 32.4632 18.8305 33.4781C19.5267 33.8347 21.4611 34.701 22.1904 34.7208C22.2596 34.5924 22.2531 34.6553 22.2358 34.5297C22.0437 34.256 21.3183 34.1407 20.9974 34.0115C18.3528 32.9462 15.9343 31.4645 13.7194 29.6733C13.4784 29.4785 12.8761 28.9346 12.6331 28.8703ZM42.9454 33.6371L42.9072 33.6481C42.0299 33.9105 41.1944 34.3836 40.268 34.6256C37.5187 35.3364 34.6076 35.8307 31.7656 35.9774C30.246 36.0559 28.4705 35.8183 26.9596 35.6441C25.7946 35.5098 24.6826 35.1363 23.5572 34.8406C23.4302 34.8072 23.2252 34.8245 23.1209 34.917L23.143 35.022C23.1834 35.0438 23.2877 35.1034 23.325 35.1166C28.8001 37.182 37.1541 36.4257 42.5188 34.1629C42.6718 34.0984 43.1962 33.8912 43.0913 33.6829C43.018 33.6517 43.02 33.6426 42.9454 33.6371Z" fill="#FEFEFE"/>
<path d="M21.7666 22.2764C21.3206 22.3123 21.0093 21.7311 20.8873 21.3559C20.8446 21.2247 20.8916 21.1264 20.9657 21.0179C21.3892 21.0319 21.7514 21.6256 21.8582 22.0021C21.8888 22.1102 21.8307 22.1951 21.7666 22.2764Z" fill="black"/>
<path d="M31.8416 24.4083C32.782 23.866 33.7055 23.1822 34.7117 22.783C34.9377 22.6934 35.3706 22.6706 35.6235 22.6478C35.8239 22.6142 36.4395 22.6324 36.6688 22.632C38.2167 22.6297 40.5333 23.0263 41.6412 24.1871C40.2866 24.8067 38.5064 25.321 37.079 25.684C35.4127 26.0674 33.515 26.41 31.8027 26.5253L31.8416 24.4083Z" fill="#FEFEFE"/>
<path d="M21.9043 24.8834C22.2699 24.4805 22.9684 24.0302 23.4459 23.7429C24.5457 23.0813 25.968 22.9377 27.2305 22.8651L27.2749 22.8634C28.5079 22.8241 29.5264 23.2891 30.5681 23.8965C30.7585 24.0076 31.4577 24.3518 31.4644 24.5611C31.4855 25.2129 31.4521 25.8895 31.4393 26.5454C29.9045 26.5789 28.2762 26.2468 26.7471 26.0135C26.3642 25.9661 25.9985 25.8849 25.6308 25.8349C24.2439 25.6462 23.193 25.4568 21.9043 24.8834Z" fill="#FEFEFE"/>
<path d="M27.4052 28.3879C26.8276 28.2805 27.9196 26.9143 28.1094 26.7216C28.1921 26.7284 28.1908 26.7222 28.2564 26.7706L28.2663 26.8443C28.2265 26.9572 27.5118 28.2539 27.4052 28.3879Z" fill="black"/>
<path d="M27.689 30.7884C27.4834 30.6706 27.5149 30.4164 27.5392 30.2071C27.6615 29.1524 28.0525 27.4549 28.8949 26.7637L29.0035 26.836C29.0508 26.981 28.9552 27.055 28.8902 27.1862C28.7978 27.3367 28.7134 27.5116 28.6228 27.661C28.0742 28.565 28.0662 29.625 27.8628 30.6307C27.8457 30.7155 27.7586 30.7526 27.689 30.7884Z" fill="black"/>
<path d="M31.9705 32.1048C31.8798 32.1731 31.8829 32.1711 31.7886 32.1554C31.5464 31.9437 31.8066 30.0533 31.7602 29.6292C31.697 29.0522 31.6502 28.4486 31.5297 27.8679C31.4923 27.6876 31.5093 27.5962 31.6187 27.4551C31.712 27.4665 31.8259 27.4877 31.8494 27.6007C32.1138 28.8737 32.5421 30.8996 31.9705 32.1048Z" fill="black"/>
<path d="M31.1982 30.2256C30.9082 29.9887 31.0324 28.1521 31.2937 27.8536L31.349 27.879C31.3805 27.9617 31.3634 28.1586 31.3568 28.2541C31.314 28.8683 31.3409 29.4781 31.3475 30.0924C31.3482 30.1612 31.2486 30.198 31.1982 30.2256Z" fill="black"/>
<path d="M44.3626 33.2369C44.2519 33.1984 44.2173 33.1868 44.1797 33.0822C44.2143 32.9595 44.403 32.8648 44.5116 32.8014C46.5448 31.6147 48.4717 30.2484 50.1935 28.6387C50.3991 28.4464 50.6056 28.2274 50.8267 28.0502C50.9462 28.0626 50.9478 28.0668 50.9874 28.1645C50.9791 28.2166 50.9696 28.2592 50.9431 28.3055C50.3844 29.2822 45.4224 32.897 44.3626 33.2369Z" fill="black"/>
<path d="M22.1913 34.7207C21.462 34.7009 19.5276 33.8346 18.8314 33.478C16.8503 32.4631 14.8749 31.1121 13.1665 29.6832C13.0082 29.5508 12.6276 29.2733 12.5644 29.0734C12.5407 28.9982 12.5943 28.9372 12.634 28.8702C12.877 28.9345 13.4794 29.4784 13.7203 29.6732C15.9352 31.4644 18.3537 32.9461 20.9983 34.0114C21.3192 34.1406 22.0446 34.2559 22.2367 34.5296C22.2541 34.6552 22.2605 34.5923 22.1913 34.7207Z" fill="black"/>
<path d="M59.6851 32.2611C59.5372 32.2383 57.4201 30.9065 57.3086 30.7685L57.3186 30.6763C57.3332 30.6816 57.3952 30.7038 57.4058 30.71C58.1639 31.1562 58.927 31.6686 59.6496 32.1708C59.6614 32.201 59.6733 32.231 59.6851 32.2611Z" fill="black"/>
<path d="M23.3252 35.1165C23.2879 35.1033 23.1836 35.0437 23.1432 35.0219L23.1211 34.9169C23.2254 34.8244 23.4305 34.8071 23.5574 34.8405C24.6829 35.1362 25.7948 35.5097 26.9598 35.644C28.4708 35.8182 30.2463 36.0558 31.7659 35.9773C34.6079 35.8306 37.519 35.3363 40.2682 34.6255C41.1947 34.3835 42.0301 33.9104 42.9074 33.648L42.9456 33.637C43.0202 33.6425 43.0182 33.6516 43.0915 33.6828C43.1965 33.8911 42.672 34.0983 42.5191 34.1628C37.1543 36.4256 28.8003 37.1819 23.3252 35.1165Z" fill="black"/>
</svg>
