<svg width="153" height="24" viewBox="0 0 153 24" fill="none" xmlns="http://www.w3.org/2000/svg">
<g clip-path="url(#clip0_263_167)">
<mask id="mask0_263_167" style="mask-type:luminance" maskUnits="userSpaceOnUse" x="0" y="0" width="153" height="24">
<path d="M0.732422 0.00390625H152.327V23.566H0.732422V0.00390625Z" fill="white"/>
</mask>
<g mask="url(#mask0_263_167)">
<path fill-rule="evenodd" clip-rule="evenodd" d="M13.501 3.9078H13.7637V0.549475H0.732422V0.7743C2.23533 1.99496 2.44122 2.35174 2.44122 3.68481V19.9431C2.44122 21.2762 2.23533 21.6317 0.732422 22.853V23.0791H7.49185V22.853C5.97061 21.7093 5.70791 21.2762 5.70791 19.9999V11.9447H7.17172C9.08762 11.9447 9.42608 12.0761 11.0579 14.16H11.2839V8.86679H11.0579C9.42547 10.9489 9.08762 11.0821 7.17172 11.0821H5.70791V1.37363H7.94211C8.84447 1.37363 9.61303 1.6736 13.5017 3.90842L13.501 3.9078ZM18.6427 13.4641H14.1205L16.2631 6.91607C16.3621 7.15067 16.4617 7.41093 16.5686 7.71884L18.6427 13.4641ZM22.2014 15.38L18.2798 4.60244H14.7296V4.81016C15.2288 5.27447 15.5495 5.62882 15.8037 6.01982L12.8712 14.9285C12.3464 16.5249 12.0079 17.032 10.6736 18.2704V18.4976H14.7865V18.271C13.6599 17.5769 13.2848 17.1273 13.2848 16.4687C13.2848 16.151 13.3789 15.7197 13.6232 14.9866L13.881 14.1972H18.9066L19.3667 15.4723C19.6495 16.2818 19.7051 16.6196 19.7051 16.9202C19.7051 17.3882 19.3856 17.7828 18.523 18.2704V18.4976H24.267V18.271C22.9144 17.1633 22.7085 16.7901 22.2014 15.38ZM30.8321 3.90842H31.0961V0.661276C29.8375 0.435229 28.4293 0.247671 27.1341 0.247671C23.3585 0.247671 21.5013 2.76474 21.5013 5.44859C21.5013 8.54605 23.5107 10.4045 26.0821 12.5465C28.86 14.8742 30.4937 16.2818 30.4937 18.9656C30.4937 21.1815 29.0305 22.5335 27.0785 22.5335C25.3697 22.5335 24.0177 21.856 20.4291 19.0401H20.1138L21.4255 22.7027C23.0029 23.1467 24.6334 23.374 26.2721 23.3784C30.5707 23.3784 33.0676 20.7697 33.0676 17.1456C33.0676 13.8038 31.1144 12.0956 28.3346 9.84246C25.7815 7.77505 24.0355 6.10596 24.0355 3.70253C24.0355 2.14402 25.0686 1.07427 26.6649 1.07427C27.7726 1.07427 28.543 1.50559 30.8321 3.90842ZM47.3739 3.90842H47.6354V0.547642H32.2789V3.9078H32.5403C36.1644 1.61862 36.8976 1.3162 37.7419 1.3162H38.3247V19.9987C38.3247 21.275 38.0608 21.7081 36.5395 22.8518V23.0778H43.3741V22.8518C41.8529 21.7081 41.5896 21.275 41.5896 19.9987V1.31742H42.173C43.0161 1.31742 43.7492 1.61984 47.3739 3.90903V3.90842ZM66.9594 3.30908H67.2245V0.416901C65.7033 0.190853 63.7501 0.00390625 61.9674 0.00390625C53.9867 0.00390625 49.255 4.4546 49.255 11.8317C49.255 19.0799 53.7796 23.5666 61.665 23.5666C63.7117 23.5666 65.5518 23.2666 67.0168 22.8713L67.5972 19.6621H67.337C64.3886 22.159 63.0738 22.7406 60.9343 22.7406C55.0375 22.7406 53.066 18.2899 53.066 11.7009C53.066 4.99772 55.0375 0.905041 60.6142 0.905041C62.3963 0.905041 63.6573 1.31681 66.9594 3.30908ZM66.1988 11.7009C66.1988 15.4191 65.8811 17.8769 63.1948 17.8769C60.4914 17.8769 60.1902 15.4191 60.1902 11.7003C60.1902 7.98277 60.4914 5.52313 63.1948 5.52313C65.8988 5.52313 66.1988 7.98277 66.1988 11.7009ZM69.3903 11.7009C69.3903 7.77505 67.0626 4.82788 63.1954 4.82788C59.3282 4.82788 56.9999 7.79704 56.9999 11.7009C56.9999 15.5865 59.3276 18.5709 63.1948 18.5709C67.0633 18.5709 69.3903 15.5865 69.3903 11.7009ZM83.2006 23.0387L89.8843 23.0778V22.8518C88.3826 21.6311 88.1773 21.2756 88.1773 19.9425V3.6842C88.1773 2.35113 88.3826 1.99434 89.8849 0.792017V0.567192L85.1538 0.529314L79.9003 17.1713L74.5271 0.548253H69.7404V0.773689C70.6428 1.55813 71.1956 2.06888 71.5976 2.59368V18.3461C71.5976 20.1667 71.3728 20.8998 69.6817 22.8524V23.0785H75.0348V22.8524C72.7804 20.9951 72.4627 20.2437 72.4627 18.3461V4.33057C72.4994 4.4381 72.536 4.53952 72.5727 4.65926L78.6027 23.266H78.8642L84.9082 4.11552V19.9236C84.9082 21.2572 84.7023 21.6128 83.2006 22.8151V23.0387ZM102.549 7.44025C102.549 11.6637 101.554 13.4281 98.3244 13.4281H96.4653V1.37363H97.7788C101.347 1.37363 102.549 2.89487 102.549 7.44025ZM106.04 7.28874C106.04 2.21917 102.492 0.548864 97.686 0.548864H91.491V0.773689C92.9915 1.99434 93.1974 2.35113 93.1974 3.6842V19.9425C93.1974 21.2756 92.9915 21.6311 91.491 22.8524V23.0785H98.2492V22.8524C96.7274 21.7087 96.4653 21.2756 96.4653 19.9993V14.2541H98.2285C102.473 14.2541 106.04 12.4506 106.04 7.28874ZM114.286 14.8552H107.91L111.051 3.4997C111.117 3.69337 111.183 3.90047 111.249 4.13385L114.286 14.8558L114.286 14.8552ZM152.328 0.773078V0.549475H147.242V0.7743C148.612 1.99496 149.024 2.57657 149.024 3.45938C149.024 3.92858 148.912 4.30369 148.535 5.16817L145.615 11.9979L141.796 3.5333C141.495 2.87776 141.4 2.51975 141.4 2.18312C141.4 1.58257 141.74 1.2435 142.658 0.7743V0.548864H131.394V0.773689C133.91 2.63339 134.249 3.36407 134.249 5.41194V18.3699L124.843 0.548253H120.167V0.773078C121.142 1.61006 121.708 2.13242 122.195 2.77879V18.4005C122.195 20.0983 122.006 20.8369 120.66 22.8518C119.622 21.5517 119.396 20.9273 118.871 19.0786L113.559 0.548864H108.997V0.773689C109.714 1.40296 110.167 1.83917 110.506 2.34991L106.087 18.2539C105.449 20.5632 104.94 21.2572 103.251 22.8524V23.0785H108.697V22.8524C107.138 21.6696 106.651 21.0691 106.651 20.036C106.651 19.6236 106.745 19.0401 106.97 18.2539L107.676 15.7001H114.523L115.475 19.0603C115.774 20.1123 115.887 20.5632 115.887 20.9756C115.887 21.5572 115.646 21.9519 114.498 22.8524V23.0785H125.914V22.8524C123.395 20.9951 123.059 20.262 123.059 18.4017V4.18028C123.078 4.21816 123.096 4.24626 123.114 4.28536L133.047 23.0778H135.114V5.41194C135.114 3.54246 135.3 2.79895 136.598 0.785297C137.443 1.80862 137.98 2.66882 138.679 4.22916L142.734 13.1898V19.9999C142.734 21.2756 142.47 21.7087 140.95 22.8524V23.0785H147.786V22.8524C146.264 21.7087 146.003 21.2756 146.003 19.9993V13.0884L149.38 5.22377C150.095 3.55285 150.638 2.76535 152.329 0.7743L152.328 0.773078Z" fill="white"/>
</g>
</g>
<defs>
<clipPath id="clip0_263_167">
<rect width="152.124" height="23.8266" fill="white" transform="translate(0.732422 0.00390625)"/>
</clipPath>
</defs>
</svg>
