<svg width="96" height="24" viewBox="0 0 96 24" fill="none" xmlns="http://www.w3.org/2000/svg">
<path d="M54.0105 8.03338C54.0105 5.4733 54.0581 3.08978 54.2012 0.882812L46.9076 2.16285V2.7808L47.6226 2.86908C48.147 2.91322 48.4807 3.08978 48.6714 3.35461C48.8621 3.66359 49.0051 4.10498 49.1004 4.76707C49.1958 6.04711 49.2911 8.96031 49.2434 13.5508C49.2434 18.0971 49.1958 20.9662 49.1004 22.0697C51.7223 22.5994 53.7721 22.82 55.2976 22.82C58.1578 22.82 60.3983 22.0697 62.0191 20.5248C63.6399 19.0241 64.498 16.9054 64.498 14.3012C64.498 12.2266 63.8783 10.5052 62.6388 9.13686C61.3994 7.76854 59.8263 7.10646 57.9671 7.10646C56.7277 7.10646 55.4406 7.41543 54.0105 8.03338ZM54.1535 21.6283C54.0581 20.2158 53.9628 15.9785 53.9628 9.04858C54.3918 8.91617 54.9639 8.82789 55.6789 8.82789C56.823 8.82789 57.7288 9.35756 58.3962 10.461C59.0635 11.5645 59.3972 12.8887 59.3972 14.566C59.3972 16.6405 59.0159 18.3178 58.2531 19.7303C57.4904 21.0986 56.537 21.8048 55.3453 21.8048C54.9639 21.7166 54.5825 21.6724 54.1535 21.6283ZM19.5447 1.32421H0.476562V2.20699L1.47764 2.29527C2.24037 2.42769 2.76474 2.69252 3.09844 3.08978C3.43213 3.53117 3.62281 4.2374 3.67048 5.20846C4.05185 9.97551 4.05185 14.4336 3.67048 18.5385C3.57514 19.5096 3.38446 20.2158 3.09844 20.6572C2.76474 21.0986 2.24037 21.3635 1.47764 21.4517L0.476562 21.5841V22.4669H12.7755V21.5841L11.4884 21.4959C10.7257 21.4076 10.2013 21.0986 9.86764 20.7014C9.53395 20.26 9.34327 19.5537 9.2956 18.5827C9.15258 16.8171 9.05724 14.7867 9.05724 12.5356L11.6314 12.5797C13.0139 12.6239 13.9673 13.5949 14.444 15.5371H15.3974V8.34236H14.444C13.9673 10.2403 13.0616 11.2114 11.6314 11.2555L9.05724 11.2997C9.05724 7.32715 9.15258 4.50224 9.2956 2.7808H13.0616C15.7311 2.7808 17.5426 4.36982 18.5913 7.54785L19.7354 7.23887L19.5447 1.32421ZM17.3042 14.9191C17.3042 17.2144 18.0193 19.1123 19.4017 20.6131C20.7842 22.1138 22.834 22.82 25.4082 22.82C27.9824 22.82 30.0799 22.0697 31.6054 20.5248C33.1308 19.0241 33.8459 17.1261 33.8459 14.8308C33.8459 12.5356 33.1308 10.6376 31.7484 9.13686C30.3659 7.63613 28.3161 6.9299 25.7419 6.9299C23.1677 6.9299 21.0702 7.68027 19.5447 9.22514C18.0193 10.7259 17.3042 12.6239 17.3042 14.9191ZM27.9347 9.88723C28.5068 11.1673 28.7451 12.8446 28.7451 14.875C28.7451 19.5537 27.6964 21.849 25.6466 21.849C24.5978 21.849 23.7874 21.1869 23.2154 19.8627C22.6433 18.5385 22.405 16.8612 22.405 14.875C22.405 10.2403 23.4537 7.9451 25.5035 7.9451C26.5523 7.90096 27.3627 8.56305 27.9347 9.88723ZM68.2163 20.6131C69.7894 22.0697 71.7916 22.82 74.1751 22.82C75.6529 22.82 76.94 22.5552 78.0841 21.9814C79.2281 21.4517 80.1339 20.7896 80.7536 19.9951L80.2769 19.4655C79.2281 20.2158 78.0364 20.5689 76.6539 20.5689C74.7471 20.5689 73.2693 19.9951 72.2683 18.8034C71.2195 17.6116 70.7428 16.1109 70.8382 14.1687H81.0396C81.0396 12.0501 80.4676 10.3286 79.2758 8.96031C78.0841 7.63613 76.4156 6.97404 74.2704 6.97404C71.6009 6.97404 69.551 7.76854 68.0733 9.31342C66.5955 10.8583 65.8804 12.7563 65.8804 15.0074C65.8804 17.3026 66.6432 19.1565 68.2163 20.6131ZM71.7439 9.53412C72.2683 8.47477 72.9356 7.9451 73.8414 7.9451C75.2715 7.9451 75.9866 9.6224 75.9866 13.0211L70.9335 13.1094C70.9812 11.7852 71.2195 10.5935 71.7439 9.53412ZM93.863 7.76854C92.5759 7.23887 90.9551 6.9299 89.0006 6.9299C86.9984 6.9299 85.4253 7.41543 84.2335 8.34236C83.0418 9.26928 82.4221 10.4169 82.4221 11.7852C82.4221 12.977 82.8034 13.9039 83.5185 14.566C84.2335 15.2281 85.3776 15.8019 86.8554 16.2874C88.1902 16.7288 89.1436 17.1702 89.6203 17.5675C90.097 18.0089 90.383 18.4944 90.383 19.1565C90.383 19.7744 90.1447 20.3482 89.6203 20.7896C89.1436 21.2752 88.4762 21.4959 87.6181 21.4959C85.5206 21.4959 83.9475 20.0834 82.8511 17.2585L82.0407 17.4792L82.2314 21.8931C83.9475 22.5111 85.8543 22.82 87.9518 22.82C90.1447 22.82 91.8131 22.3787 93.0526 21.4517C94.292 20.5689 94.9117 19.2889 94.9117 17.6999C94.9117 16.6405 94.6257 15.7578 94.006 15.0957C93.3863 14.4336 92.3852 13.8598 90.9551 13.3301C89.382 12.8004 88.2855 12.3149 87.7135 11.8735C87.1414 11.4321 86.8554 10.9024 86.8554 10.2403C86.8554 9.57826 87.0461 9.04858 87.4751 8.60719C87.9042 8.1658 88.4285 7.98924 89.0959 7.98924C91.0027 7.98924 92.3852 9.26928 93.2433 11.7852L94.0537 11.5645L93.863 7.76854ZM48.004 7.37129C47.3366 7.06232 46.6216 6.9299 45.8112 6.9299C45.0008 6.9299 44.1904 7.23887 43.2846 7.85682C42.3789 8.47477 41.7115 9.31342 41.1871 10.461L41.2348 6.9299L33.9889 8.25408V8.87203L34.7039 8.91617C35.6097 9.00445 36.1341 9.66653 36.2294 10.8583C36.5154 13.5949 36.5154 16.5081 36.2294 19.5979C36.1341 20.7896 35.6097 21.4076 34.7039 21.54L33.9889 21.6283V22.4669H44.095V21.6283L42.8079 21.54C41.9022 21.4517 41.3778 20.7896 41.2825 19.5979C40.9964 17.0378 40.9488 14.3012 41.1871 11.4762C41.4732 11.0349 42.0929 10.77 43.0463 10.6817C43.9997 10.5935 45.0961 10.8583 46.2402 11.4762L48.004 7.37129Z" fill="white"/>
</svg>
