<svg width="106" height="24" viewBox="0 0 106 24" fill="none" xmlns="http://www.w3.org/2000/svg">
<g clip-path="url(#clip0_263_165)">
<path d="M79.2406 6.09374L79.1377 9.18244C75.5311 8.93524 74.5007 9.86208 74.5007 12.8888V13.2794H71.4097V6.27897H74.5007V8.27636C75.4283 6.64978 76.6854 5.9085 79.2406 6.09374ZM5.66973 18.6546H8.76082V6.71107H5.66973V18.6546ZM20.9815 6.11451C18.8176 6.11451 17.4988 7.08222 16.7981 8.15276V1.56368H0.517578V4.44638H13.913V13.2794H16.8597C16.8597 10.7467 18.3232 8.95601 20.1159 8.95601C21.6618 8.95601 22.3622 9.71771 22.3622 12.4564V18.6546H25.4533V11.3446C25.4533 7.84426 23.6606 6.11451 20.9815 6.11451ZM33.1402 16.286C31.265 16.286 30.0491 15.1535 29.8431 13.2797H26.9372C27.2256 16.5744 29.3895 18.9014 33.1197 18.9014C36.0048 18.9014 37.6328 17.6041 38.4779 15.6479L35.8604 14.4946C35.4689 15.6683 34.7477 16.286 33.1402 16.286ZM33.0166 6.1758C31.9132 6.15143 30.8215 6.40642 29.8431 6.91707L31.3266 9.0173C31.883 8.72923 32.481 8.58486 33.1197 8.60529C34.8509 8.60529 35.7368 9.73814 35.8604 11.2204H32.8722V13.2797H38.7663C38.8075 12.9709 38.8283 12.6825 38.8283 12.374C38.8487 7.88478 35.8812 6.1758 33.0166 6.1758ZM63.6196 16.286C61.7445 16.286 60.5285 15.1535 60.3225 13.2797H57.4167C57.7051 16.5744 59.869 18.9014 63.5992 18.9014C66.4843 18.9014 68.1122 17.6041 68.9574 15.6479L66.3399 14.4946C65.9279 15.6683 65.2067 16.286 63.6196 16.286ZM63.5168 6.1758C62.4133 6.15137 61.3215 6.40637 60.343 6.91707L61.8269 9.0173C62.3833 8.72923 62.9808 8.58486 63.6196 8.60529C65.3507 8.60529 66.2371 9.73814 66.3607 11.2204H63.3724V13.2797H69.2665C69.3077 12.9709 69.3282 12.6825 69.3282 12.374C69.3489 7.88478 66.3811 6.1758 63.5168 6.1758ZM99.7456 16.286C97.8705 16.286 96.6546 15.1535 96.4486 13.2797H93.5427C93.8311 16.5744 95.995 18.9014 99.7252 18.9014C102.61 18.9014 104.238 17.6041 105.083 15.6479L102.466 14.4946C102.054 15.6683 101.333 16.286 99.7456 16.286ZM99.5809 6.1758C98.4774 6.15142 97.3858 6.40641 96.4074 6.91707L97.8909 9.0173C98.4477 8.72923 99.0452 8.58486 99.684 8.60529C101.415 8.60529 102.301 9.73814 102.425 11.2204H99.4368V13.2797H105.331C105.372 12.9709 105.393 12.6825 105.393 12.374C105.413 7.88478 102.446 6.1758 99.5809 6.1758ZM40.415 0.101562L45.9748 13.2794H49.3546L45.1136 2.79903H50.5954V0.122333L40.415 0.101903V0.101562ZM56.9015 0.121993L50.5334 16.2452L49.5855 18.6546H52.8209L60.4666 0.122333H56.9015V0.121993ZM85.3202 18.3661C86.639 18.3661 87.7313 17.9953 88.4937 17.3572L87.2574 15.401C86.8658 15.5659 86.433 15.6275 86.0002 15.6275C84.3103 15.6275 83.3416 14.6186 83.012 13.2801H79.9825C80.3949 16.1423 82.4556 18.3661 85.3202 18.3661ZM89.1325 8.00873C88.4321 6.89698 87.0098 6.09374 85.0315 6.09374C83.0944 6.07331 81.3016 7.12342 80.3537 8.8324L82.9296 10.4798C83.4035 9.49128 84.3311 8.8324 85.753 8.8324C87.7725 8.8324 89.1325 10.3974 89.1325 12.2504C89.1325 12.6008 89.0913 12.9508 88.9885 13.2801H92.2239V6.29974H89.1325V8.00873ZM86.1446 21.1664C84.1455 21.1664 83.4035 20.1987 83.2592 19.0662H80.3125C80.3741 21.2284 81.8168 23.5963 86.2062 23.5963C89.1737 23.5963 91.1108 22.1137 91.9148 19.8899L89.1325 18.9222C88.7409 20.3635 87.6694 21.1664 86.1446 21.1664Z" fill="white"/>
</g>
<defs>
<clipPath id="clip0_263_165">
<rect width="105.215" height="23.8352" fill="white" transform="translate(0.517578)"/>
</clipPath>
</defs>
</svg>
