<svg width="120" height="24" viewBox="0 0 120 24" fill="none" xmlns="http://www.w3.org/2000/svg">
<g clip-path="url(#clip0_263_163)">
<path d="M100.806 3.69446V20.1408H108.91C111.175 20.1408 112.486 19.7832 113.439 18.949C114.631 17.8764 115.227 15.9696 115.227 11.9176C115.227 7.86562 114.631 5.95881 113.439 4.88622C112.486 4.05199 111.175 3.69446 108.91 3.69446H100.806ZM111.89 11.9176C111.89 15.4929 111.651 16.3271 110.936 16.8038C110.46 17.1614 109.864 17.2805 108.672 17.2805H104.143V6.43551H108.672C109.864 6.43551 110.46 6.43551 110.936 6.91221C111.651 7.50809 111.89 8.34233 111.89 11.9176ZM119.398 23.7761H95.6216V0H119.398V23.7761ZM76.1969 6.43551V3.69446H90.2596V8.93821H87.2793V6.43551H81.5588V10.3683H86.0875V12.9902H81.5588V17.3997H87.3994V14.5395H90.3779V20.1408H76.1978V17.3997H78.4612V6.43551H76.1969ZM63.445 15.8504C63.445 17.6381 63.5632 18.949 63.8016 20.0216H67.0203C66.9002 19.1874 66.7819 17.6381 66.7819 15.6121C66.6618 13.2285 65.9468 12.871 64.2783 12.5135C66.1851 12.156 67.0203 11.3217 67.0203 8.34233C67.0203 5.95881 66.6618 5.0054 65.9468 4.40952C65.4701 3.93281 64.6368 3.69446 63.3249 3.69446H53.3141V20.1408H56.651V13.7053H61.2998C62.2533 13.7053 62.6098 13.8244 62.9683 14.0628C63.3268 14.3011 63.445 14.6587 63.445 15.8504ZM56.651 11.0834V6.55469H62.0149C62.73 6.55469 62.9683 6.67386 63.0865 6.79304C63.3249 7.03139 63.5632 7.38892 63.5632 8.81903C63.5632 10.2491 63.3249 10.7258 63.0865 10.9642C62.9683 11.0834 62.73 11.2026 62.0149 11.2026L56.651 11.0834ZM71.7873 23.7761H47.9521V0H71.7273V23.7761H71.7873ZM41.755 17.3997V20.1408H30.4323V17.3997H34.4843V6.43551H30.4323V3.69446H41.754V6.43551H37.702V17.3997H41.755ZM22.6267 3.69446H19.5281L17.2638 16.6847L14.6419 4.64787C14.5227 3.81364 14.1652 3.69446 13.4502 3.69446H11.7817C11.0666 3.69446 10.7091 3.93281 10.5899 4.64787L7.96806 16.6847L5.70371 3.69446H2.36678L5.58453 19.3065C5.70371 20.0216 5.94206 20.1408 6.77629 20.1408H9.04064C9.7557 20.1408 9.99405 20.0216 10.2324 19.3065L12.7351 7.9848L15.2378 19.3065C15.357 20.0216 15.5953 20.1408 16.4296 20.1408H18.5747C19.2898 20.1408 19.6473 20.0216 19.7665 19.3065L22.6267 3.69446ZM24.2952 23.7761H0.459961V0H24.2361V23.7761H24.2952Z" fill="white"/>
</g>
<defs>
<clipPath id="clip0_263_163">
<rect width="119.176" height="23.8352" fill="white" transform="translate(0.34082)"/>
</clipPath>
</defs>
</svg>
